<svg width="1160" height="1160" viewBox="0 0 1160 1160" fill="none" xmlns="http://www.w3.org/2000/svg">
<g clip-path="url(#clip0_513_5)">
<rect width="1160" height="1160" rx="580" fill="black"/>
<path d="M93.5 589.7C93.5 543.967 104.7 501.733 127.1 463C149.967 424.267 180.767 393.7 219.5 371.3C258.233 348.433 300.467 337 346.2 337C392.867 337 435.8 348.9 475 372.7C514.2 396.033 544.767 427.3 566.7 466.5L522.6 490.3C504.867 459.033 480.367 434.067 449.1 415.4C417.833 396.733 383.533 387.4 346.2 387.4C309.333 387.4 275.5 396.5 244.7 414.7C213.9 432.9 189.4 457.4 171.2 488.2C153 519 143.9 552.833 143.9 589.7C143.9 626.567 153 660.633 171.2 691.9C189.4 722.7 213.9 747.2 244.7 765.4C275.5 783.6 309.333 792.7 346.2 792.7C383.533 792.7 417.833 783.367 449.1 764.7C480.833 745.567 505.567 720.367 523.3 689.1L567.4 712.9C545.467 752.1 514.667 783.6 475 807.4C435.333 831.2 392.4 843.1 346.2 843.1C300.467 843.1 258.233 831.667 219.5 808.8C180.767 785.933 149.967 755.133 127.1 716.4C104.7 677.667 93.5 635.433 93.5 589.7ZM823.354 344C869.087 344 911.087 354.733 949.354 376.2C987.621 397.667 1017.95 427.3 1040.35 465.1C1062.75 502.433 1073.95 543.967 1073.95 589.7C1073.95 635.433 1062.75 676.967 1040.35 714.3C1017.95 751.167 987.621 780.333 949.354 801.8C911.087 823.267 869.087 834 823.354 834H650.454V344H823.354ZM823.354 786.4C860.221 786.4 893.821 777.767 924.154 760.5C954.954 743.233 979.221 719.667 996.954 689.8C1014.69 659.933 1023.55 626.567 1023.55 589.7C1023.55 552.833 1014.69 519.233 996.954 488.9C979.221 458.567 954.954 434.767 924.154 417.5C893.821 399.767 860.221 390.9 823.354 390.9H700.854V786.4H823.354Z" fill="white"/>
<path d="M127.1 463L126.239 462.492L126.234 462.499L127.1 463ZM219.5 371.3L220.001 372.166L220.008 372.161L219.5 371.3ZM475 372.7L474.481 373.555L474.489 373.559L475 372.7ZM566.7 466.5L567.175 467.38L568.068 466.898L567.573 466.012L566.7 466.5ZM522.6 490.3L521.73 490.793L522.213 491.645L523.075 491.18L522.6 490.3ZM449.1 415.4L449.613 414.541L449.613 414.541L449.1 415.4ZM244.7 414.7L244.191 413.839L244.191 413.839L244.7 414.7ZM171.2 488.2L170.339 487.691L170.339 487.691L171.2 488.2ZM171.2 691.9L170.336 692.403L170.339 692.409L171.2 691.9ZM244.7 765.4L244.191 766.261L244.191 766.261L244.7 765.4ZM449.1 764.7L449.613 765.559L449.616 765.556L449.1 764.7ZM523.3 689.1L523.775 688.22L522.913 687.755L522.43 688.607L523.3 689.1ZM567.4 712.9L568.273 713.388L568.769 712.502L567.875 712.02L567.4 712.9ZM475 807.4L475.515 808.257L475.515 808.257L475 807.4ZM219.5 808.8L218.992 809.661L218.992 809.661L219.5 808.8ZM127.1 716.4L126.234 716.901L126.239 716.908L127.1 716.4ZM94.5 589.7C94.5 544.138 105.656 502.078 127.966 463.501L126.234 462.499C103.744 501.388 92.5 543.795 92.5 589.7H94.5ZM127.961 463.508C150.741 424.922 181.417 394.479 220.001 372.166L218.999 370.434C180.116 392.921 149.192 423.611 126.239 462.492L127.961 463.508ZM220.008 372.161C258.585 349.387 300.642 338 346.2 338V336C300.291 336 257.882 347.48 218.992 370.439L220.008 372.161ZM346.2 338C392.687 338 435.44 349.851 474.481 373.555L475.519 371.845C436.16 347.948 393.046 336 346.2 336V338ZM474.489 373.559C513.54 396.804 543.981 427.944 565.827 466.988L567.573 466.012C545.552 426.656 514.86 395.262 475.512 371.841L474.489 373.559ZM566.225 465.62L522.125 489.42L523.075 491.18L567.175 467.38L566.225 465.62ZM523.47 489.807C505.65 458.387 481.026 433.296 449.613 414.541L448.587 416.259C479.707 434.838 504.083 459.679 521.73 490.793L523.47 489.807ZM449.613 414.541C418.187 395.78 383.709 386.4 346.2 386.4V388.4C383.358 388.4 417.48 397.687 448.587 416.259L449.613 414.541ZM346.2 386.4C309.16 386.4 275.15 395.545 244.191 413.839L245.209 415.561C275.85 397.455 309.507 388.4 346.2 388.4V386.4ZM244.191 413.839C213.246 432.125 188.625 456.746 170.339 487.691L172.061 488.709C190.175 458.054 214.554 433.675 245.209 415.561L244.191 413.839ZM170.339 487.691C152.045 518.65 142.9 552.66 142.9 589.7H144.9C144.9 553.007 153.955 519.35 172.061 488.709L170.339 487.691ZM142.9 589.7C142.9 626.74 152.045 660.981 170.336 692.403L172.064 691.397C153.955 660.286 144.9 626.393 144.9 589.7H142.9ZM170.339 692.409C188.625 723.354 213.246 747.975 244.191 766.261L245.209 764.539C214.554 746.425 190.175 722.046 172.061 691.391L170.339 692.409ZM244.191 766.261C275.15 784.555 309.16 793.7 346.2 793.7V791.7C309.507 791.7 275.85 782.645 245.209 764.539L244.191 766.261ZM346.2 793.7C383.709 793.7 418.187 784.32 449.613 765.559L448.587 763.841C417.48 782.413 383.358 791.7 346.2 791.7V793.7ZM449.616 765.556C481.492 746.337 506.349 721.014 524.17 689.593L522.43 688.607C504.784 719.719 480.175 744.796 448.584 763.844L449.616 765.556ZM522.825 689.98L566.925 713.78L567.875 712.02L523.775 688.22L522.825 689.98ZM566.527 712.412C544.682 751.455 514.007 782.829 474.486 806.543L475.515 808.257C515.326 784.371 546.252 752.745 568.273 713.388L566.527 712.412ZM474.486 806.543C434.974 830.249 392.219 842.1 346.2 842.1V844.1C392.581 844.1 435.693 832.151 475.515 808.257L474.486 806.543ZM346.2 842.1C300.642 842.1 258.585 830.713 220.008 807.939L218.992 809.661C257.882 832.62 300.291 844.1 346.2 844.1V842.1ZM220.008 807.939C181.421 785.158 150.742 754.479 127.961 715.892L126.239 716.908C149.191 755.787 180.113 786.709 218.992 809.661L220.008 807.939ZM127.966 715.899C105.656 677.322 94.5 635.262 94.5 589.7H92.5C92.5 635.605 103.744 678.012 126.234 716.901L127.966 715.899ZM949.354 376.2L948.865 377.072L948.865 377.072L949.354 376.2ZM1040.35 465.1L1039.49 465.61L1039.5 465.614L1040.35 465.1ZM1040.35 714.3L1041.21 714.819L1041.21 714.814L1040.35 714.3ZM949.354 801.8L948.865 800.928L948.865 800.928L949.354 801.8ZM650.454 834H649.454V835H650.454V834ZM650.454 344V343H649.454V344H650.454ZM924.154 760.5L923.665 759.628L923.659 759.631L924.154 760.5ZM996.954 689.8L996.094 689.289L996.094 689.289L996.954 689.8ZM996.954 488.9L997.817 488.395L996.954 488.9ZM924.154 417.5L923.649 418.363L923.657 418.368L923.665 418.372L924.154 417.5ZM700.854 390.9V389.9H699.854V390.9H700.854ZM700.854 786.4H699.854V787.4H700.854V786.4ZM823.354 345C868.923 345 910.754 355.693 948.865 377.072L949.843 375.328C911.421 353.774 869.251 343 823.354 343V345ZM948.865 377.072C986.978 398.453 1017.18 427.961 1039.49 465.61L1041.21 464.59C1018.72 426.639 988.263 396.881 949.843 375.328L948.865 377.072ZM1039.5 465.614C1061.8 502.784 1072.95 544.138 1072.95 589.7H1074.95C1074.95 543.795 1063.71 502.082 1041.21 464.585L1039.5 465.614ZM1072.95 589.7C1072.95 635.262 1061.8 676.616 1039.5 713.786L1041.21 714.814C1063.71 677.318 1074.95 635.605 1074.95 589.7H1072.95ZM1039.5 713.781C1017.19 750.498 986.984 779.544 948.865 800.928L949.843 802.672C988.257 781.123 1018.72 751.836 1041.21 714.819L1039.5 713.781ZM948.865 800.928C910.754 822.307 868.923 833 823.354 833V835C869.251 835 911.421 824.226 949.843 802.672L948.865 800.928ZM823.354 833H650.454V835H823.354V833ZM651.454 834V344H649.454V834H651.454ZM650.454 345H823.354V343H650.454V345ZM823.354 787.4C860.384 787.4 894.156 778.726 924.649 761.369L923.659 759.631C893.485 776.807 860.057 785.4 823.354 785.4V787.4ZM924.643 761.372C955.594 744.021 979.989 720.331 997.814 690.311L996.094 689.289C978.452 719.002 954.314 742.445 923.665 759.628L924.643 761.372ZM997.814 690.311C1015.64 660.28 1024.55 626.735 1024.55 589.7H1022.55C1022.55 626.398 1013.73 659.587 996.094 689.289L997.814 690.311ZM1024.55 589.7C1024.55 552.665 1015.64 518.889 997.817 488.395L996.091 489.405C1013.73 519.577 1022.55 553.002 1022.55 589.7H1024.55ZM997.817 488.395C979.994 457.908 955.597 433.981 924.643 416.628L923.665 418.372C954.31 435.552 978.448 459.226 996.091 489.405L997.817 488.395ZM924.659 416.637C894.164 398.809 860.389 389.9 823.354 389.9V391.9C860.052 391.9 893.477 400.724 923.649 418.363L924.659 416.637ZM823.354 389.9H700.854V391.9H823.354V389.9ZM699.854 390.9V786.4H701.854V390.9H699.854ZM700.854 787.4H823.354V785.4H700.854V787.4Z" fill="white"/>
</g>
<defs>
<clipPath id="clip0_513_5">
<rect width="1160" height="1160" rx="580" fill="white"/>
</clipPath>
</defs>
</svg>
