<svg width="500" height="500" viewBox="0 0 50 50" xmlns="http://www.w3.org/2000/svg" xmlns:xlink="http://www.w3.org/1999/xlink" overflow="hidden"><path d="M8.8125 2C8.33594 2.08984 7.99219 2.51172 8 3L8 11C8 11.0312 8 11.0625 8 11.0938L8 36C8 37.6562 6.65625 39 5 39 4.96875 39 4.9375 39 4.90625 39 3.29688 38.9492 2 37.6211 2 36L2 14 6 14 6 12 1 12C0.449219 12 0 12.4492 0 13L0 36C0 38.6289 2.07422 40.7852 4.65625 40.9688 4.66797 40.9688 4.67578 40.9688 4.6875 40.9688 4.70703 40.9805 4.73047 40.9922 4.75 41 4.83594 41.0039 4.91406 41 5 41L25 41C25.3594 41.0039 25.6953 40.8164 25.8789 40.5039 26.0586 40.1914 26.0586 39.8086 25.8789 39.4961 25.6953 39.1836 25.3594 38.9961 25 39L8.96875 39C9.60938 38.1602 10 37.1289 10 36L10 11.1562C10.0039 11.1055 10.0039 11.0508 10 11L10 4 44 4 44 25C43.9961 25.3594 44.1836 25.6953 44.4961 25.8789 44.8086 26.0586 45.1914 26.0586 45.5039 25.8789 45.8164 25.6953 46.0039 25.3594 46 25L46 3C46 2.44922 45.5508 2 45 2L9 2C8.96875 2 8.9375 2 8.90625 2 8.875 2 8.84375 2 8.8125 2ZM16 10 16 12 38 12 38 10ZM16 14 16 16 38 16 38 14ZM16 22 16 24 26 24 26 22ZM28 22 28 24 38 24 38 22ZM16 26 16 28 26 28 26 26ZM28 26 28 28 30 28 33 26ZM39 27C32.9531 27 28 31.9531 28 38 28 44.0469 32.9531 49 39 49L39 47C34.0469 47 30 42.9531 30 38 30 33.0469 34.0469 29 39 29 43.9531 29 48 33.0469 48 38 48 40.6602 46.8516 43 45 44.625L45 41 43 41 43 48 50 48 50 46 46.4375 46C48.6211 44.0117 50 41.1719 50 38 50 31.9531 45.0469 27 39 27ZM16 30 16 32 26 32 26 30ZM16 34 16 36 26 36 26 34Z" fill="#FFFFFF"/></svg>