<svg width="512" height="512" viewBox="0 0 64 64" xmlns="http://www.w3.org/2000/svg" xmlns:xlink="http://www.w3.org/1999/xlink" overflow="hidden"><path d="M29 0.0585938C28.4492 0.0585938 28 0.503906 28 1.05469L28 10 15 10C14.4492 10 14 10.4453 14 11 14 11.5547 14.4492 12 15 12L16 12 16 32 5 32C3.34766 32 2 33.3477 2 35 2 36.3008 2.83984 37.4023 4 37.8164L4 62 1 62C0.449219 62 0 62.4453 0 63 0 63.5547 0.449219 64 1 64L63 64C63.5508 64 64 63.5547 64 63 64 62.4453 63.5508 62 63 62L60 62 60 28 61 28C61.5508 28 62 27.5547 62 27 62 26.4453 61.5508 26 61 26L52 26 52 24C52 22.8984 51.1016 22 50 22L46 22 46 12 47 12C47.5508 12 48 11.5547 48 11 48 10.4453 47.5508 10 47 10L34 10 34 6.05469C34 5.50391 33.5508 5.05469 33 5.05469 32.4492 5.05469 32 5.50391 32 6.05469L32 10 30 10 30 1.05469C30 0.503906 29.5508 0.0585938 29 0.0585938ZM18 12 44 12 44 62 18 62ZM23 16C22.4492 16 22 16.4453 22 17L22 23C22 23.5547 22.4492 24 23 24 23.5508 24 24 23.5547 24 23L24 17C24 16.4453 23.5508 16 23 16ZM31 16C30.4492 16 30 16.4453 30 17L30 19C30 19.5547 30.4492 20 31 20 31.5508 20 32 19.5547 32 19L32 17C32 16.4453 31.5508 16 31 16ZM39 16C38.4492 16 38 16.4453 38 17L38 23C38 23.5547 38.4492 24 39 24 39.5508 24 40 23.5547 40 23L40 17C40 16.4453 39.5508 16 39 16ZM31 24C30.4492 24 30 24.4453 30 25L30 26C27.793 26 26 27.793 26 30L26 31C26 33.207 27.793 35 30 35L32 35C33.1016 35 34 35.8984 34 37L34 38C34 39.1016 33.1016 40 32 40L32 37C32 36.4453 31.5508 36 31 36 30.4492 36 30 36.4453 30 37L30 40C28.8984 40 28 39.1016 28 38 28 37.4453 27.5508 37 27 37 26.4492 37 26 37.4453 26 38 26 40.207 27.793 42 30 42L30 43C30 43.5547 30.4492 44 31 44 31.5508 44 32 43.5547 32 43L32 42C34.207 42 36 40.207 36 38L36 37C36 34.793 34.207 33 32 33L32 30C32 29.4453 31.5508 29 31 29 30.4492 29 30 29.4453 30 30L30 33C28.8984 33 28 32.1016 28 31L28 30C28 28.8984 28.8984 28 30 28L32 28C33.1016 28 34 28.8984 34 30 34 30.5547 34.4492 31 35 31 35.5508 31 36 30.5547 36 30 36 27.793 34.207 26 32 26L32 25C32 24.4453 31.5508 24 31 24ZM46 24 50 24 50 28 58 28 58 40 48 40C47.4492 40 47 40.4453 47 41 47 41.5547 47.4492 42 48 42L58 42 58 62 46 62ZM51 30C50.4492 30 50 30.4453 50 31 50 31.5547 50.4492 32 51 32L53 32C53.5508 32 54 31.5547 54 31 54 30.4453 53.5508 30 53 30ZM5 34 16 34 16 36 5 36C4.44922 36 4 35.5508 4 35 4 34.4492 4.44922 34 5 34ZM51 34C50.4492 34 50 34.4453 50 35 50 35.5547 50.4492 36 51 36L53 36C53.5508 36 54 35.5547 54 35 54 34.4453 53.5508 34 53 34ZM6 38 16 38 16 62 14 62 14 57.9492C14 56.8477 13.1016 55.9492 12 55.9492L10 55.9492C8.89844 55.9492 8 56.8477 8 57.9492L8 62 6 62ZM10 40C9.44922 40 9 40.4453 9 41 9 41.5547 9.44922 42 10 42L12 42C12.5508 42 13 41.5547 13 41 13 40.4453 12.5508 40 12 40ZM10 44C9.44922 44 9 44.4453 9 45 9 45.5547 9.44922 46 10 46L12 46C12.5508 46 13 45.5547 13 45 13 44.4453 12.5508 44 12 44ZM23 44C22.4492 44 22 44.4453 22 45L22 51C22 51.5547 22.4492 52 23 52 23.5508 52 24 51.5547 24 51L24 45C24 44.4453 23.5508 44 23 44ZM39 44C38.4492 44 38 44.4453 38 45L38 57C38 57.5547 38.4492 58 39 58 39.5508 58 40 57.5547 40 57L40 45C40 44.4453 39.5508 44 39 44ZM51 44C50.4492 44 50 44.4453 50 45 50 45.5547 50.4492 46 51 46L53 46C53.5508 46 54 45.5547 54 45 54 44.4453 53.5508 44 53 44ZM10 48C9.44922 48 9 48.4453 9 49 9 49.5547 9.44922 50 10 50L12 50C12.5508 50 13 49.5547 13 49 13 48.4453 12.5508 48 12 48ZM31 48C30.4492 48 30 48.4453 30 49L30 57C30 57.5547 30.4492 58 31 58 31.5508 58 32 57.5547 32 57L32 49C32 48.4453 31.5508 48 31 48ZM51 48C50.4492 48 50 48.4453 50 49 50 49.5547 50.4492 50 51 50L53 50C53.5508 50 54 49.5547 54 49 54 48.4453 53.5508 48 53 48ZM10 52C9.44922 52 9 52.4453 9 53 9 53.5547 9.44922 54 10 54L12 54C12.5508 54 13 53.5547 13 53 13 52.4453 12.5508 52 12 52ZM51 52C50.4492 52 50 52.4453 50 53 50 53.5547 50.4492 54 51 54L53 54C53.5508 54 54 53.5547 54 53 54 52.4453 53.5508 52 53 52ZM23 54C22.4492 54 22 54.4453 22 55L22 57C22 57.5547 22.4492 58 23 58 23.5508 58 24 57.5547 24 57L24 55C24 54.4453 23.5508 54 23 54ZM51 56C50.4492 56 50 56.4453 50 57 50 57.5547 50.4492 58 51 58L53 58C53.5508 58 54 57.5547 54 57 54 56.4453 53.5508 56 53 56ZM10 57.9492 12 57.9492 12 61.9492 10 61.9492Z" fill="#FFFFFF"/></svg>