<svg width="512" height="512" viewBox="0 0 64 64" xmlns="http://www.w3.org/2000/svg" xmlns:xlink="http://www.w3.org/1999/xlink" overflow="hidden"><path d="M23 8C21.3477 8 20 9.34766 20 11L20 16 16 16 16 14.0586C16 13.5039 15.5547 13.0586 15 13.0586 14.4453 13.0586 14 13.5039 14 14.0586L14 16 12 16 12 9.05469C12 8.50391 11.5547 8.05469 11 8.05469 10.4453 8.05469 10 8.50391 10 9.05469L10 16 9.53516 16C8.86328 16 8.24219 16.332 7.87109 16.8906L4.42578 22.0586C3.04688 22.3281 2 23.543 2 25 2 26.3008 2.83984 27.4023 4 27.8164L4 60 1 60C0.445313 60 0 60.4492 0 61 0 61.5508 0.445313 62 1 62L61 62C61.5547 62 62 61.5508 62 61 62 60.4492 61.5547 60 61 60L58 60 58 27.8164C59.1602 27.4023 60 26.3008 60 25 60 23.543 58.9531 22.3281 57.5742 22.0586L54.1289 16.8906C53.7578 16.332 53.1367 16 52.4648 16L42 16 42 11C42 9.34766 40.6523 8 39 8ZM23 10 39 10C39.5508 10 40 10.4492 40 11L40 27C40 27.5508 39.5508 28 39 28L23 28C22.4492 28 22 27.5508 22 27L22 11C22 10.4492 22.4492 10 23 10ZM30 12C28.8984 12 28 12.8984 28 14L28 16 26 16C24.8984 16 24 16.8984 24 18L24 20C24 21.1016 24.8984 22 26 22L28 22 28 24C28 25.1016 28.8984 26 30 26L32 26C33.1016 26 34 25.1016 34 24L34 22 36 22C37.1016 22 38 21.1016 38 20L38 18C38 16.8984 37.1016 16 36 16L34 16 34 14C34 12.8984 33.1016 12 32 12ZM30 14 32 14 32 16C32 17.1016 32.8984 18 34 18L36 18 36 20 34 20C32.8984 20 32 20.8984 32 22L32 24 30 24 30 22C30 20.8984 29.1016 20 28 20L26 20 26 18 28 18C29.1016 18 30 17.1016 30 16ZM9.53516 18 10 18 10 19.0586C10 19.6094 10.4453 20.0586 11 20.0586 11.5547 20.0586 12 19.6094 12 19.0586L12 18 14 18 14 19.0586C14 19.6094 14.4453 20.0586 15 20.0586 15.5547 20.0586 16 19.6094 16 19.0586L16 18 20 18 20 22 6.86719 22ZM42 18 52.4648 18 55.1328 22 42 22ZM5 24 20 24 20 26 5 26C4.44922 26 4 25.5508 4 25 4 24.4492 4.44922 24 5 24ZM42 24 57 24C57.5508 24 58 24.4492 58 25 58 25.5508 57.5508 26 57 26L42 26ZM6 28 20.1836 28C20.5977 29.1602 21.6992 30 23 30L39 30C40.3008 30 41.4023 29.1602 41.8164 28L56 28 56 60 38 60 38 49.9492C38 48.8477 37.1016 47.9492 36 47.9492L26 47.9492C24.8984 47.9492 24 48.8477 24 49.9492L24 60 6 60 6 46 46 46C46.5547 46 47 45.5508 47 45 47 44.4492 46.5547 44 46 44L6 44ZM11 34C10.4453 34 10 34.4492 10 35 10 35.5508 10.4453 36 11 36L13 36C13.5547 36 14 35.5508 14 35 14 34.4492 13.5547 34 13 34ZM17 34C16.4453 34 16 34.4492 16 35 16 35.5508 16.4453 36 17 36L19 36C19.5547 36 20 35.5508 20 35 20 34.4492 19.5547 34 19 34ZM27 34C26.4453 34 26 34.4492 26 35 26 35.5508 26.4453 36 27 36L29 36C29.5547 36 30 35.5508 30 35 30 34.4492 29.5547 34 29 34ZM33 34C32.4453 34 32 34.4492 32 35 32 35.5508 32.4453 36 33 36L35 36C35.5547 36 36 35.5508 36 35 36 34.4492 35.5547 34 35 34ZM43 34C42.4453 34 42 34.4492 42 35 42 35.5508 42.4453 36 43 36L45 36C45.5547 36 46 35.5508 46 35 46 34.4492 45.5547 34 45 34ZM49 34C48.4453 34 48 34.4492 48 35 48 35.5508 48.4453 36 49 36L51 36C51.5547 36 52 35.5508 52 35 52 34.4492 51.5547 34 51 34ZM11 38C10.4453 38 10 38.4492 10 39 10 39.5508 10.4453 40 11 40L13 40C13.5547 40 14 39.5508 14 39 14 38.4492 13.5547 38 13 38ZM17 38C16.4453 38 16 38.4492 16 39 16 39.5508 16.4453 40 17 40L19 40C19.5547 40 20 39.5508 20 39 20 38.4492 19.5547 38 19 38ZM27 38C26.4453 38 26 38.4492 26 39 26 39.5508 26.4453 40 27 40L29 40C29.5547 40 30 39.5508 30 39 30 38.4492 29.5547 38 29 38ZM33 38C32.4453 38 32 38.4492 32 39 32 39.5508 32.4453 40 33 40L35 40C35.5547 40 36 39.5508 36 39 36 38.4492 35.5547 38 35 38ZM43 38C42.4453 38 42 38.4492 42 39 42 39.5508 42.4453 40 43 40L45 40C45.5547 40 46 39.5508 46 39 46 38.4492 45.5547 38 45 38ZM49 38C48.4453 38 48 38.4492 48 39 48 39.5508 48.4453 40 49 40L51 40C51.5547 40 52 39.5508 52 39 52 38.4492 51.5547 38 51 38ZM49 44C48.4453 44 48 44.4492 48 45 48 45.5508 48.4453 46 49 46L53 46C53.5547 46 54 45.5508 54 45 54 44.4492 53.5547 44 53 44ZM26 49.9492 30 49.9492 30 59.9492 26 59.9492ZM32 49.9492 36 49.9492 36 59.9492 32 59.9492ZM11 50C10.4453 50 10 50.4492 10 51 10 51.5508 10.4453 52 11 52L13 52C13.5547 52 14 51.5508 14 51 14 50.4492 13.5547 50 13 50ZM17 50C16.4453 50 16 50.4492 16 51 16 51.5508 16.4453 52 17 52L19 52C19.5547 52 20 51.5508 20 51 20 50.4492 19.5547 50 19 50ZM43 50C42.4453 50 42 50.4492 42 51 42 51.5508 42.4453 52 43 52L45 52C45.5547 52 46 51.5508 46 51 46 50.4492 45.5547 50 45 50ZM49 50C48.4453 50 48 50.4492 48 51 48 51.5508 48.4453 52 49 52L51 52C51.5547 52 52 51.5508 52 51 52 50.4492 51.5547 50 51 50ZM11 54C10.4453 54 10 54.4492 10 55 10 55.5508 10.4453 56 11 56L13 56C13.5547 56 14 55.5508 14 55 14 54.4492 13.5547 54 13 54ZM17 54C16.4453 54 16 54.4492 16 55 16 55.5508 16.4453 56 17 56L19 56C19.5547 56 20 55.5508 20 55 20 54.4492 19.5547 54 19 54ZM43 54C42.4453 54 42 54.4492 42 55 42 55.5508 42.4453 56 43 56L45 56C45.5547 56 46 55.5508 46 55 46 54.4492 45.5547 54 45 54ZM49 54C48.4453 54 48 54.4492 48 55 48 55.5508 48.4453 56 49 56L51 56C51.5547 56 52 55.5508 52 55 52 54.4492 51.5547 54 51 54Z" fill="#FFFFFF"/></svg>