<svg width="232" height="22" viewBox="0 0 232 22" xmlns="http://www.w3.org/2000/svg" xmlns:xlink="http://www.w3.org/1999/xlink" fill="none" overflow="hidden"><defs><linearGradient x1="11.9969" y1="8.344" x2="105.955" y2="116.727" gradientUnits="userSpaceOnUse" id="paint0_linear_2322_3839"><stop offset="0" stop-color="#70DCFF"/><stop offset="1" stop-color="#2CB7E4"/></linearGradient><linearGradient x1="11.9969" y1="8.344" x2="105.955" y2="116.727" gradientUnits="userSpaceOnUse" id="paint1_linear_2322_3839"><stop offset="0" stop-color="#70DCFF"/><stop offset="1" stop-color="#2CB7E4"/></linearGradient><linearGradient x1="11.9969" y1="8.344" x2="105.955" y2="116.727" gradientUnits="userSpaceOnUse" id="paint2_linear_2322_3839"><stop offset="0" stop-color="#70DCFF"/><stop offset="1" stop-color="#2CB7E4"/></linearGradient><linearGradient x1="11.9969" y1="8.344" x2="105.955" y2="116.727" gradientUnits="userSpaceOnUse" id="paint3_linear_2322_3839"><stop offset="0" stop-color="#70DCFF"/><stop offset="1" stop-color="#2CB7E4"/></linearGradient><linearGradient x1="11.9969" y1="8.344" x2="105.955" y2="116.727" gradientUnits="userSpaceOnUse" id="paint4_linear_2322_3839"><stop offset="0" stop-color="#70DCFF"/><stop offset="1" stop-color="#2CB7E4"/></linearGradient><linearGradient x1="11.9969" y1="8.344" x2="105.955" y2="116.727" gradientUnits="userSpaceOnUse" id="paint5_linear_2322_3839"><stop offset="0" stop-color="#70DCFF"/><stop offset="1" stop-color="#2CB7E4"/></linearGradient><linearGradient x1="11.9969" y1="8.344" x2="105.955" y2="116.727" gradientUnits="userSpaceOnUse" id="paint6_linear_2322_3839"><stop offset="0" stop-color="#70DCFF"/><stop offset="1" stop-color="#2CB7E4"/></linearGradient><linearGradient x1="11.9969" y1="8.344" x2="105.955" y2="116.727" gradientUnits="userSpaceOnUse" id="paint7_linear_2322_3839"><stop offset="0" stop-color="#70DCFF"/><stop offset="1" stop-color="#2CB7E4"/></linearGradient><linearGradient x1="11.9969" y1="8.344" x2="105.955" y2="116.727" gradientUnits="userSpaceOnUse" id="paint8_linear_2322_3839"><stop offset="0" stop-color="#70DCFF"/><stop offset="1" stop-color="#2CB7E4"/></linearGradient><linearGradient x1="11.9969" y1="8.344" x2="105.955" y2="116.727" gradientUnits="userSpaceOnUse" id="paint9_linear_2322_3839"><stop offset="0" stop-color="#70DCFF"/><stop offset="1" stop-color="#2CB7E4"/></linearGradient><linearGradient x1="11.9969" y1="8.344" x2="105.955" y2="116.727" gradientUnits="userSpaceOnUse" id="paint10_linear_2322_3839"><stop offset="0" stop-color="#70DCFF"/><stop offset="1" stop-color="#2CB7E4"/></linearGradient><linearGradient x1="11.9969" y1="8.344" x2="105.955" y2="116.727" gradientUnits="userSpaceOnUse" id="paint11_linear_2322_3839"><stop offset="0" stop-color="#70DCFF"/><stop offset="1" stop-color="#2CB7E4"/></linearGradient></defs><path d="M224.293 0.875 219.244 0.875C219.11 0.875 219 0.980469 219 1.10938L219 1.95117C219 2.08008 219.11 2.18555 219.244 2.18555L220.972 2.18555 220.972 6.89062C220.972 7.01953 221.082 7.125 221.216 7.125L222.319 7.125C222.453 7.125 222.563 7.01953 222.563 6.89062L222.563 2.18555 224.291 2.18555C224.425 2.18555 224.535 2.08008 224.535 1.95117L224.535 1.10938C224.537 0.980469 224.427 0.875 224.293 0.875ZM232 6.87109 231.512 1.08984C231.502 0.96875 231.397 0.875 231.269 0.875L229.94 0.875C229.837 0.875 229.743 0.939453 229.711 1.0332L228.821 3.51562C228.675 3.91797 228.494 4.54688 228.494 4.54688L228.476 4.54688C228.476 4.54688 228.295 3.91797 228.149 3.51562L227.259 1.0332C227.224 0.939453 227.133 0.875 227.029 0.875L225.701 0.875C225.575 0.875 225.47 0.96875 225.457 1.08984L224.962 6.87109C224.95 7.00781 225.061 7.125 225.205 7.125L226.312 7.125C226.44 7.125 226.546 7.0293 226.556 6.90625L226.741 4.31055C226.778 3.83789 226.741 3.26172 226.741 3.26172L226.759 3.26172C226.759 3.26172 226.977 3.91797 227.123 4.31055L227.747 5.96484C227.781 6.05664 227.872 6.11914 227.976 6.11914L228.998 6.11914C229.101 6.11914 229.193 6.05664 229.227 5.96484L229.851 4.31055C229.997 3.91797 230.214 3.26172 230.214 3.26172L230.233 3.26172C230.233 3.26172 230.196 3.83789 230.233 4.31055L230.418 6.90625C230.426 7.0293 230.533 7.125 230.661 7.125L231.756 7.125C231.898 7.125 232.01 7.00781 232 6.87109Z" fill="#BECBD6"/><path d="M22.3391 21.376C20.5951 21.376 19.0191 21 17.6111 20.248 16.2191 19.496 15.1231 18.464 14.3231 17.152 13.5391 15.824 13.1471 14.336 13.1471 12.688 13.1471 11.04 13.5391 9.56 14.3231 8.248 15.1231 6.92 16.2191 5.88 17.6111 5.128 19.0191 4.376 20.5951 4 22.3391 4 24.0831 4 25.6511 4.376 27.0431 5.128 28.4351 5.88 29.5311 6.92 30.3311 8.248 31.1311 9.56 31.5311 11.04 31.5311 12.688 31.5311 14.336 31.1311 15.824 30.3311 17.152 29.5311 18.464 28.4351 19.496 27.0431 20.248 25.6511 21 24.0831 21.376 22.3391 21.376ZM22.3391 18.064C23.3311 18.064 24.2271 17.84 25.0271 17.392 25.8271 16.928 26.4511 16.288 26.8991 15.472 27.3631 14.656 27.5951 13.728 27.5951 12.688 27.5951 11.648 27.3631 10.72 26.8991 9.904 26.4511 9.088 25.8271 8.456 25.0271 8.008 24.2271 7.544 23.3311 7.312 22.3391 7.312 21.3471 7.312 20.4511 7.544 19.6511 8.008 18.8511 8.456 18.2191 9.088 17.7551 9.904 17.3071 10.72 17.0831 11.648 17.0831 12.688 17.0831 13.728 17.3071 14.656 17.7551 15.472 18.2191 16.288 18.8511 16.928 19.6511 17.392 20.4511 17.84 21.3471 18.064 22.3391 18.064Z" fill="url(#paint0_linear_2322_3839)" fill-rule="evenodd" clip-rule="evenodd"/><path d="M38.2931 10.888 46.6691 21.088 49.8611 21.088 49.8611 4.288 46.0211 4.288 46.0211 14.488 37.6691 4.288 34.4531 4.288 34.4531 21.088 38.2931 21.088 38.2931 10.888Z" fill="url(#paint1_linear_2322_3839)"/><path d="M62.1639 18.064C63.2839 18.064 64.2919 17.824 65.1879 17.344L65.1879 12.424 68.7399 12.424 68.7399 19.24C67.8279 19.928 66.7719 20.456 65.5719 20.824 64.3719 21.192 63.1639 21.376 61.9479 21.376 60.2039 21.376 58.6359 21.008 57.2439 20.272 55.8519 19.52 54.7559 18.488 53.9559 17.176 53.1719 15.848 52.7799 14.352 52.7799 12.688 52.7799 11.024 53.1719 9.536 53.9559 8.224 54.7559 6.896 55.8599 5.864 57.2679 5.128 58.6759 4.376 60.2599 4 62.0199 4 63.4919 4 64.8279 4.248 66.0279 4.744 67.2279 5.24 68.2359 5.96 69.0519 6.904L66.5559 9.208C65.3559 7.944 63.9079 7.312 62.2119 7.312 61.1399 7.312 60.1879 7.536 59.3559 7.984 58.5239 8.432 57.8759 9.064 57.4119 9.88 56.9479 10.696 56.7159 11.632 56.7159 12.688 56.7159 13.728 56.9479 14.656 57.4119 15.472 57.8759 16.288 58.5159 16.928 59.3319 17.392 60.1639 17.84 61.1079 18.064 62.1639 18.064Z" fill="url(#paint2_linear_2322_3839)"/><path d="M97.0961 21.088 104.368 4.28801 100.504 4.28801 95.3201 16.288 90.2081 4.28801 72.0081 4.28801 72.0081 7.85165 87.5455 7.85165 93.2561 21.088 97.0961 21.088Z" fill="url(#paint3_linear_2322_3839)"/><path d="M134.465 11.752 129.977 4.28801 111.75 4.28801 111.75 7.45601 117.126 7.45601 117.126 21.088 121.014 21.088 121.014 7.45601 127.757 7.45601 132.353 15.088 132.353 21.088 136.241 21.088 136.241 15.136 142.769 4.28801 138.953 4.28801 134.465 11.752Z" fill="url(#paint4_linear_2322_3839)"/><path d="M162.329 5.03201C161.241 4.53601 159.953 4.28801 158.465 4.28801L151.193 4.28801 151.193 21.088 155.081 21.088 155.081 16.456 158.465 16.456C159.953 16.456 161.241 16.216 162.329 15.736 163.433 15.24 164.281 14.536 164.873 13.624 165.465 12.696 165.761 11.616 165.761 10.384 165.761 9.13601 165.465 8.05601 164.873 7.14401 164.281 6.23201 163.433 5.52801 162.329 5.03201ZM160.913 12.544C160.305 13.04 159.417 13.288 158.249 13.288L155.081 13.288 155.081 7.45601 158.249 7.45601C159.417 7.45601 160.305 7.71201 160.913 8.22401 161.521 8.72001 161.825 9.44001 161.825 10.384 161.825 11.312 161.521 12.032 160.913 12.544Z" fill="url(#paint5_linear_2322_3839)" fill-rule="evenodd" clip-rule="evenodd"/><path d="M185.425 17.488 183.937 21.088 168.536 21.088 168.536 4.28801 172.424 4.28801 172.424 17.92 181.365 17.92 187.441 4.28801 191.281 4.28801 198.793 21.088 194.713 21.088 193.225 17.488 185.425 17.488ZM189.337 8.10401 192.001 14.536 186.673 14.536 189.337 8.10401Z" fill="url(#paint6_linear_2322_3839)" fill-rule="evenodd" clip-rule="evenodd"/><path d="M203.752 4.28801 212.104 14.488 212.104 4.28801 215.944 4.28801 215.944 21.088 212.752 21.088 204.376 10.888 204.376 21.088 200.536 21.088 200.536 4.28801 203.752 4.28801Z" fill="url(#paint7_linear_2322_3839)"/><path d="M87.3625 17.5244 89.0081 21.088 72.0081 21.088 72.0081 17.5244 87.3625 17.5244Z" fill="url(#paint8_linear_2322_3839)"/><path d="M86.0567 14.4698 84.3717 10.9062 72.0081 10.9062 72.0081 14.4698 86.0567 14.4698Z" fill="url(#paint9_linear_2322_3839)"/><path d="M0 4.288 3.888 4.288 3.888 17.92 12.312 17.92 12.312 21.088 0 21.088 0 4.288Z" fill="url(#paint10_linear_2322_3839)"/><path d="M105.771 4.28801 109.659 4.28801 109.659 21.088 105.771 21.088 105.771 4.28801Z" fill="url(#paint11_linear_2322_3839)"/></svg>