<svg width="72" height="72" viewBox="0 0 72 72" fill="none" xmlns="http://www.w3.org/2000/svg">
<path d="M0 16C0 7.16344 7.16344 0 16 0H56C64.8366 0 72 7.16344 72 16V56C72 64.8366 64.8366 72 56 72H16C7.16344 72 0 64.8366 0 56V16Z" fill="#302C3F"/>
<circle cx="35.9711" cy="35.9711" r="22.8383" transform="rotate(15 35.9711 35.9711)" fill="#717076"/>
<path d="M35.7415 19.1614L38.885 20.0037L36.7792 27.8625L33.6357 27.0202L35.7415 19.1614Z" fill="white"/>
<path d="M42.0283 20.8459L45.1719 21.6883L43.0661 29.5471L39.9226 28.7048L42.0283 20.8459Z" fill="white"/>
<path d="M29.424 42.738L32.5675 43.5803L30.4618 51.4392L27.3182 50.5969L29.424 42.738Z" fill="white"/>
<path d="M35.7109 44.4226L38.8544 45.2649L36.7486 53.1238L33.6051 52.2815L35.7109 44.4226Z" fill="white"/>
<path fill-rule="evenodd" clip-rule="evenodd" d="M46.7669 42.3311C44.0557 46.9469 38.508 49.3836 33.0861 47.9308C26.5756 46.1863 22.712 39.4943 24.4565 32.9838C26.2009 26.4733 32.8929 22.6097 39.4034 24.3542C44.8253 25.807 48.4114 30.6911 48.4516 36.0441L44.292 34.9295C43.8231 31.8289 41.5732 29.147 38.3505 28.2835C34.0102 27.1205 29.5489 29.6962 28.3859 34.0366C27.2229 38.3769 29.7987 42.8382 34.139 44.0012C37.3616 44.8647 40.6508 43.6671 42.6073 41.2166L46.7669 42.3311Z" fill="white"/>
</svg>
