<svg width="73" height="72" viewBox="0 0 73 72" fill="none" xmlns="http://www.w3.org/2000/svg">
<path d="M0.5 16C0.5 7.16344 7.66344 0 16.5 0H56.5C65.3366 0 72.5 7.16344 72.5 16V56C72.5 64.8366 65.3366 72 56.5 72H16.5C7.66344 72 0.5 64.8366 0.5 56V16Z" fill="#302C3F"/>
<path d="M52.9474 30.3684H20.1053C17.8371 30.3684 16 32.2055 16 34.4737V50.8948C16 53.1629 17.8371 55 20.1053 55H52.9474C55.2156 55 57.0527 53.1629 57.0527 50.8948V34.4737C57.0527 32.2055 55.2156 30.3684 52.9474 30.3684Z" fill="#83808C"/>
<path d="M36.5264 50.8947C40.4941 50.8947 43.7106 47.2187 43.7106 42.6842C43.7106 38.1496 40.4941 34.4736 36.5264 34.4736C32.5586 34.4736 29.3421 38.1496 29.3421 42.6842C29.3421 47.2187 32.5586 50.8947 36.5264 50.8947Z" fill="white"/>
<path d="M50.8948 44.7369C52.0284 44.7369 52.9474 43.8179 52.9474 42.6842C52.9474 41.5506 52.0284 40.6316 50.8948 40.6316C49.7612 40.6316 48.8422 41.5506 48.8422 42.6842C48.8422 43.8179 49.7612 44.7369 50.8948 44.7369Z" fill="white"/>
<path d="M22.1579 44.7369C23.2916 44.7369 24.2106 43.8179 24.2106 42.6842C24.2106 41.5506 23.2916 40.6316 22.1579 40.6316C21.0243 40.6316 20.1053 41.5506 20.1053 42.6842C20.1053 43.8179 21.0243 44.7369 22.1579 44.7369Z" fill="white"/>
<path d="M36.5264 24.2105C38.7936 24.2105 40.6316 22.3726 40.6316 20.1053C40.6316 17.838 38.7936 16 36.5264 16C34.2591 16 32.4211 17.838 32.4211 20.1053C32.4211 22.3726 34.2591 24.2105 36.5264 24.2105Z" fill="#83808C"/>
<path d="M47.8159 24.2104C49.5163 24.2104 50.8948 22.8319 50.8948 21.1314C50.8948 19.431 49.5163 18.0525 47.8159 18.0525C46.1154 18.0525 44.7369 19.431 44.7369 21.1314C44.7369 22.8319 46.1154 24.2104 47.8159 24.2104Z" fill="#83808C"/>
<path d="M25.2369 24.2104C26.9373 24.2104 28.3158 22.8319 28.3158 21.1314C28.3158 19.431 26.9373 18.0525 25.2369 18.0525C23.5364 18.0525 22.1579 19.431 22.1579 21.1314C22.1579 22.8319 23.5364 24.2104 25.2369 24.2104Z" fill="#83808C"/>
<path d="M48.8422 26.2632H24.2106C21.9424 26.2632 20.1053 28.1003 20.1053 30.3685H52.9475C52.9475 28.1003 51.1103 26.2632 48.8422 26.2632Z" fill="white"/>
</svg>
