<svg width="72" height="72" viewBox="0 0 72 72" fill="none" xmlns="http://www.w3.org/2000/svg">
<rect width="72" height="72" rx="16" fill="#302C3F"/>
<path d="M38.4 46.8666C38.4 45.3133 39.0367 43.9699 40.0783 43.0666C40.2833 39.1833 43.0317 36.0866 46.7333 35.3633V20.2H23.4V50.2H38.4V46.8666Z" fill="#83808C"/>
<path d="M23.3333 28.3333H46.6667V31.6666H23.3333V28.3333ZM53.3333 44.9999V43.3333C53.3333 40.4999 51.1667 38.3333 48.3333 38.3333C45.5 38.3333 43.3333 40.4999 43.3333 43.3333V44.9999C42.3333 44.9999 41.6667 45.6666 41.6667 46.6666V53.3332C41.6667 54.3332 42.3333 54.9999 43.3333 54.9999H53.3333C54.3333 54.9999 55 54.3332 55 53.3332V46.6666C55 45.6666 54.3333 44.9999 53.3333 44.9999ZM50.8333 44.9999H45.8333V43.3333C45.8333 41.9999 47 40.8333 48.3333 40.8333C49.6667 40.8333 50.8333 41.9999 50.8333 43.3333V44.9999Z" fill="white"/>
<path d="M38.3333 48.3332H25V41.6666H40.19C40.4333 40.4299 40.9217 39.2966 41.635 38.3332H25V21.6666H45V35.6866C46.0183 35.2516 47.1383 34.9999 48.3333 34.9999V21.6666C48.3333 19.8249 46.8417 18.3333 45 18.3333H25C23.1583 18.3333 21.6667 19.8249 21.6667 21.6666V48.3332C21.6667 50.1749 23.1583 51.6666 25 51.6666H38.3333V48.3332Z" fill="white"/>
</svg>
