<svg width="134" height="134" viewBox="0 0 134 134" fill="none" xmlns="http://www.w3.org/2000/svg">
<path d="M0 16C0 7.16345 7.16344 0 16 0H118C126.837 0 134 7.16344 134 16V118C134 126.837 126.837 134 118 134H16C7.16345 134 0 126.837 0 118V16Z" fill="#302C3F"/>
<path d="M44.2667 23.0334C40.9148 23.0334 38.2 25.7483 38.2 29.1001V101.9C38.2 105.252 40.9148 107.967 44.2667 107.967H86.7333C90.0852 107.967 92.8 105.252 92.8 101.9V29.1001C92.8 25.7483 90.0852 23.0334 86.7333 23.0334H44.2667ZM60.95 26.0668H67.0167C67.8539 26.0668 68.5333 26.7462 68.5333 27.5834C68.5333 28.4206 67.8539 29.1001 67.0167 29.1001H60.95C60.1128 29.1001 59.4333 28.4206 59.4333 27.5834C59.4333 26.7462 60.1128 26.0668 60.95 26.0668ZM73.0833 26.0668C73.9205 26.0668 74.6 26.7462 74.6 27.5834C74.6 28.4206 73.9205 29.1001 73.0833 29.1001C72.2461 29.1001 71.5667 28.4206 71.5667 27.5834C71.5667 26.7462 72.2461 26.0668 73.0833 26.0668ZM44.2667 29.1001H53.3667L54.6227 30.3561C55.7602 31.4936 57.3043 32.1334 58.912 32.1334H72.088C73.6957 32.1334 75.2399 31.4936 76.3774 30.3561L77.6333 29.1001H86.7333V101.9H44.2667V29.1001ZM62.4667 50.3334V60.251L53.8821 55.2922L50.8488 60.5413L59.4393 65.5001L50.8488 70.4589L53.8821 75.708L62.4667 70.7492V80.6668H68.5333V70.7492L77.1179 75.708L80.1513 70.4589L71.5608 65.5001L80.1513 60.5413L77.1179 55.2922L68.5333 60.251V50.3334H62.4667Z" fill="white"/>
</svg>
