<svg width="105" height="105" viewBox="0 0 105 105" fill="none" xmlns="http://www.w3.org/2000/svg">
<path d="M0 16C0 7.16344 7.16345 0 16 0H89C97.8366 0 105 7.16345 105 16V89C105 97.8366 97.8366 105 89 105H16C7.16344 105 0 97.8366 0 89V16Z" fill="#302C3F"/>
<path d="M81.0625 71.25C81.0094 71.25 80.4469 71.25 79.5 71.25V43.125H80.1594C83.2469 43.125 85.75 40.6219 85.75 37.5344C85.75 35.2469 84.3594 33.1938 82.2344 32.3438L58.6406 22.9062C55.9812 21.8437 53.0125 21.8437 50.3531 22.9062L26.7594 32.3438C24.6406 33.1938 23.25 35.25 23.25 37.5344C23.25 40.6219 25.7531 43.125 28.8406 43.125H29.5V71.25C28.5531 71.25 27.9906 71.25 27.9375 71.25C25.35 71.25 23.25 73.35 23.25 75.9375C23.25 78.525 25.35 80.625 27.9375 80.625C28.4875 80.625 80.5125 80.625 81.0625 80.625C83.65 80.625 85.75 78.525 85.75 75.9375C85.75 73.35 83.65 71.25 81.0625 71.25Z" fill="white"/>
<path d="M81.0625 71.2499C81.6125 71.2499 82.1344 71.3624 82.625 71.5374V42.5281C81.8781 42.8968 81.05 43.125 80.1594 43.125H73.25V71.2499C77.8469 71.2499 80.9313 71.2499 81.0625 71.2499Z" fill="#717076"/>
<path d="M67 71.25V43.125H57.625V71.25C60.8813 71.25 64.0687 71.25 67 71.25Z" fill="#717076"/>
<path d="M27.9375 71.2499C28.0687 71.2499 31.1531 71.2499 35.75 71.2499V43.125H28.8406C27.95 43.125 27.1219 42.8968 26.375 42.5281V71.5374C26.8656 71.3624 27.3875 71.2499 27.9375 71.2499Z" fill="#717076"/>
<path d="M51.375 71.25V43.125H42V71.25C44.9313 71.25 48.1187 71.25 51.375 71.25Z" fill="#717076"/>
<path d="M54.5 36.875C56.2259 36.875 57.625 35.4759 57.625 33.75C57.625 32.0241 56.2259 30.625 54.5 30.625C52.7741 30.625 51.375 32.0241 51.375 33.75C51.375 35.4759 52.7741 36.875 54.5 36.875Z" fill="#717076"/>
</svg>
