<svg width="134" height="134" viewBox="0 0 134 134" fill="none" xmlns="http://www.w3.org/2000/svg">
<path d="M0 16C0 7.16345 7.16344 0 16 0H118C126.837 0 134 7.16344 134 16V118C134 126.837 126.837 134 118 134H16C7.16345 134 0 126.837 0 118V16Z" fill="#302C3F"/>
<path d="M108 27L106.309 27.0497C105.824 27.056 94.4196 27.2985 83.3265 32.8202C79.3158 34.8224 75.7715 37.3905 72.7806 40.3814C63.6773 49.4847 45.8251 72.1497 45.0727 73.1135L44.8737 73.3125L44.7742 73.611C44.5193 74.4442 44.1773 77.6838 50.7436 84.2564C55.7679 89.2806 58.8831 90.3253 60.5931 90.3253C60.9786 90.3253 61.2336 90.2755 61.389 90.2258L61.6875 90.1263L61.9362 89.9273C62.9062 89.1625 85.7765 71.0615 94.6186 62.2194C97.5971 59.2347 100.134 55.6842 102.13 51.6735C107.627 40.599 107.938 29.1763 107.95 28.6913L108 27ZM84.0727 44.5599C87.5922 44.5599 90.44 47.4078 90.44 50.9273C90.44 54.4467 87.5922 57.2946 84.0727 57.2946C80.5533 57.2946 77.7054 54.4467 77.7054 50.9273C77.7054 47.4078 80.5533 44.5599 84.0727 44.5599ZM44.2768 57.2946C43.8042 57.2946 43.3378 57.4812 43.0332 57.8418L35.074 67.3929C34.7258 67.8157 34.6574 68.4126 34.8253 68.9349C34.9931 69.4573 35.3849 69.849 35.9196 69.9796L42.1875 71.5714L42.3865 71.3724L42.5357 71.1237C42.9212 70.6325 47.7838 64.4517 53.6786 57.2946H44.2768ZM42.6849 78.9337L41.3418 81.1722C40.4402 82.764 41.9263 85.4876 45.7194 89.2806C48.816 92.3772 51.1291 93.9069 52.7832 93.9069C53.2806 93.9069 53.604 93.7887 53.8278 93.6582L56.0663 92.315C53.7781 91.1896 51.2784 89.2682 48.5051 86.4949C45.5266 83.5102 43.7172 81.023 42.6849 78.9337ZM77.7054 81.2717C70.567 87.1602 64.3737 92.0725 63.8763 92.4643L63.6773 92.6135L63.4286 92.8125L65.0204 99.0804C65.151 99.6151 65.5427 100.007 66.0651 100.175C66.2267 100.224 66.3946 100.274 66.5625 100.274C66.9294 100.274 67.2651 100.169 67.5574 99.926L77.1084 91.9668C77.4691 91.6621 77.7054 91.1958 77.7054 90.7232V81.2717ZM40.148 86.2959C37.5488 88.2919 35.1983 88.5469 33.0842 90.6237C32.0271 91.6621 31.1877 93.1358 30.6964 95.1505C30.2052 97.1652 30 99.7643 30 103.408V105H31.5918C38.9043 105 42.4798 103.843 44.625 101.667C46.7702 99.4908 47.1247 97.0657 48.7538 94.852L46.1671 92.9617C44.1027 95.7723 43.6425 98.1041 42.3367 99.4286C41.1864 100.598 38.6245 101.456 33.3329 101.667C33.4137 99.354 33.5257 97.1341 33.8304 95.8967C34.2283 94.2862 34.7133 93.5089 35.3227 92.912C36.5352 91.7181 38.9106 91.1834 42.0383 88.7832L40.148 86.2959Z" fill="white"/>
</svg>
