<svg width="1160" height="1160" viewBox="0 0 1160 1160" fill="none" xmlns="http://www.w3.org/2000/svg">
<rect width="1160" height="1160" fill="black"/>
<path d="M276.306 576.6C303.877 576.6 329.197 583.071 352.266 596.012C375.335 608.953 393.622 626.818 407.126 649.606C420.63 672.113 427.382 697.151 427.382 724.722C427.382 752.293 420.63 777.331 407.126 799.838C393.622 822.063 375.335 839.647 352.266 852.588C329.197 865.529 303.877 872 276.306 872H172.072V576.6H276.306ZM276.306 843.304C298.531 843.304 318.787 838.099 337.074 827.69C355.642 817.281 370.271 803.073 380.962 785.068C391.653 767.063 396.998 746.947 396.998 724.722C396.998 702.497 391.653 682.241 380.962 663.954C370.271 645.667 355.642 631.319 337.074 620.91C318.787 610.219 298.531 604.874 276.306 604.874H202.456V843.304H276.306ZM688.508 872H656.436L629.428 800.682H491.434L464.426 872H431.51L543.762 576.6H576.256L688.508 872ZM560.22 618.8L502.406 771.986H618.456L560.22 618.8ZM855.728 877.486C828.158 877.486 802.697 870.593 779.346 856.808C755.996 843.023 737.428 824.455 723.642 801.104C710.138 777.753 703.386 752.293 703.386 724.722C703.386 697.151 710.138 671.691 723.642 648.34C737.428 624.989 755.996 606.562 779.346 593.058C802.697 579.273 828.158 572.38 855.728 572.38C883.299 572.38 908.76 579.273 932.11 593.058C955.461 606.562 973.888 624.989 987.393 648.34C1001.18 671.691 1008.07 697.151 1008.07 724.722C1008.07 752.293 1001.18 777.753 987.393 801.104C973.888 824.455 955.461 843.023 932.11 856.808C908.76 870.593 883.299 877.486 855.728 877.486ZM855.728 847.102C877.954 847.102 898.35 841.616 916.918 830.644C935.768 819.672 950.678 804.902 961.65 786.334C972.622 767.485 978.109 746.947 978.109 724.722C978.109 702.497 972.622 682.1 961.65 663.532C950.678 644.964 935.768 630.194 916.918 619.222C898.35 608.25 877.954 602.764 855.728 602.764C833.503 602.764 813.106 608.25 794.538 619.222C775.97 630.194 761.2 644.964 750.228 663.532C739.256 682.1 733.77 702.497 733.77 724.722C733.77 746.947 739.256 767.485 750.228 786.334C761.2 804.902 775.97 819.672 794.538 830.644C813.106 841.616 833.503 847.102 855.728 847.102Z" fill="white"/>
<path d="M352.266 596.012L351.777 596.884L351.777 596.884L352.266 596.012ZM407.126 649.606L406.266 650.116L406.269 650.12L407.126 649.606ZM407.126 799.838L407.981 800.357L407.983 800.352L407.126 799.838ZM352.266 852.588L351.777 851.716L351.777 851.716L352.266 852.588ZM172.072 872H171.072V873H172.072V872ZM172.072 576.6V575.6H171.072V576.6H172.072ZM337.074 827.69L336.585 826.818L336.579 826.821L337.074 827.69ZM380.962 785.068L380.102 784.557L380.102 784.557L380.962 785.068ZM337.074 620.91L336.569 621.773L336.577 621.778L336.585 621.782L337.074 620.91ZM202.456 604.874V603.874H201.456V604.874H202.456ZM202.456 843.304H201.456V844.304H202.456V843.304ZM276.306 577.6C303.713 577.6 328.863 584.03 351.777 596.884L352.755 595.14C329.53 582.111 304.04 575.6 276.306 575.6V577.6ZM351.777 596.884C374.692 609.739 392.851 627.479 406.266 650.116L407.986 649.096C394.393 626.157 375.978 608.167 352.755 595.14L351.777 596.884ZM406.269 650.12C419.674 672.464 426.382 697.323 426.382 724.722H428.382C428.382 696.98 421.586 671.762 407.983 649.091L406.269 650.12ZM426.382 724.722C426.382 752.121 419.674 776.98 406.269 799.324L407.983 800.352C421.586 777.682 428.382 752.464 428.382 724.722H426.382ZM406.271 799.319C392.858 821.394 374.699 838.857 351.777 851.716L352.755 853.46C375.972 840.436 394.386 822.732 407.981 800.357L406.271 799.319ZM351.777 851.716C328.863 864.57 303.713 871 276.306 871V873C304.04 873 329.53 866.489 352.755 853.46L351.777 851.716ZM276.306 871H172.072V873H276.306V871ZM173.072 872V576.6H171.072V872H173.072ZM172.072 577.6H276.306V575.6H172.072V577.6ZM276.306 844.304C298.695 844.304 319.123 839.059 337.569 828.559L336.579 826.821C318.452 837.14 298.368 842.304 276.306 842.304V844.304ZM337.563 828.562C356.282 818.069 371.04 803.738 381.822 785.579L380.102 784.557C369.503 802.409 355.002 816.493 336.585 826.818L337.563 828.562ZM381.822 785.579C392.61 767.409 397.998 747.116 397.998 724.722H395.998C395.998 746.779 390.695 766.716 380.102 784.557L381.822 785.579ZM397.998 724.722C397.998 702.328 392.61 681.897 381.825 663.449L380.099 664.459C390.695 682.585 395.998 702.665 395.998 724.722H397.998ZM381.825 663.449C371.044 645.008 356.285 630.534 337.563 620.038L336.585 621.782C354.999 632.105 369.498 646.326 380.099 664.459L381.825 663.449ZM337.579 620.047C319.131 609.262 298.7 603.874 276.306 603.874V605.874C298.363 605.874 318.443 611.177 336.569 621.773L337.579 620.047ZM276.306 603.874H202.456V605.874H276.306V603.874ZM201.456 604.874V843.304H203.456V604.874H201.456ZM202.456 844.304H276.306V842.304H202.456V844.304ZM688.508 872V873H689.957L689.442 871.645L688.508 872ZM656.436 872L655.501 872.354L655.745 873H656.436V872ZM629.428 800.682L630.363 800.328L630.118 799.682H629.428V800.682ZM491.434 800.682V799.682H490.743L490.499 800.328L491.434 800.682ZM464.426 872V873H465.116L465.361 872.354L464.426 872ZM431.51 872L430.575 871.645L430.06 873H431.51V872ZM543.762 576.6V575.6H543.072L542.827 576.245L543.762 576.6ZM576.256 576.6L577.19 576.245L576.945 575.6H576.256V576.6ZM560.22 618.8L561.154 618.445L560.216 615.977L559.284 618.447L560.22 618.8ZM502.406 771.986L501.47 771.633L500.959 772.986H502.406V771.986ZM618.456 771.986V772.986H619.906L619.39 771.631L618.456 771.986ZM688.508 871H656.436V873H688.508V871ZM657.371 871.646L630.363 800.328L628.493 801.036L655.501 872.354L657.371 871.646ZM629.428 799.682H491.434V801.682H629.428V799.682ZM490.499 800.328L463.491 871.646L465.361 872.354L492.369 801.036L490.499 800.328ZM464.426 871H431.51V873H464.426V871ZM432.444 872.355L544.696 576.955L542.827 576.245L430.575 871.645L432.444 872.355ZM543.762 577.6H576.256V575.6H543.762V577.6ZM575.321 576.955L687.573 872.355L689.442 871.645L577.19 576.245L575.321 576.955ZM559.284 618.447L501.47 771.633L503.341 772.339L561.155 619.153L559.284 618.447ZM502.406 772.986H618.456V770.986H502.406V772.986ZM619.39 771.631L561.154 618.445L559.285 619.155L617.521 772.341L619.39 771.631ZM779.346 856.808L778.838 857.669L778.838 857.669L779.346 856.808ZM723.642 801.104L722.777 801.605L722.781 801.612L723.642 801.104ZM723.642 648.34L722.781 647.832L722.777 647.839L723.642 648.34ZM779.346 593.058L779.847 593.924L779.855 593.919L779.346 593.058ZM932.11 593.058L931.602 593.919L931.61 593.924L932.11 593.058ZM987.393 648.34L986.527 648.841L986.531 648.848L987.393 648.34ZM987.393 801.104L986.531 800.596L986.527 800.603L987.393 801.104ZM932.11 856.808L931.602 855.947L931.602 855.947L932.11 856.808ZM916.918 830.644L916.415 829.78L916.41 829.783L916.918 830.644ZM961.65 786.334L962.511 786.843L962.515 786.837L961.65 786.334ZM961.65 663.532L960.79 664.041L960.79 664.041L961.65 663.532ZM916.918 619.222L916.41 620.083L916.415 620.086L916.918 619.222ZM794.538 619.222L794.03 618.361L794.03 618.361L794.538 619.222ZM750.228 663.532L749.368 663.023L749.368 663.023L750.228 663.532ZM750.228 786.334L749.364 786.837L749.368 786.843L750.228 786.334ZM794.538 830.644L794.03 831.505L794.03 831.505L794.538 830.644ZM855.728 876.486C828.334 876.486 803.049 869.64 779.855 855.947L778.838 857.669C802.345 871.547 827.982 878.486 855.728 878.486V876.486ZM779.855 855.947C756.65 842.247 738.203 823.801 724.504 800.596L722.781 801.612C736.653 825.109 755.342 843.798 778.838 857.669L779.855 855.947ZM724.508 800.603C711.094 777.408 704.386 752.121 704.386 724.722H702.386C702.386 752.464 709.183 778.098 722.777 801.605L724.508 800.603ZM704.386 724.722C704.386 697.323 711.094 672.036 724.508 648.841L722.777 647.839C709.183 671.346 702.386 696.98 702.386 724.722H704.386ZM724.504 648.848C738.202 625.645 756.646 607.341 779.847 593.924L778.846 592.192C755.345 605.783 736.654 624.334 722.781 647.832L724.504 648.848ZM779.855 593.919C803.049 580.226 828.334 573.38 855.728 573.38V571.38C827.982 571.38 802.345 578.319 778.838 592.197L779.855 593.919ZM855.728 573.38C883.123 573.38 908.408 580.226 931.602 593.919L932.619 592.197C909.112 578.319 883.475 571.38 855.728 571.38V573.38ZM931.61 593.924C954.809 607.34 973.11 625.641 986.527 648.841L988.258 647.839C974.667 624.337 956.113 605.784 932.611 592.192L931.61 593.924ZM986.531 648.848C1000.22 672.042 1007.07 697.327 1007.07 724.722H1009.07C1009.07 696.976 1002.13 671.339 988.254 647.832L986.531 648.848ZM1007.07 724.722C1007.07 752.117 1000.22 777.402 986.531 800.596L988.254 801.612C1002.13 778.105 1009.07 752.468 1009.07 724.722H1007.07ZM986.527 800.603C973.109 823.804 954.805 842.248 931.602 855.947L932.619 857.669C956.117 843.797 974.668 825.105 988.258 801.605L986.527 800.603ZM931.602 855.947C908.408 869.64 883.123 876.486 855.728 876.486V878.486C883.475 878.486 909.112 871.547 932.619 857.669L931.602 855.947ZM855.728 848.102C878.127 848.102 898.7 842.571 917.427 831.505L916.41 829.783C898.001 840.661 877.781 846.102 855.728 846.102V848.102ZM917.422 831.508C936.417 820.451 951.451 805.56 962.511 786.843L960.79 785.825C949.906 804.244 935.119 818.893 916.415 829.78L917.422 831.508ZM962.515 786.837C973.577 767.832 979.109 747.121 979.109 724.722H977.109C977.109 746.774 971.668 767.137 960.786 785.831L962.515 786.837ZM979.109 724.722C979.109 702.323 973.577 681.75 962.511 663.023L960.79 664.041C971.668 682.45 977.109 702.67 977.109 724.722H979.109ZM962.511 663.023C951.451 644.306 936.417 629.415 917.422 618.358L916.415 620.086C935.119 630.973 949.906 645.622 960.79 664.041L962.511 663.023ZM917.427 618.361C898.7 607.295 878.127 601.764 855.728 601.764V603.764C877.781 603.764 898.001 609.205 916.41 620.083L917.427 618.361ZM855.728 601.764C833.33 601.764 812.757 607.295 794.03 618.361L795.047 620.083C813.456 609.205 833.676 603.764 855.728 603.764V601.764ZM794.03 618.361C775.317 629.419 760.425 644.31 749.368 663.023L751.089 664.041C761.976 645.618 776.624 630.969 795.047 620.083L794.03 618.361ZM749.368 663.023C738.302 681.75 732.77 702.323 732.77 724.722H734.77C734.77 702.67 740.211 682.45 751.089 664.041L749.368 663.023ZM732.77 724.722C732.77 747.121 738.302 767.832 749.364 786.837L751.093 785.831C740.211 767.137 734.77 746.774 734.77 724.722H732.77ZM749.368 786.843C760.425 805.556 775.317 820.447 794.03 831.505L795.047 829.783C776.624 818.897 761.976 804.248 751.089 785.825L749.368 786.843ZM794.03 831.505C812.757 842.571 833.33 848.102 855.728 848.102V846.102C833.676 846.102 813.456 840.661 795.047 829.783L794.03 831.505Z" fill="white"/>
<path d="M166.22 413.716C166.22 393.071 171.276 374.005 181.388 356.52C191.711 339.035 205.615 325.236 223.1 315.124C240.585 304.801 259.651 299.64 280.296 299.64C301.363 299.64 320.744 305.012 338.44 315.756C356.136 326.289 369.935 340.404 379.836 358.1L359.928 368.844C351.923 354.729 340.863 343.459 326.748 335.032C312.633 326.605 297.149 322.392 280.296 322.392C263.653 322.392 248.38 326.5 234.476 334.716C220.572 342.932 209.512 353.992 201.296 367.896C193.08 381.8 188.972 397.073 188.972 413.716C188.972 430.359 193.08 445.737 201.296 459.852C209.512 473.756 220.572 484.816 234.476 493.032C248.38 501.248 263.653 505.356 280.296 505.356C297.149 505.356 312.633 501.143 326.748 492.716C341.073 484.079 352.239 472.703 360.244 458.588L380.152 469.332C370.251 487.028 356.347 501.248 338.44 511.992C320.533 522.736 301.152 528.108 280.296 528.108C259.651 528.108 240.585 522.947 223.1 512.624C205.615 502.301 191.711 488.397 181.388 470.912C171.276 453.427 166.22 434.361 166.22 413.716ZM570.868 302.8H593.62V449.108C593.62 464.697 590.249 478.496 583.508 490.504C576.767 502.301 567.287 511.465 555.068 517.996C542.849 524.527 528.735 527.792 512.724 527.792C496.713 527.792 482.599 524.527 470.38 517.996C458.372 511.465 448.997 502.301 442.256 490.504C435.725 478.496 432.46 464.697 432.46 449.108V302.8H454.896V449.108C454.896 465.961 460.057 479.549 470.38 489.872C480.703 499.984 494.817 505.04 512.724 505.04C531.263 505.04 545.588 499.984 555.7 489.872C565.812 479.76 570.868 466.172 570.868 449.108V302.8ZM819.609 524H794.013L745.349 439.628H742.821H681.833V524H659.081V302.8H742.821C755.251 302.8 766.732 305.855 777.265 311.964C787.799 318.073 796.12 326.395 802.229 336.928C808.339 347.251 811.393 358.627 811.393 371.056C811.393 385.171 807.391 398.021 799.385 409.608C791.591 421.195 781.373 429.516 768.733 434.572L819.609 524ZM681.833 324.604V417.824H742.821C751.248 417.824 759.043 415.717 766.205 411.504C773.368 407.291 779.056 401.603 783.269 394.44C787.483 387.277 789.589 379.483 789.589 371.056C789.589 362.629 787.483 354.94 783.269 347.988C779.056 340.825 773.368 335.137 766.205 330.924C759.043 326.711 751.248 324.604 742.821 324.604H681.833ZM893.899 423.196V502.512H995.651V524H871.147V302.8H994.387V323.972H893.899V401.708H986.171V423.196H893.899Z" fill="white"/>
<path d="M181.388 356.52L174.499 352.453L174.481 352.484L174.463 352.515L181.388 356.52ZM223.1 315.124L227.105 322.049L227.136 322.031L227.167 322.013L223.1 315.124ZM338.44 315.756L334.288 322.594L334.318 322.612L334.348 322.63L338.44 315.756ZM379.836 358.1L383.635 365.14L390.784 361.282L386.817 354.194L379.836 358.1ZM359.928 368.844L352.969 372.791L356.834 379.605L363.727 375.884L359.928 368.844ZM326.748 335.032L330.849 328.163L330.849 328.163L326.748 335.032ZM234.476 334.716L230.406 327.829L230.406 327.829L234.476 334.716ZM201.296 367.896L194.409 363.826L194.409 363.826L201.296 367.896ZM201.296 459.852L194.382 463.877L194.395 463.899L194.409 463.922L201.296 459.852ZM234.476 493.032L230.406 499.919L230.406 499.919L234.476 493.032ZM326.748 492.716L330.849 499.585L330.864 499.576L330.879 499.567L326.748 492.716ZM360.244 458.588L364.043 451.548L357.15 447.827L353.285 454.641L360.244 458.588ZM380.152 469.332L387.133 473.238L391.1 466.15L383.951 462.292L380.152 469.332ZM338.44 511.992L342.556 518.852L342.556 518.852L338.44 511.992ZM223.1 512.624L219.033 519.513L219.033 519.513L223.1 512.624ZM181.388 470.912L174.463 474.917L174.481 474.948L174.499 474.979L181.388 470.912ZM174.22 413.716C174.22 394.444 178.921 376.765 188.313 360.525L174.463 352.515C163.631 371.246 158.22 391.697 158.22 413.716H174.22ZM188.277 360.587C197.904 344.28 210.817 331.469 227.105 322.049L219.095 308.199C200.412 319.003 185.517 333.789 174.499 352.453L188.277 360.587ZM227.167 322.013C243.399 312.43 261.056 307.64 280.296 307.64V291.64C258.245 291.64 237.772 297.172 219.033 308.235L227.167 322.013ZM280.296 307.64C299.926 307.64 317.867 312.624 334.288 322.594L342.592 308.918C323.621 297.4 302.8 291.64 280.296 291.64V307.64ZM334.348 322.63C350.857 332.457 363.65 345.556 372.855 362.006L386.817 354.194C376.219 335.252 361.415 320.122 342.532 308.882L334.348 322.63ZM376.037 351.06L356.129 361.804L363.727 375.884L383.635 365.14L376.037 351.06ZM366.887 364.897C358.189 349.561 346.137 337.29 330.849 328.163L322.647 341.901C335.589 349.627 345.657 359.898 352.969 372.791L366.887 364.897ZM330.849 328.163C315.462 318.977 298.555 314.392 280.296 314.392V330.392C295.744 330.392 309.805 334.234 322.647 341.901L330.849 328.163ZM280.296 314.392C262.267 314.392 245.582 318.861 230.406 327.829L238.546 341.603C251.178 334.139 265.039 330.392 280.296 330.392V314.392ZM230.406 327.829C215.34 336.731 203.311 348.76 194.409 363.826L208.183 371.966C215.713 359.224 225.804 349.133 238.546 341.603L230.406 327.829ZM194.409 363.826C185.441 379.002 180.972 395.687 180.972 413.716H196.972C196.972 398.459 200.719 384.598 208.183 371.966L194.409 363.826ZM180.972 413.716C180.972 431.744 185.441 448.516 194.382 463.877L208.21 455.827C200.719 442.959 196.972 428.973 196.972 413.716H180.972ZM194.409 463.922C203.311 478.988 215.34 491.017 230.406 499.919L238.546 486.145C225.804 478.615 215.713 468.524 208.183 455.782L194.409 463.922ZM230.406 499.919C245.582 508.887 262.267 513.356 280.296 513.356V497.356C265.039 497.356 251.178 493.609 238.546 486.145L230.406 499.919ZM280.296 513.356C298.555 513.356 315.462 508.771 330.849 499.585L322.647 485.847C309.805 493.514 295.744 497.356 280.296 497.356V513.356ZM330.879 499.567C346.343 490.243 358.498 477.882 367.203 462.535L353.285 454.641C345.979 467.523 335.804 477.914 322.617 485.865L330.879 499.567ZM356.445 465.628L376.353 476.372L383.951 462.292L364.043 451.548L356.445 465.628ZM373.171 465.426C363.971 481.867 351.072 495.084 334.324 505.132L342.556 518.852C361.622 507.412 376.53 492.189 387.133 473.238L373.171 465.426ZM334.324 505.132C317.659 515.131 299.7 520.108 280.296 520.108V536.108C302.604 536.108 323.408 530.341 342.556 518.852L334.324 505.132ZM280.296 520.108C261.056 520.108 243.399 515.318 227.167 505.735L219.033 519.513C237.772 530.576 258.245 536.108 280.296 536.108V520.108ZM227.167 505.735C210.846 496.099 197.913 483.166 188.277 466.845L174.499 474.979C185.509 493.628 200.384 508.503 219.033 519.513L227.167 505.735ZM188.313 466.907C178.921 450.667 174.22 432.988 174.22 413.716H158.22C158.22 435.735 163.631 456.186 174.463 474.917L188.313 466.907ZM570.868 302.8V294.8H562.868V302.8H570.868ZM593.62 302.8H601.62V294.8H593.62V302.8ZM583.508 490.504L590.454 494.473L590.469 494.447L590.484 494.42L583.508 490.504ZM555.068 517.996L558.839 525.051L558.839 525.051L555.068 517.996ZM470.38 517.996L466.558 525.024L466.583 525.038L466.609 525.051L470.38 517.996ZM442.256 490.504L435.228 494.326L435.268 494.4L435.31 494.473L442.256 490.504ZM432.46 302.8V294.8H424.46V302.8H432.46ZM454.896 302.8H462.896V294.8H454.896V302.8ZM470.38 489.872L464.723 495.529L464.752 495.558L464.782 495.587L470.38 489.872ZM570.868 310.8H593.62V294.8H570.868V310.8ZM585.62 302.8V449.108H601.62V302.8H585.62ZM585.62 449.108C585.62 463.51 582.517 475.927 576.532 486.588L590.484 494.42C597.981 481.065 601.62 465.885 601.62 449.108H585.62ZM576.562 486.535C570.583 496.998 562.215 505.105 551.297 510.941L558.839 525.051C572.358 517.826 582.95 507.604 590.454 494.473L576.562 486.535ZM551.297 510.941C540.407 516.761 527.625 519.792 512.724 519.792V535.792C529.844 535.792 545.291 532.293 558.839 525.051L551.297 510.941ZM512.724 519.792C497.823 519.792 485.04 516.761 474.151 510.941L466.609 525.051C480.157 532.293 495.604 535.792 512.724 535.792V519.792ZM474.202 510.968C463.491 505.143 455.201 497.034 449.202 486.535L435.31 494.473C442.793 507.568 453.253 517.788 466.558 525.024L474.202 510.968ZM449.284 486.682C443.476 476.003 440.46 463.552 440.46 449.108H424.46C424.46 465.843 427.975 480.989 435.228 494.326L449.284 486.682ZM440.46 449.108V302.8H424.46V449.108H440.46ZM432.46 310.8H454.896V294.8H432.46V310.8ZM446.896 302.8V449.108H462.896V302.8H446.896ZM446.896 449.108C446.896 467.728 452.666 483.472 464.723 495.529L476.037 484.215C467.448 475.626 462.896 464.195 462.896 449.108H446.896ZM464.782 495.587C476.939 507.496 493.253 513.04 512.724 513.04V497.04C496.382 497.04 484.466 492.472 475.978 484.157L464.782 495.587ZM512.724 513.04C532.728 513.04 549.337 507.549 561.357 495.529L550.043 484.215C541.839 492.419 529.797 497.04 512.724 497.04V513.04ZM561.357 495.529C573.254 483.632 578.868 467.854 578.868 449.108H562.868C562.868 464.49 558.37 475.888 550.043 484.215L561.357 495.529ZM578.868 449.108V302.8H562.868V449.108H578.868ZM819.609 524V532H833.365L826.563 520.044L819.609 524ZM794.013 524L787.083 527.997L789.392 532H794.013V524ZM745.349 439.628L752.279 435.631L749.97 431.628H745.349V439.628ZM681.833 439.628V431.628H673.833V439.628H681.833ZM681.833 524V532H689.833V524H681.833ZM659.081 524H651.081V532H659.081V524ZM659.081 302.8V294.8H651.081V302.8H659.081ZM777.265 311.964L773.252 318.884L773.252 318.884L777.265 311.964ZM802.229 336.928L795.309 340.942L795.327 340.972L795.345 341.003L802.229 336.928ZM799.385 409.608L792.803 405.061L792.775 405.101L792.747 405.143L799.385 409.608ZM768.733 434.572L765.762 427.144L757.242 430.552L761.78 438.528L768.733 434.572ZM681.833 324.604V316.604H673.833V324.604H681.833ZM681.833 417.824H673.833V425.824H681.833V417.824ZM766.205 411.504L770.261 418.399L770.261 418.399L766.205 411.504ZM783.269 347.988L776.374 352.044L776.4 352.089L776.428 352.134L783.269 347.988ZM766.205 330.924L762.149 337.819L762.149 337.819L766.205 330.924ZM819.609 516H794.013V532H819.609V516ZM800.943 520.003L752.279 435.631L738.419 443.625L787.083 527.997L800.943 520.003ZM745.349 431.628H742.821V447.628H745.349V431.628ZM742.821 431.628H681.833V447.628H742.821V431.628ZM673.833 439.628V524H689.833V439.628H673.833ZM681.833 516H659.081V532H681.833V516ZM667.081 524V302.8H651.081V524H667.081ZM659.081 310.8H742.821V294.8H659.081V310.8ZM742.821 310.8C753.872 310.8 763.964 313.497 773.252 318.884L781.279 305.044C769.5 298.212 756.63 294.8 742.821 294.8V310.8ZM773.252 318.884C782.579 324.294 789.899 331.614 795.309 340.942L809.15 332.914C802.341 321.175 793.018 311.852 781.279 305.044L773.252 318.884ZM795.345 341.003C800.697 350.046 803.393 360.006 803.393 371.056H819.393C819.393 357.247 815.981 344.456 809.114 332.853L795.345 341.003ZM803.393 371.056C803.393 383.55 799.883 394.814 792.803 405.061L805.967 414.155C814.898 401.229 819.393 386.791 819.393 371.056H803.393ZM792.747 405.143C785.825 415.432 776.87 422.701 765.762 427.144L771.704 442C785.877 436.331 797.356 426.957 806.023 414.073L792.747 405.143ZM761.78 438.528L812.656 527.956L826.563 520.044L775.687 430.616L761.78 438.528ZM673.833 324.604V417.824H689.833V324.604H673.833ZM681.833 425.824H742.821V409.824H681.833V425.824ZM742.821 425.824C752.653 425.824 761.851 423.347 770.261 418.399L762.149 404.609C756.234 408.088 749.843 409.824 742.821 409.824V425.824ZM770.261 418.399C778.597 413.496 785.262 406.831 790.165 398.496L776.374 390.384C772.85 396.374 768.139 401.085 762.149 404.609L770.261 418.399ZM790.165 398.496C795.112 390.086 797.589 380.888 797.589 371.056H781.589C781.589 378.077 779.853 384.469 776.374 390.384L790.165 398.496ZM797.589 371.056C797.589 361.223 795.111 352.091 790.111 343.842L776.428 352.134C779.855 357.789 781.589 364.035 781.589 371.056H797.589ZM790.165 343.932C785.262 335.597 778.597 328.932 770.261 324.029L762.149 337.819C768.139 341.343 772.85 346.054 776.374 352.044L790.165 343.932ZM770.261 324.029C761.851 319.081 752.653 316.604 742.821 316.604V332.604C749.843 332.604 756.234 334.34 762.149 337.819L770.261 324.029ZM742.821 316.604H681.833V332.604H742.821V316.604ZM893.899 423.196V415.196H885.899V423.196H893.899ZM893.899 502.512H885.899V510.512H893.899V502.512ZM995.651 502.512H1003.65V494.512H995.651V502.512ZM995.651 524V532H1003.65V524H995.651ZM871.147 524H863.147V532H871.147V524ZM871.147 302.8V294.8H863.147V302.8H871.147ZM994.387 302.8H1002.39V294.8H994.387V302.8ZM994.387 323.972V331.972H1002.39V323.972H994.387ZM893.899 323.972V315.972H885.899V323.972H893.899ZM893.899 401.708H885.899V409.708H893.899V401.708ZM986.171 401.708H994.171V393.708H986.171V401.708ZM986.171 423.196V431.196H994.171V423.196H986.171ZM885.899 423.196V502.512H901.899V423.196H885.899ZM893.899 510.512H995.651V494.512H893.899V510.512ZM987.651 502.512V524H1003.65V502.512H987.651ZM995.651 516H871.147V532H995.651V516ZM879.147 524V302.8H863.147V524H879.147ZM871.147 310.8H994.387V294.8H871.147V310.8ZM986.387 302.8V323.972H1002.39V302.8H986.387ZM994.387 315.972H893.899V331.972H994.387V315.972ZM885.899 323.972V401.708H901.899V323.972H885.899ZM893.899 409.708H986.171V393.708H893.899V409.708ZM978.171 401.708V423.196H994.171V401.708H978.171ZM986.171 415.196H893.899V431.196H986.171V415.196Z" fill="white"/>
</svg>
