<svg width="134" height="134" viewBox="0 0 134 134" fill="none" xmlns="http://www.w3.org/2000/svg">
<path d="M0 16C0 7.16345 7.16344 0 16 0H118C126.837 0 134 7.16344 134 16V118C134 126.837 126.837 134 118 134H16C7.16345 134 0 126.837 0 118V16Z" fill="#302C3F"/>
<path d="M72.1667 27.1667H64V35.3334H72.1667V27.1667Z" fill="white"/>
<path d="M59.9167 88.4167H51.75V96.5834H59.9167V88.4167Z" fill="white"/>
<path d="M55.8333 39.4167H43.5833V51.6667H55.8333V39.4167Z" fill="white"/>
<path d="M68.0833 51.6667H55.8333V63.9167H68.0833V51.6667Z" fill="white"/>
<path d="M55.8333 63.9167H43.5833V76.1667H55.8333V63.9167Z" fill="white"/>
<path d="M31.3333 39.4167H19.0833V51.6667H31.3333V39.4167Z" fill="white"/>
<path d="M43.5833 76.1667H31.3333V88.4167H43.5833V76.1667Z" fill="white"/>
<path d="M43.5833 51.6667H31.3333V63.9167H43.5833V51.6667Z" fill="white"/>
<path d="M84.4166 92.5C84.4166 96.5833 84.4166 100.667 84.4166 104.75C74.8902 104.75 65.3597 104.75 55.8333 104.75C55.8333 80.25 55.8333 55.75 55.8333 31.25C66.7236 32.6098 77.6097 33.9736 88.5 35.3333C92.5833 42.1403 96.6666 48.9431 100.75 55.75C103.474 59.8333 106.193 63.9167 108.917 68C106.193 70.7236 103.474 73.4431 100.75 76.1667C100.75 81.6098 100.75 87.0569 100.75 92.5C95.3069 92.5 89.8597 92.5 84.4166 92.5Z" fill="#717076"/>
<path d="M112.347 68.3513L104.625 56.2278C102.841 39.8782 88.9941 27.1667 72.1667 27.1667C72.1544 27.1667 71.6522 27.179 70.958 27.1872C69.5288 27.2117 68.2753 27.2239 67.2544 27.228C66.9604 27.7956 66.646 28.6408 66.8093 29.5882C66.9278 30.2823 67.2463 30.7192 67.4463 31.0541C67.9118 31.8462 68.3488 33.1447 68.0833 35.3334C69.0552 35.264 70.4721 35.215 72.1667 35.3334C75.0536 35.5376 82.7997 36.1174 89.1493 42.1485C95.0456 47.7508 96.2216 54.7864 96.5074 57.1221C96.5768 57.755 96.6463 58.3879 96.7157 59.0208L97.7365 60.6174L102.649 68.3227L101.661 68.7351L96.6667 70.838V88.4168H80.3333V100.667H59.9167V97.5553C59.9167 95.8688 59.9167 94.1865 59.9167 92.5001C59.9167 91.1403 59.9167 89.7765 59.9167 88.4168C58.5569 88.4168 57.1931 88.4168 55.8333 88.4168C54.4736 88.4168 53.1098 88.4168 51.75 88.4168C51.75 89.7765 51.75 91.1403 51.75 92.5001C51.75 94.1865 51.75 95.8688 51.75 97.5553V108.833H88.5V96.5834H96.6667C101.179 96.5834 104.833 92.9288 104.833 88.4168V76.2484L110.656 73.8066C112.775 72.896 113.592 70.299 112.347 68.3513Z" fill="white"/>
<path d="M68.0833 27.1667H55.8333V39.4167H68.0833V27.1667Z" fill="white"/>
<path d="M64 76.1667H51.75V88.4167H64V76.1667Z" fill="white"/>
</svg>
