<svg width="3279" height="1160" viewBox="0 0 3279 1160" fill="none" xmlns="http://www.w3.org/2000/svg">
<rect width="3279" height="1160" fill="white"/>
<path d="M1831.31 424.6C1858.88 424.6 1884.2 431.071 1907.27 444.012C1930.34 456.953 1948.62 474.818 1962.13 497.606C1975.63 520.113 1982.38 545.151 1982.38 572.722C1982.38 600.293 1975.63 625.331 1962.13 647.838C1948.62 670.063 1930.34 687.647 1907.27 700.588C1884.2 713.529 1858.88 720 1831.31 720H1727.07V424.6H1831.31ZM1831.31 691.304C1853.53 691.304 1873.79 686.099 1892.07 675.69C1910.64 665.281 1925.27 651.073 1935.96 633.068C1946.65 615.063 1952 594.947 1952 572.722C1952 550.497 1946.65 530.241 1935.96 511.954C1925.27 493.667 1910.64 479.319 1892.07 468.91C1873.79 458.219 1853.53 452.874 1831.31 452.874H1757.46V691.304H1831.31ZM2243.51 720H2211.44L2184.43 648.682H2046.43L2019.43 720H1986.51L2098.76 424.6H2131.26L2243.51 720ZM2115.22 466.8L2057.41 619.986H2173.46L2115.22 466.8ZM2410.73 725.486C2383.16 725.486 2357.7 718.593 2334.35 704.808C2311 691.023 2292.43 672.455 2278.64 649.104C2265.14 625.753 2258.39 600.293 2258.39 572.722C2258.39 545.151 2265.14 519.691 2278.64 496.34C2292.43 472.989 2311 454.562 2334.35 441.058C2357.7 427.273 2383.16 420.38 2410.73 420.38C2438.3 420.38 2463.76 427.273 2487.11 441.058C2510.46 454.562 2528.89 472.989 2542.39 496.34C2556.18 519.691 2563.07 545.151 2563.07 572.722C2563.07 600.293 2556.18 625.753 2542.39 649.104C2528.89 672.455 2510.46 691.023 2487.11 704.808C2463.76 718.593 2438.3 725.486 2410.73 725.486ZM2410.73 695.102C2432.95 695.102 2453.35 689.616 2471.92 678.644C2490.77 667.672 2505.68 652.902 2516.65 634.334C2527.62 615.485 2533.11 594.947 2533.11 572.722C2533.11 550.497 2527.62 530.1 2516.65 511.532C2505.68 492.964 2490.77 478.194 2471.92 467.222C2453.35 456.25 2432.95 450.764 2410.73 450.764C2388.5 450.764 2368.11 456.25 2349.54 467.222C2330.97 478.194 2316.2 492.964 2305.23 511.532C2294.26 530.1 2288.77 550.497 2288.77 572.722C2288.77 594.947 2294.26 615.485 2305.23 634.334C2316.2 652.902 2330.97 667.672 2349.54 678.644C2368.11 689.616 2388.5 695.102 2410.73 695.102Z" fill="black"/>
<path d="M1907.27 444.012L1906.78 444.884L1907.27 444.012ZM1962.13 497.606L1961.27 498.116L1961.27 498.12L1962.13 497.606ZM1962.13 647.838L1962.98 648.357L1962.98 648.353L1962.13 647.838ZM1907.27 700.588L1906.78 699.716L1907.27 700.588ZM1727.07 720H1726.07V721H1727.07V720ZM1727.07 424.6V423.6H1726.07V424.6H1727.07ZM1892.07 675.69L1891.58 674.818L1891.58 674.821L1892.07 675.69ZM1935.96 633.068L1935.1 632.557L1935.96 633.068ZM1892.07 468.91L1891.57 469.773L1891.58 469.778L1891.58 469.782L1892.07 468.91ZM1757.46 452.874V451.874H1756.46V452.874H1757.46ZM1757.46 691.304H1756.46V692.304H1757.46V691.304ZM1831.31 425.6C1858.71 425.6 1883.86 432.03 1906.78 444.884L1907.76 443.14C1884.53 430.111 1859.04 423.6 1831.31 423.6V425.6ZM1906.78 444.884C1929.69 457.739 1947.85 475.479 1961.27 498.116L1962.99 497.096C1949.39 474.157 1930.98 456.167 1907.76 443.14L1906.78 444.884ZM1961.27 498.12C1974.67 520.464 1981.38 545.323 1981.38 572.722H1983.38C1983.38 544.98 1976.59 519.762 1962.98 497.092L1961.27 498.12ZM1981.38 572.722C1981.38 600.121 1974.67 624.98 1961.27 647.324L1962.98 648.353C1976.59 625.682 1983.38 600.464 1983.38 572.722H1981.38ZM1961.27 647.319C1947.86 669.394 1929.7 686.857 1906.78 699.716L1907.76 701.46C1930.97 688.436 1949.39 670.732 1962.98 648.357L1961.27 647.319ZM1906.78 699.716C1883.86 712.57 1858.71 719 1831.31 719V721C1859.04 721 1884.53 714.489 1907.76 701.46L1906.78 699.716ZM1831.31 719H1727.07V721H1831.31V719ZM1728.07 720V424.6H1726.07V720H1728.07ZM1727.07 425.6H1831.31V423.6H1727.07V425.6ZM1831.31 692.304C1853.69 692.304 1874.12 687.059 1892.57 676.559L1891.58 674.821C1873.45 685.14 1853.37 690.304 1831.31 690.304V692.304ZM1892.56 676.562C1911.28 666.069 1926.04 651.738 1936.82 633.579L1935.1 632.557C1924.5 650.409 1910 664.493 1891.58 674.818L1892.56 676.562ZM1936.82 633.579C1947.61 615.409 1953 595.116 1953 572.722H1951C1951 594.779 1945.7 614.716 1935.1 632.557L1936.82 633.579ZM1953 572.722C1953 550.328 1947.61 529.897 1936.83 511.449L1935.1 512.459C1945.7 530.585 1951 550.665 1951 572.722H1953ZM1936.83 511.449C1926.04 493.008 1911.29 478.534 1892.56 468.038L1891.58 469.782C1910 480.105 1924.5 494.326 1935.1 512.459L1936.83 511.449ZM1892.58 468.047C1874.13 457.262 1853.7 451.874 1831.31 451.874V453.874C1853.36 453.874 1873.44 459.177 1891.57 469.773L1892.58 468.047ZM1831.31 451.874H1757.46V453.874H1831.31V451.874ZM1756.46 452.874V691.304H1758.46V452.874H1756.46ZM1757.46 692.304H1831.31V690.304H1757.46V692.304ZM2243.51 720V721H2244.96L2244.44 719.645L2243.51 720ZM2211.44 720L2210.5 720.354L2210.75 721H2211.44V720ZM2184.43 648.682L2185.36 648.328L2185.12 647.682H2184.43V648.682ZM2046.43 648.682V647.682H2045.74L2045.5 648.328L2046.43 648.682ZM2019.43 720V721H2020.12L2020.36 720.354L2019.43 720ZM1986.51 720L1985.57 719.645L1985.06 721H1986.51V720ZM2098.76 424.6V423.6H2098.07L2097.83 424.245L2098.76 424.6ZM2131.26 424.6L2132.19 424.245L2131.95 423.6H2131.26V424.6ZM2115.22 466.8L2116.15 466.445L2115.22 463.977L2114.28 466.447L2115.22 466.8ZM2057.41 619.986L2056.47 619.633L2055.96 620.986H2057.41V619.986ZM2173.46 619.986V620.986H2174.91L2174.39 619.631L2173.46 619.986ZM2243.51 719H2211.44V721H2243.51V719ZM2212.37 719.646L2185.36 648.328L2183.49 649.036L2210.5 720.354L2212.37 719.646ZM2184.43 647.682H2046.43V649.682H2184.43V647.682ZM2045.5 648.328L2018.49 719.646L2020.36 720.354L2047.37 649.036L2045.5 648.328ZM2019.43 719H1986.51V721H2019.43V719ZM1987.44 720.355L2099.7 424.955L2097.83 424.245L1985.57 719.645L1987.44 720.355ZM2098.76 425.6H2131.26V423.6H2098.76V425.6ZM2130.32 424.955L2242.57 720.355L2244.44 719.645L2132.19 424.245L2130.32 424.955ZM2114.28 466.447L2056.47 619.633L2058.34 620.339L2116.16 467.153L2114.28 466.447ZM2057.41 620.986H2173.46V618.986H2057.41V620.986ZM2174.39 619.631L2116.15 466.445L2114.28 467.155L2172.52 620.341L2174.39 619.631ZM2334.35 704.808L2333.84 705.669L2334.35 704.808ZM2278.64 649.104L2277.78 649.605L2277.78 649.612L2278.64 649.104ZM2278.64 496.34L2277.78 495.832L2277.78 495.839L2278.64 496.34ZM2334.35 441.058L2334.85 441.924L2334.85 441.919L2334.35 441.058ZM2487.11 441.058L2486.6 441.919L2486.61 441.924L2487.11 441.058ZM2542.39 496.34L2541.53 496.841L2541.53 496.848L2542.39 496.34ZM2542.39 649.104L2541.53 648.596L2541.53 648.603L2542.39 649.104ZM2487.11 704.808L2486.6 703.947L2487.11 704.808ZM2471.92 678.644L2471.42 677.78L2471.41 677.783L2471.92 678.644ZM2516.65 634.334L2517.51 634.843L2517.51 634.837L2516.65 634.334ZM2516.65 511.532L2515.79 512.041L2516.65 511.532ZM2471.92 467.222L2471.41 468.083L2471.42 468.086L2471.92 467.222ZM2349.54 467.222L2349.03 466.361L2349.54 467.222ZM2305.23 511.532L2304.37 511.023L2305.23 511.532ZM2305.23 634.334L2304.36 634.837L2304.37 634.843L2305.23 634.334ZM2349.54 678.644L2349.03 679.505L2349.54 678.644ZM2410.73 724.486C2383.33 724.486 2358.05 717.64 2334.85 703.947L2333.84 705.669C2357.35 719.547 2382.98 726.486 2410.73 726.486V724.486ZM2334.85 703.947C2311.65 690.247 2293.2 671.801 2279.5 648.596L2277.78 649.612C2291.65 673.109 2310.34 691.798 2333.84 705.669L2334.85 703.947ZM2279.51 648.603C2266.09 625.408 2259.39 600.121 2259.39 572.722H2257.39C2257.39 600.464 2264.18 626.098 2277.78 649.605L2279.51 648.603ZM2259.39 572.722C2259.39 545.323 2266.09 520.036 2279.51 496.841L2277.78 495.839C2264.18 519.346 2257.39 544.98 2257.39 572.722H2259.39ZM2279.5 496.848C2293.2 473.645 2311.65 455.341 2334.85 441.924L2333.85 440.192C2310.35 453.783 2291.65 472.334 2277.78 495.832L2279.5 496.848ZM2334.85 441.919C2358.05 428.226 2383.33 421.38 2410.73 421.38V419.38C2382.98 419.38 2357.35 426.319 2333.84 440.197L2334.85 441.919ZM2410.73 421.38C2438.12 421.38 2463.41 428.226 2486.6 441.919L2487.62 440.197C2464.11 426.319 2438.47 419.38 2410.73 419.38V421.38ZM2486.61 441.924C2509.81 455.34 2528.11 473.641 2541.53 496.841L2543.26 495.839C2529.67 472.337 2511.11 453.784 2487.61 440.192L2486.61 441.924ZM2541.53 496.848C2555.22 520.042 2562.07 545.327 2562.07 572.722H2564.07C2564.07 544.976 2557.13 519.339 2543.25 495.832L2541.53 496.848ZM2562.07 572.722C2562.07 600.117 2555.22 625.402 2541.53 648.596L2543.25 649.612C2557.13 626.105 2564.07 600.468 2564.07 572.722H2562.07ZM2541.53 648.603C2528.11 671.804 2509.81 690.249 2486.6 703.947L2487.62 705.669C2511.12 691.797 2529.67 673.105 2543.26 649.605L2541.53 648.603ZM2486.6 703.947C2463.41 717.64 2438.12 724.486 2410.73 724.486V726.486C2438.47 726.486 2464.11 719.547 2487.62 705.669L2486.6 703.947ZM2410.73 696.102C2433.13 696.102 2453.7 690.571 2472.43 679.505L2471.41 677.783C2453 688.661 2432.78 694.102 2410.73 694.102V696.102ZM2472.42 679.508C2491.42 668.451 2506.45 653.56 2517.51 634.843L2515.79 633.825C2504.91 652.244 2490.12 666.893 2471.42 677.78L2472.42 679.508ZM2517.51 634.837C2528.58 615.832 2534.11 595.121 2534.11 572.722H2532.11C2532.11 594.774 2526.67 615.137 2515.79 633.831L2517.51 634.837ZM2534.11 572.722C2534.11 550.323 2528.58 529.75 2517.51 511.023L2515.79 512.041C2526.67 530.45 2532.11 550.67 2532.11 572.722H2534.11ZM2517.51 511.023C2506.45 492.306 2491.42 477.415 2472.42 466.358L2471.42 468.086C2490.12 478.973 2504.91 493.622 2515.79 512.041L2517.51 511.023ZM2472.43 466.361C2453.7 455.295 2433.13 449.764 2410.73 449.764V451.764C2432.78 451.764 2453 457.205 2471.41 468.083L2472.43 466.361ZM2410.73 449.764C2388.33 449.764 2367.76 455.295 2349.03 466.361L2350.05 468.083C2368.46 457.205 2388.68 451.764 2410.73 451.764V449.764ZM2349.03 466.361C2330.32 477.419 2315.43 492.31 2304.37 511.023L2306.09 512.041C2316.98 493.618 2331.62 478.969 2350.05 468.083L2349.03 466.361ZM2304.37 511.023C2293.3 529.75 2287.77 550.323 2287.77 572.722H2289.77C2289.77 550.67 2295.21 530.45 2306.09 512.041L2304.37 511.023ZM2287.77 572.722C2287.77 595.121 2293.3 615.832 2304.36 634.837L2306.09 633.831C2295.21 615.137 2289.77 594.774 2289.77 572.722H2287.77ZM2304.37 634.843C2315.43 653.556 2330.32 668.447 2349.03 679.505L2350.05 677.783C2331.62 666.897 2316.98 652.248 2306.09 633.825L2304.37 634.843ZM2349.03 679.505C2367.76 690.571 2388.33 696.102 2410.73 696.102V694.102C2388.68 694.102 2368.46 688.661 2350.05 677.783L2349.03 679.505Z" fill="black"/>
<path d="M618.88 573.144C618.88 545.573 625.632 520.113 639.136 496.762C652.921 473.411 671.489 454.984 694.84 441.48C718.191 427.695 743.651 420.802 771.222 420.802C799.637 420.802 825.66 427.976 849.292 442.324C873.205 456.391 891.633 475.381 904.574 499.294L863.64 521.66C854.356 505.343 841.415 492.261 824.816 482.414C808.499 472.567 790.634 467.644 771.222 467.644C752.091 467.644 734.367 472.427 718.05 481.992C702.014 491.276 689.213 504.077 679.648 520.394C670.364 536.43 665.722 554.013 665.722 573.144C665.722 592.275 670.364 609.999 679.648 626.316C689.213 642.352 702.014 655.153 718.05 664.718C734.367 674.002 752.091 678.644 771.222 678.644C790.915 678.644 808.921 673.721 825.238 663.874C841.837 653.746 854.637 640.383 863.64 623.784L904.996 646.15C892.055 670.063 873.627 689.335 849.714 703.964C825.801 718.312 799.637 725.486 771.222 725.486C743.651 725.486 718.191 718.734 694.84 705.23C671.489 691.445 652.921 672.877 639.136 649.526C625.632 626.175 618.88 600.715 618.88 573.144ZM1123.88 424.6H1170.72V619.986C1170.72 640.523 1165.93 658.81 1156.37 674.846C1146.8 690.882 1133.44 703.401 1116.28 712.404C1099.4 721.125 1080.27 725.486 1058.89 725.486C1037.51 725.486 1018.38 721.125 1001.5 712.404C984.616 703.401 971.393 690.882 961.828 674.846C952.262 658.81 947.48 640.523 947.48 619.986V424.6H994.322V619.986C994.322 637.71 1000.23 651.917 1012.05 662.608C1024.14 673.299 1039.76 678.644 1058.89 678.644C1078.86 678.644 1094.62 673.439 1106.15 663.03C1117.97 652.339 1123.88 637.991 1123.88 619.986V424.6ZM1399.52 720L1339.59 614.078H1274.61V720H1227.76V424.6H1345.08C1362.24 424.6 1378 428.82 1392.34 437.26C1406.97 445.7 1418.51 457.235 1426.95 471.864C1435.67 486.212 1440.03 501.967 1440.03 519.128C1440.03 537.415 1435.25 554.154 1425.68 569.346C1416.12 584.538 1403.46 596.073 1387.7 603.95L1453.11 720H1399.52ZM1274.61 469.332V569.346H1345.08C1358.86 569.346 1370.68 564.423 1380.53 554.576C1390.37 544.729 1395.3 532.913 1395.3 519.128C1395.3 505.343 1390.37 493.667 1380.53 484.102C1370.68 474.255 1358.86 469.332 1345.08 469.332H1274.61ZM1537.94 592.556V675.69H1665.81V720H1491.1V424.6H1663.7V468.91H1537.94V548.246H1653.15V592.556H1537.94Z" fill="black"/>
<path d="M639.136 496.762L638.275 496.254L638.27 496.261L639.136 496.762ZM694.84 441.48L695.341 442.346L695.348 442.341L694.84 441.48ZM849.292 442.324L848.773 443.179L848.785 443.186L849.292 442.324ZM904.574 499.294L905.053 500.172L905.928 499.694L905.453 498.818L904.574 499.294ZM863.64 521.66L862.771 522.155L863.257 523.009L864.119 522.538L863.64 521.66ZM824.816 482.414L824.299 483.27L824.306 483.274L824.816 482.414ZM718.05 481.992L718.551 482.857L718.556 482.855L718.05 481.992ZM679.648 520.394L678.785 519.888L678.783 519.893L679.648 520.394ZM679.648 626.316L678.779 626.811L678.784 626.819L678.789 626.828L679.648 626.316ZM718.05 664.718L717.538 665.577L717.547 665.582L717.555 665.587L718.05 664.718ZM825.238 663.874L825.755 664.73L825.759 664.728L825.238 663.874ZM863.64 623.784L864.116 622.904L863.237 622.429L862.761 623.307L863.64 623.784ZM904.996 646.15L905.875 646.626L906.352 645.746L905.472 645.27L904.996 646.15ZM849.714 703.964L850.229 704.822L850.236 704.817L849.714 703.964ZM694.84 705.23L694.332 706.091L694.339 706.096L694.84 705.23ZM639.136 649.526L638.27 650.027L638.275 650.034L639.136 649.526ZM619.88 573.144C619.88 545.745 626.588 520.458 640.002 497.263L638.27 496.261C624.676 519.768 617.88 545.402 617.88 573.144H619.88ZM639.997 497.27C653.696 474.067 672.14 455.763 695.341 442.346L694.339 440.614C670.839 454.205 652.147 472.756 638.275 496.254L639.997 497.27ZM695.348 442.341C718.542 428.648 743.827 421.802 771.222 421.802V419.802C743.476 419.802 717.839 426.741 694.332 440.619L695.348 442.341ZM771.222 421.802C799.459 421.802 825.302 428.928 848.773 443.179L849.811 441.469C826.018 427.023 799.814 419.802 771.222 419.802V421.802ZM848.785 443.186C872.545 457.162 890.842 476.02 903.695 499.77L905.453 498.818C892.424 474.741 873.866 455.619 849.799 441.462L848.785 443.186ZM904.095 498.416L863.161 520.782L864.119 522.538L905.053 500.172L904.095 498.416ZM864.509 521.165C855.137 504.693 842.07 491.487 825.326 481.554L824.306 483.274C840.759 493.035 853.575 505.992 862.771 522.155L864.509 521.165ZM825.333 481.558C808.856 471.615 790.813 466.644 771.222 466.644V468.644C790.455 468.644 808.141 473.519 824.299 483.27L825.333 481.558ZM771.222 466.644C751.916 466.644 734.017 471.473 717.544 481.129L718.556 482.855C734.718 473.38 752.267 468.644 771.222 468.644V466.644ZM717.549 481.127C701.36 490.499 688.436 503.425 678.785 519.888L680.511 520.9C689.991 504.728 702.668 492.053 718.551 482.857L717.549 481.127ZM678.783 519.893C669.407 536.086 664.722 553.843 664.722 573.144H666.722C666.722 554.183 671.321 536.774 680.513 520.895L678.783 519.893ZM664.722 573.144C664.722 592.445 669.407 610.34 678.779 626.811L680.517 625.821C671.321 609.658 666.722 592.105 666.722 573.144H664.722ZM678.789 626.828C688.44 643.007 701.359 655.927 717.538 665.577L718.562 663.859C702.669 654.379 689.987 641.697 680.507 625.804L678.789 626.828ZM717.555 665.587C734.026 674.959 751.921 679.644 771.222 679.644V677.644C752.261 677.644 734.708 673.045 718.545 663.849L717.555 665.587ZM771.222 679.644C791.091 679.644 809.276 674.674 825.755 664.73L824.721 663.018C808.565 672.767 790.74 677.644 771.222 677.644V679.644ZM825.759 664.728C842.503 654.511 855.43 641.019 864.519 624.261L862.761 623.307C853.845 639.746 841.17 652.981 824.717 663.02L825.759 664.728ZM863.164 624.664L904.52 647.03L905.472 645.27L864.116 622.904L863.164 624.664ZM904.117 645.674C891.262 669.427 872.96 688.571 849.192 703.111L850.236 704.817C874.295 690.099 892.848 670.699 905.875 646.626L904.117 645.674ZM849.2 703.107C825.445 717.359 799.459 724.486 771.222 724.486V726.486C799.814 726.486 826.157 719.265 850.229 704.821L849.2 703.107ZM771.222 724.486C743.823 724.486 718.536 717.778 695.341 704.364L694.339 706.096C717.846 719.69 743.48 726.486 771.222 726.486V724.486ZM695.348 704.369C672.143 690.669 653.697 672.223 639.997 649.018L638.275 650.034C652.146 673.531 670.835 692.22 694.332 706.091L695.348 704.369ZM640.002 649.025C626.588 625.83 619.88 600.543 619.88 573.144H617.88C617.88 600.886 624.676 626.52 638.27 650.027L640.002 649.025ZM1123.88 424.6V423.6H1122.88V424.6H1123.88ZM1170.72 424.6H1171.72V423.6H1170.72V424.6ZM1156.37 674.846L1155.51 674.334L1155.51 674.334L1156.37 674.846ZM1116.28 712.404L1116.74 713.292L1116.74 713.29L1116.28 712.404ZM1001.5 712.404L1001.02 713.286L1001.04 713.292L1001.5 712.404ZM961.828 674.846L962.686 674.334L962.686 674.334L961.828 674.846ZM947.48 424.6V423.6H946.48V424.6H947.48ZM994.322 424.6H995.322V423.6H994.322V424.6ZM1012.05 662.608L1011.37 663.35L1011.38 663.357L1012.05 662.608ZM1106.15 663.03L1106.82 663.772L1106.82 663.772L1106.15 663.03ZM1123.88 425.6H1170.72V423.6H1123.88V425.6ZM1169.72 424.6V619.986H1171.72V424.6H1169.72ZM1169.72 619.986C1169.72 640.362 1164.97 658.468 1155.51 674.334L1157.23 675.358C1166.9 659.152 1171.72 640.685 1171.72 619.986H1169.72ZM1155.51 674.334C1146.04 690.205 1132.82 702.598 1115.81 711.518L1116.74 713.29C1134.06 704.205 1147.56 691.559 1157.23 675.358L1155.51 674.334ZM1115.82 711.516C1099.1 720.155 1080.13 724.486 1058.89 724.486V726.486C1080.41 726.486 1099.7 722.096 1116.74 713.292L1115.82 711.516ZM1058.89 724.486C1037.65 724.486 1018.68 720.155 1001.95 711.516L1001.04 713.292C1018.08 722.096 1037.37 726.486 1058.89 726.486V724.486ZM1001.97 711.522C985.243 702.602 972.156 690.209 962.686 674.334L960.969 675.358C970.63 691.555 983.988 704.2 1001.02 713.286L1001.97 711.522ZM962.686 674.334C953.222 658.468 948.48 640.362 948.48 619.986H946.48C946.48 640.685 951.302 659.152 960.969 675.358L962.686 674.334ZM948.48 619.986V424.6H946.48V619.986H948.48ZM947.48 425.6H994.322V423.6H947.48V425.6ZM993.322 424.6V619.986H995.322V424.6H993.322ZM993.322 619.986C993.322 637.957 999.324 652.447 1011.37 663.35L1012.72 661.866C1001.13 651.388 995.322 637.463 995.322 619.986H993.322ZM1011.38 663.357C1023.7 674.238 1039.56 679.644 1058.89 679.644V677.644C1039.95 677.644 1024.59 672.359 1012.71 661.859L1011.38 663.357ZM1058.89 679.644C1079.04 679.644 1095.06 674.391 1106.82 663.772L1105.48 662.288C1094.18 672.488 1078.69 677.644 1058.89 677.644V679.644ZM1106.82 663.772C1118.88 652.866 1124.88 638.233 1124.88 619.986H1122.88C1122.88 637.749 1117.06 651.813 1105.48 662.288L1106.82 663.772ZM1124.88 619.986V424.6H1122.88V619.986H1124.88ZM1399.52 720L1398.65 720.492L1398.93 721H1399.52V720ZM1339.59 614.078L1340.46 613.586L1340.18 613.078H1339.59V614.078ZM1274.61 614.078V613.078H1273.61V614.078H1274.61ZM1274.61 720V721H1275.61V720H1274.61ZM1227.76 720H1226.76V721H1227.76V720ZM1227.76 424.6V423.6H1226.76V424.6H1227.76ZM1392.34 437.26L1391.84 438.122L1391.84 438.126L1392.34 437.26ZM1426.95 471.864L1426.08 472.364L1426.09 472.374L1426.09 472.383L1426.95 471.864ZM1425.68 569.346L1426.53 569.879L1426.53 569.879L1425.68 569.346ZM1387.7 603.95L1387.25 603.056L1386.31 603.526L1386.83 604.441L1387.7 603.95ZM1453.11 720V721H1454.82L1453.98 719.509L1453.11 720ZM1274.61 469.332V468.332H1273.61V469.332H1274.61ZM1274.61 569.346H1273.61V570.346H1274.61V569.346ZM1380.53 484.102L1379.82 484.809L1379.83 484.814L1379.83 484.819L1380.53 484.102ZM1400.39 719.508L1340.46 613.586L1338.72 614.57L1398.65 720.492L1400.39 719.508ZM1339.59 613.078H1274.61V615.078H1339.59V613.078ZM1273.61 614.078V720H1275.61V614.078H1273.61ZM1274.61 719H1227.76V721H1274.61V719ZM1228.76 720V424.6H1226.76V720H1228.76ZM1227.76 425.6H1345.08V423.6H1227.76V425.6ZM1345.08 425.6C1362.07 425.6 1377.65 429.775 1391.84 438.122L1392.85 436.398C1378.34 427.865 1362.41 423.6 1345.08 423.6V425.6ZM1391.84 438.126C1406.32 446.478 1417.73 457.887 1426.08 472.364L1427.81 471.364C1419.29 456.583 1407.62 444.922 1392.84 436.394L1391.84 438.126ZM1426.09 472.383C1434.72 486.571 1439.03 502.146 1439.03 519.128H1441.03C1441.03 501.788 1436.62 485.853 1427.8 471.345L1426.09 472.383ZM1439.03 519.128C1439.03 537.23 1434.3 553.784 1424.84 568.813L1426.53 569.879C1436.2 554.524 1441.03 537.6 1441.03 519.128H1439.03ZM1424.84 568.813C1415.37 583.854 1402.84 595.262 1387.25 603.056L1388.15 604.844C1404.07 596.884 1416.87 585.222 1426.53 569.879L1424.84 568.813ZM1386.83 604.441L1452.24 720.491L1453.98 719.509L1388.57 603.459L1386.83 604.441ZM1453.11 719H1399.52V721H1453.11V719ZM1273.61 469.332V569.346H1275.61V469.332H1273.61ZM1274.61 570.346H1345.08V568.346H1274.61V570.346ZM1345.08 570.346C1359.13 570.346 1371.2 565.315 1381.23 555.283L1379.82 553.869C1370.16 563.53 1358.6 568.346 1345.08 568.346V570.346ZM1381.23 555.283C1391.27 545.251 1396.3 533.182 1396.3 519.128H1394.3C1394.3 532.645 1389.48 544.208 1379.82 553.869L1381.23 555.283ZM1396.3 519.128C1396.3 505.074 1391.27 493.139 1381.22 483.385L1379.83 484.819C1389.48 494.195 1394.3 505.612 1394.3 519.128H1396.3ZM1381.23 483.395C1371.2 473.363 1359.13 468.332 1345.08 468.332V470.332C1358.6 470.332 1370.16 475.148 1379.82 484.809L1381.23 483.395ZM1345.08 468.332H1274.61V470.332H1345.08V468.332ZM1537.94 592.556V591.556H1536.94V592.556H1537.94ZM1537.94 675.69H1536.94V676.69H1537.94V675.69ZM1665.81 675.69H1666.81V674.69H1665.81V675.69ZM1665.81 720V721H1666.81V720H1665.81ZM1491.1 720H1490.1V721H1491.1V720ZM1491.1 424.6V423.6H1490.1V424.6H1491.1ZM1663.7 424.6H1664.7V423.6H1663.7V424.6ZM1663.7 468.91V469.91H1664.7V468.91H1663.7ZM1537.94 468.91V467.91H1536.94V468.91H1537.94ZM1537.94 548.246H1536.94V549.246H1537.94V548.246ZM1653.15 548.246H1654.15V547.246H1653.15V548.246ZM1653.15 592.556V593.556H1654.15V592.556H1653.15ZM1536.94 592.556V675.69H1538.94V592.556H1536.94ZM1537.94 676.69H1665.81V674.69H1537.94V676.69ZM1664.81 675.69V720H1666.81V675.69H1664.81ZM1665.81 719H1491.1V721H1665.81V719ZM1492.1 720V424.6H1490.1V720H1492.1ZM1491.1 425.6H1663.7V423.6H1491.1V425.6ZM1662.7 424.6V468.91H1664.7V424.6H1662.7ZM1663.7 467.91H1537.94V469.91H1663.7V467.91ZM1536.94 468.91V548.246H1538.94V468.91H1536.94ZM1537.94 549.246H1653.15V547.246H1537.94V549.246ZM1652.15 548.246V592.556H1654.15V548.246H1652.15ZM1653.15 591.556H1537.94V593.556H1653.15V591.556Z" fill="black"/>
</svg>
