<svg width="362" height="177" viewBox="0 0 362 177" fill="none" xmlns="http://www.w3.org/2000/svg">
<path d="M46.6112 167.493C46.9012 167.919 47.0461 168.321 47.0461 168.699C47.0461 169.125 46.6837 169.669 45.9588 170.331C43.3491 172.459 40.4254 174.114 37.1875 175.297C33.9496 176.432 30.5425 176.999 26.9664 176.999C21.892 176.999 17.301 175.912 13.1932 173.736C9.08544 171.513 5.84754 168.463 3.47953 164.584C1.15984 160.706 0 156.355 0 151.531C0 146.565 1.18401 142.119 3.55202 138.193C5.92003 134.22 9.18209 131.123 13.3382 128.9C17.5426 126.629 22.2787 125.494 27.5463 125.494C31.1225 125.494 34.4812 126.086 37.6224 127.268C40.812 128.45 43.6874 130.082 46.2487 132.163C46.8287 132.636 47.1186 133.085 47.1186 133.511C47.1186 133.889 46.9495 134.315 46.6112 134.788L42.4068 140.605C41.9718 141.22 41.5127 141.528 41.0295 141.528C40.5945 141.528 40.1112 141.338 39.5797 140.96C35.6652 138.217 31.6299 136.845 27.4738 136.845C24.7192 136.845 22.2303 137.46 20.0073 138.69C17.8326 139.872 16.117 141.575 14.8605 143.798C13.6523 145.973 13.0482 148.48 13.0482 151.318C13.0482 154.061 13.6523 156.52 14.8605 158.696C16.117 160.872 17.8326 162.574 20.0073 163.804C22.2303 165.034 24.7192 165.648 27.4738 165.648C31.9199 165.648 36.0035 164.253 39.7246 161.463C40.3046 161.037 40.7878 160.824 41.1744 160.824C41.4161 160.824 41.6335 160.895 41.8268 161.037C42.0202 161.179 42.2376 161.392 42.4793 161.676L46.6112 167.493Z" fill="#494954"/>
<path d="M53.9282 128.261C53.9282 127.599 54.0732 127.126 54.3631 126.842C54.7014 126.558 55.1847 126.417 55.8129 126.417H64.5842C65.2608 126.417 65.7441 126.558 66.034 126.842C66.3723 127.126 66.5415 127.599 66.5415 128.261V153.801C66.5415 157.632 67.4114 160.564 69.1511 162.598C70.8909 164.632 73.4522 165.648 76.8351 165.648C80.1696 165.648 82.731 164.632 84.519 162.598C86.3071 160.564 87.2012 157.632 87.2012 153.801V128.261C87.2012 127.599 87.3462 127.126 87.6361 126.842C87.9744 126.558 88.4577 126.417 89.0859 126.417H97.8572C98.5338 126.417 99.0171 126.558 99.3071 126.842C99.6453 127.126 99.8145 127.599 99.8145 128.261V154.652C99.8145 159.524 98.8238 163.638 96.8424 166.996C94.9093 170.307 92.1788 172.814 88.651 174.516C85.1231 176.172 81.0395 176.999 76.4001 176.999C71.9058 176.999 67.9671 176.195 64.5842 174.587C61.2497 172.979 58.64 170.52 56.7553 167.209C54.8705 163.899 53.9282 159.76 53.9282 154.794V128.261Z" fill="#494954"/>
<path d="M110.357 128.261C110.357 127.599 110.502 127.126 110.792 126.842C111.131 126.558 111.614 126.417 112.242 126.417H130.075C137.179 126.417 142.519 127.788 146.095 130.531C149.671 133.274 151.459 137.342 151.459 142.734C151.459 146.139 150.686 149.048 149.14 151.46C147.593 153.872 145.443 155.764 142.688 157.135L153.924 173.807C154.262 174.28 154.431 174.706 154.431 175.084C154.431 175.746 153.876 176.077 152.764 176.077H142.978C141.963 176.077 141.166 175.935 140.586 175.652C140.054 175.32 139.522 174.753 138.991 173.949L130.8 161.037C130.558 160.659 130.292 160.399 130.002 160.257C129.76 160.115 129.398 160.044 128.915 160.044H124.058C123.623 160.044 123.333 160.115 123.188 160.257C123.043 160.399 122.971 160.682 122.971 161.108V174.233C122.971 174.895 122.801 175.368 122.463 175.652C122.173 175.935 121.69 176.077 121.013 176.077H112.242C111.614 176.077 111.131 175.935 110.792 175.652C110.502 175.32 110.357 174.847 110.357 174.233V128.261ZM129.567 149.26C132.563 149.26 134.786 148.787 136.236 147.842C137.686 146.848 138.411 145.359 138.411 143.372C138.411 141.386 137.686 139.967 136.236 139.116C134.786 138.217 132.563 137.768 129.567 137.768H124.058C123.623 137.768 123.333 137.862 123.188 138.051C123.043 138.193 122.971 138.453 122.971 138.832V148.125C122.971 148.551 123.043 148.858 123.188 149.048C123.333 149.19 123.623 149.26 124.058 149.26H129.567Z" fill="#494954"/>
<path d="M160.265 128.261C160.265 127.599 160.41 127.126 160.7 126.842C161.038 126.558 161.522 126.417 162.15 126.417H192.596C193.901 126.417 194.553 127.031 194.553 128.261V135.923C194.553 136.585 194.384 137.058 194.046 137.342C193.756 137.626 193.272 137.768 192.596 137.768H173.966C173.531 137.768 173.241 137.862 173.096 138.051C172.951 138.193 172.878 138.453 172.878 138.832V144.365C172.878 144.791 172.951 145.075 173.096 145.217C173.241 145.359 173.531 145.43 173.966 145.43H190.204C190.88 145.43 191.363 145.595 191.653 145.926C191.943 146.21 192.088 146.683 192.088 147.345V154.936C192.088 155.551 191.943 156.024 191.653 156.355C191.363 156.639 190.88 156.78 190.204 156.78H173.966C173.531 156.78 173.241 156.875 173.096 157.064C172.951 157.206 172.878 157.466 172.878 157.845V163.662C172.878 164.04 172.951 164.324 173.096 164.513C173.241 164.655 173.531 164.726 173.966 164.726H192.668C193.345 164.726 193.828 164.868 194.118 165.152C194.456 165.436 194.625 165.909 194.625 166.571V174.233C194.625 175.462 193.973 176.077 192.668 176.077H162.15C161.522 176.077 161.038 175.935 160.7 175.652C160.41 175.32 160.265 174.847 160.265 174.233V128.261Z" fill="#494954"/>
<path d="M203.306 128.261C203.306 127.599 203.451 127.126 203.741 126.842C204.079 126.558 204.563 126.417 205.191 126.417H223.023C228.871 126.417 233.873 127.41 238.029 129.396C242.185 131.383 245.35 134.197 247.525 137.839C249.7 141.48 250.787 145.761 250.787 150.679C250.787 155.835 249.652 160.328 247.38 164.159C245.109 167.942 241.774 170.875 237.377 172.956C233.027 175.037 227.832 176.077 221.791 176.077H205.191C204.563 176.077 204.079 175.935 203.741 175.652C203.451 175.32 203.306 174.847 203.306 174.233V128.261ZM221.719 164.726C226.938 164.726 230.901 163.52 233.607 161.108C236.362 158.696 237.739 155.338 237.739 151.034C237.739 148.338 237.135 145.997 235.927 144.011C234.719 142.024 232.93 140.487 230.562 139.399C228.243 138.311 225.391 137.768 222.009 137.768H217.007C216.572 137.768 216.282 137.862 216.137 138.051C215.992 138.193 215.919 138.453 215.919 138.832V163.662C215.919 164.04 215.992 164.324 216.137 164.513C216.282 164.655 216.572 164.726 217.007 164.726H221.719Z" fill="#494954"/>
<path d="M275.141 129.112C275.865 127.694 276.494 126.724 277.025 126.204C277.605 125.636 278.258 125.352 278.983 125.352C279.659 125.352 280.287 125.636 280.867 126.204C281.447 126.724 282.1 127.694 282.824 129.112L305.514 173.736C305.756 174.162 305.876 174.587 305.876 175.013C305.876 175.722 305.345 176.077 304.282 176.077H295.075C294.157 176.077 293.481 175.959 293.046 175.722C292.659 175.486 292.297 174.989 291.958 174.233L289.131 168.344C288.938 167.966 288.745 167.729 288.551 167.635C288.406 167.493 288.14 167.422 287.754 167.422H269.776C269.39 167.422 269.1 167.493 268.906 167.635C268.761 167.729 268.592 167.966 268.399 168.344L265.644 174.233C265.306 174.989 264.919 175.486 264.484 175.722C264.098 175.959 263.47 176.077 262.6 176.077H253.756C252.644 176.077 252.089 175.722 252.089 175.013C252.089 174.587 252.209 174.162 252.451 173.736L275.141 129.112ZM282.824 157.277C283.114 157.277 283.308 157.253 283.404 157.206C283.549 157.112 283.622 156.97 283.622 156.78C283.622 156.544 283.574 156.355 283.477 156.213L278.765 146.423L274.053 156.213C273.908 156.402 273.836 156.591 273.836 156.78C273.836 157.112 274.102 157.277 274.633 157.277H282.824Z" fill="#494954"/>
<path d="M307.234 151.389C307.234 146.423 308.394 141.977 310.713 138.051C313.081 134.126 316.319 131.052 320.427 128.829C324.535 126.606 329.174 125.494 334.345 125.494C339.564 125.494 344.228 126.606 348.336 128.829C352.492 131.004 355.73 134.055 358.049 137.98C360.369 141.859 361.529 146.281 361.529 151.247C361.529 156.213 360.345 160.659 357.977 164.584C355.657 168.463 352.419 171.513 348.263 173.736C344.107 175.912 339.42 176.999 334.2 176.999C329.078 176.999 324.462 175.912 320.355 173.736C316.247 171.56 313.033 168.533 310.713 164.655C308.394 160.73 307.234 156.308 307.234 151.389ZM334.273 165.648C336.931 165.648 339.323 165.057 341.449 163.875C343.624 162.645 345.34 160.943 346.596 158.767C347.853 156.591 348.481 154.108 348.481 151.318C348.481 148.433 347.853 145.902 346.596 143.727C345.388 141.551 343.696 139.872 341.522 138.69C339.395 137.46 337.003 136.845 334.345 136.845C331.687 136.845 329.271 137.46 327.096 138.69C324.97 139.872 323.303 141.575 322.094 143.798C320.886 145.973 320.282 148.48 320.282 151.318C320.282 154.156 320.886 156.662 322.094 158.838C323.303 161.013 324.97 162.692 327.096 163.875C329.223 165.057 331.615 165.648 334.273 165.648Z" fill="#494954"/>
<path d="M185.913 0.986483H123.731C95.8827 0.986483 73.3074 23.5099 73.3074 51.2939C73.3074 79.0779 95.8827 101.601 123.731 101.601H144.486L152.07 79.2424H123.731C108.26 79.2424 95.7178 66.7294 95.7178 51.2939C95.7178 35.8583 108.26 23.3453 123.731 23.3453H171.122C174.519 14.7884 179.604 7.22446 185.913 0.986483Z" fill="#494954"/>
<path fill-rule="evenodd" clip-rule="evenodd" d="M162.572 101.601H236.263C264.085 101.601 286.638 79.0777 286.638 51.2937C286.638 23.5097 264.085 0.986328 236.263 0.986328H232.86C211.276 0.986328 192.09 14.7181 185.155 35.1301L162.572 101.601ZM193.811 79.2422L206.357 42.3139C210.21 30.9739 220.868 23.3452 232.86 23.3452H236.263C251.719 23.3452 264.249 35.8582 264.249 51.2937C264.249 66.7293 251.719 79.2422 236.263 79.2422H193.811Z" fill="#494954"/>
</svg>
