<svg width="349" height="177" viewBox="0 0 349 177" fill="none" xmlns="http://www.w3.org/2000/svg">
<path fill-rule="evenodd" clip-rule="evenodd" d="M206.222 82.8787H174.786L176.354 78.2559H197.145C200.879 78.2559 204.186 80.0776 206.222 82.8787ZM179.49 0H117.308C89.4601 0 66.8848 22.5234 66.8848 50.3074C66.8848 78.0914 89.4601 100.615 117.308 100.615H138.063L145.647 78.2559H117.308C101.837 78.2559 89.2952 65.7429 89.2952 50.3074C89.2952 34.8718 101.837 22.3588 117.308 22.3588H164.699C168.096 13.802 173.181 6.23803 179.49 0Z" fill="#494954"/>
<path fill-rule="evenodd" clip-rule="evenodd" d="M156.15 100.615H229.841C257.663 100.615 280.217 78.0914 280.217 50.3074C280.217 22.5234 257.663 -1.23978e-05 229.841 -1.23978e-05H226.438C204.854 -1.23978e-05 185.668 13.7318 178.734 34.1438L156.15 100.615ZM187.389 78.2559L199.935 41.3276C203.788 29.9876 214.447 22.3588 226.438 22.3588H229.841C245.298 22.3588 257.828 34.8718 257.828 50.3074C257.828 65.7429 245.298 78.2559 229.841 78.2559H187.389Z" fill="#494954"/>
<path d="M45.434 166.618C45.7167 167.039 45.858 167.436 45.858 167.81C45.858 168.231 45.5047 168.768 44.7981 169.423C42.2544 171.526 39.4044 173.162 36.2483 174.331C33.0922 175.453 29.7712 176.014 26.2853 176.014C21.3392 176.014 16.8641 174.939 12.86 172.788C8.85599 170.591 5.69986 167.576 3.39165 163.743C1.13055 159.911 0 155.61 0 150.842C0 145.934 1.1541 141.54 3.46231 137.661C5.77052 133.734 8.9502 130.672 13.0013 128.475C17.0996 126.232 21.716 125.11 26.8506 125.11C30.3365 125.11 33.6103 125.694 36.6723 126.863C39.7813 128.031 42.5841 129.644 45.0807 131.701C45.646 132.168 45.9286 132.612 45.9286 133.033C45.9286 133.407 45.7638 133.828 45.434 134.295L41.3358 140.045C40.9118 140.652 40.4643 140.956 39.9933 140.956C39.5693 140.956 39.0982 140.769 38.5801 140.395C34.7645 137.684 30.8311 136.328 26.7799 136.328C24.0949 136.328 21.6689 136.936 19.502 138.151C17.3822 139.32 15.71 141.003 14.4852 143.2C13.3075 145.35 12.7187 147.827 12.7187 150.632C12.7187 153.343 13.3075 155.774 14.4852 157.924C15.71 160.074 17.3822 161.757 19.502 162.972C21.6689 164.188 24.0949 164.795 26.7799 164.795C31.1137 164.795 35.0942 163.416 38.7214 160.658C39.2867 160.238 39.7577 160.027 40.1346 160.027C40.3701 160.027 40.5821 160.097 40.7705 160.238C40.9589 160.378 41.1709 160.588 41.4064 160.869L45.434 166.618Z" fill="#494954"/>
<path d="M50.0931 127.844C50.0931 127.19 50.2345 126.723 50.5171 126.442C50.8468 126.162 51.3179 126.021 51.9303 126.021H60.4801C61.1396 126.021 61.6106 126.162 61.8933 126.442C62.223 126.723 62.3879 127.19 62.3879 127.844V153.086C62.3879 156.872 63.2358 159.77 64.9316 161.78C66.6274 163.79 69.1241 164.795 72.4215 164.795C75.6719 164.795 78.1685 163.79 79.9114 161.78C81.6544 159.77 82.5258 156.872 82.5258 153.086V127.844C82.5258 127.19 82.6671 126.723 82.9498 126.442C83.2795 126.162 83.7506 126.021 84.363 126.021H92.9128C93.5722 126.021 94.0433 126.162 94.3259 126.442C94.6557 126.723 94.8206 127.19 94.8206 127.844V153.927C94.8206 158.742 93.8549 162.809 91.9235 166.127C90.0393 169.399 87.3778 171.877 83.939 173.56C80.5003 175.196 76.5198 176.014 71.9976 176.014C67.6167 176.014 63.7775 175.219 60.4801 173.63C57.2297 172.04 54.686 169.61 52.8488 166.338C51.0117 163.066 50.0931 158.976 50.0931 154.068V127.844Z" fill="#494954"/>
<path d="M101.564 127.844C101.564 127.19 101.705 126.723 101.988 126.442C102.318 126.162 102.789 126.021 103.401 126.021H120.783C127.708 126.021 132.913 127.377 136.399 130.088C139.885 132.799 141.628 136.819 141.628 142.148C141.628 145.514 140.874 148.388 139.367 150.772C137.86 153.156 135.763 155.026 133.078 156.381L144.03 172.858C144.36 173.326 144.525 173.747 144.525 174.121C144.525 174.775 143.983 175.102 142.9 175.102H133.361C132.372 175.102 131.594 174.962 131.029 174.681C130.511 174.354 129.993 173.793 129.475 172.999L121.49 160.238C121.255 159.864 120.995 159.607 120.713 159.466C120.477 159.326 120.124 159.256 119.653 159.256H114.919C114.495 159.256 114.212 159.326 114.071 159.466C113.93 159.607 113.859 159.887 113.859 160.308V173.279C113.859 173.934 113.694 174.401 113.364 174.681C113.082 174.962 112.611 175.102 111.951 175.102H103.401C102.789 175.102 102.318 174.962 101.988 174.681C101.705 174.354 101.564 173.887 101.564 173.279V127.844ZM120.289 148.599C123.209 148.599 125.376 148.131 126.79 147.196C128.203 146.215 128.909 144.742 128.909 142.779C128.909 140.816 128.203 139.413 126.79 138.572C125.376 137.684 123.209 137.24 120.289 137.24H114.919C114.495 137.24 114.212 137.333 114.071 137.52C113.93 137.661 113.859 137.918 113.859 138.292V147.477C113.859 147.897 113.93 148.201 114.071 148.388C114.212 148.528 114.495 148.599 114.919 148.599H120.289Z" fill="#494954"/>
<path d="M170.279 128.686C170.985 127.284 171.598 126.325 172.116 125.811C172.681 125.25 173.317 124.97 174.024 124.97C174.683 124.97 175.296 125.25 175.861 125.811C176.426 126.325 177.062 127.284 177.769 128.686L199.885 172.788C200.121 173.209 200.238 173.63 200.238 174.05C200.238 174.752 199.72 175.102 198.684 175.102H189.71C188.815 175.102 188.156 174.985 187.732 174.752C187.355 174.518 187.002 174.027 186.672 173.279L183.916 167.46C183.728 167.086 183.539 166.852 183.351 166.758C183.209 166.618 182.95 166.548 182.574 166.548H165.05C164.673 166.548 164.39 166.618 164.202 166.758C164.061 166.852 163.896 167.086 163.707 167.46L161.022 173.279C160.693 174.027 160.316 174.518 159.892 174.752C159.515 174.985 158.903 175.102 158.055 175.102H149.434C148.351 175.102 147.809 174.752 147.809 174.05C147.809 173.63 147.927 173.209 148.162 172.788L170.279 128.686ZM177.769 156.522C178.051 156.522 178.24 156.498 178.334 156.451C178.475 156.358 178.546 156.218 178.546 156.031C178.546 155.797 178.499 155.61 178.405 155.47L173.812 145.794L169.219 155.47C169.078 155.657 169.007 155.844 169.007 156.031C169.007 156.358 169.266 156.522 169.784 156.522H177.769Z" fill="#494954"/>
<path d="M203.869 127.844C203.869 127.19 204.01 126.723 204.292 126.442C204.622 126.162 205.093 126.021 205.706 126.021H223.088C228.788 126.021 233.663 127.003 237.714 128.966C241.766 130.93 244.851 133.711 246.971 137.31C249.091 140.909 250.15 145.14 250.15 150.001C250.15 155.096 249.043 159.537 246.829 163.323C244.615 167.062 241.365 169.96 237.078 172.017C232.839 174.074 227.775 175.102 221.887 175.102H205.706C205.093 175.102 204.622 174.962 204.292 174.681C204.01 174.354 203.869 173.887 203.869 173.279V127.844ZM221.816 163.884C226.903 163.884 230.766 162.692 233.404 160.308C236.089 157.924 237.432 154.605 237.432 150.351C237.432 147.687 236.843 145.373 235.665 143.41C234.488 141.447 232.745 139.928 230.436 138.853C228.175 137.777 225.396 137.24 222.099 137.24H217.223C216.799 137.24 216.517 137.333 216.375 137.52C216.234 137.661 216.163 137.918 216.163 138.292V162.832C216.163 163.206 216.234 163.486 216.375 163.673C216.517 163.814 216.799 163.884 217.223 163.884H221.816Z" fill="#494954"/>
<path d="M269.271 128.686C269.978 127.284 270.59 126.325 271.108 125.811C271.673 125.25 272.309 124.97 273.016 124.97C273.675 124.97 274.288 125.25 274.853 125.811C275.418 126.325 276.054 127.284 276.761 128.686L298.877 172.788C299.113 173.209 299.231 173.63 299.231 174.05C299.231 174.752 298.712 175.102 297.676 175.102H288.702C287.807 175.102 287.148 174.985 286.724 174.752C286.347 174.518 285.994 174.027 285.664 173.279L282.908 167.46C282.72 167.086 282.531 166.852 282.343 166.758C282.202 166.618 281.943 166.548 281.566 166.548H264.042C263.665 166.548 263.383 166.618 263.194 166.758C263.053 166.852 262.888 167.086 262.7 167.46L260.015 173.279C259.685 174.027 259.308 174.518 258.884 174.752C258.507 174.985 257.895 175.102 257.047 175.102H248.426C247.343 175.102 246.801 174.752 246.801 174.05C246.801 173.63 246.919 173.209 247.155 172.788L269.271 128.686ZM276.761 156.522C277.044 156.522 277.232 156.498 277.326 156.451C277.468 156.358 277.538 156.218 277.538 156.031C277.538 155.797 277.491 155.61 277.397 155.47L272.804 145.794L268.211 155.47C268.07 155.657 267.999 155.844 267.999 156.031C267.999 156.358 268.258 156.522 268.776 156.522H276.761Z" fill="#494954"/>
<path d="M295.583 150.702C295.583 145.794 296.713 141.4 298.974 137.52C301.283 133.641 304.439 130.602 308.443 128.405C312.447 126.208 316.969 125.11 322.009 125.11C327.097 125.11 331.643 126.208 335.647 128.405C339.698 130.556 342.854 133.571 345.115 137.45C347.376 141.283 348.507 145.654 348.507 150.562C348.507 155.47 347.353 159.864 345.044 163.743C342.783 167.576 339.627 170.591 335.576 172.788C331.525 174.939 326.956 176.014 321.868 176.014C316.875 176.014 312.376 174.939 308.372 172.788C304.368 170.638 301.236 167.647 298.974 163.814C296.713 159.934 295.583 155.563 295.583 150.702ZM321.939 164.795C324.53 164.795 326.861 164.211 328.934 163.042C331.054 161.827 332.726 160.144 333.951 157.994C335.176 155.844 335.788 153.39 335.788 150.632C335.788 147.781 335.176 145.28 333.951 143.13C332.773 140.979 331.125 139.32 329.005 138.151C326.932 136.936 324.6 136.328 322.009 136.328C319.419 136.328 317.063 136.936 314.944 138.151C312.871 139.32 311.246 141.003 310.068 143.2C308.89 145.35 308.302 147.827 308.302 150.632C308.302 153.437 308.89 155.914 310.068 158.064C311.246 160.214 312.871 161.874 314.944 163.042C317.016 164.211 319.348 164.795 321.939 164.795Z" fill="#494954"/>
</svg>
