<svg width="237" height="237" viewBox="0 0 237 237" fill="none" xmlns="http://www.w3.org/2000/svg">
<g clip-path="url(#clip0_12_290)">
<rect width="237" height="237" rx="16" fill="#1D1A27"/>
</g>
<mask id="mask0_12_290" style="mask-type:alpha" maskUnits="userSpaceOnUse" x="78" y="24" width="147" height="197">
<path d="M78.1411 107.944C85.3044 81.9733 112.099 66.755 138.035 73.929C163.967 81.1029 179.162 107.937 171.999 133.909C161.613 171.562 134.525 202.304 98.5291 217.415C142.302 229.524 190.19 210.382 212.833 168.725C239.218 120.187 221.26 59.4577 172.797 33.0343C165.998 29.3037 158.884 26.4481 151.683 24.4561C115.488 39.219 88.2724 70.1468 78.1411 107.944Z" fill="url(#paint0_linear_12_290)"/>
</mask>
<g mask="url(#mask0_12_290)">
<rect x="17.6089" y="13.2825" width="214.952" height="215.271" fill="url(#paint1_linear_12_290)"/>
</g>
<mask id="mask1_12_290" style="mask-type:alpha" maskUnits="userSpaceOnUse" x="12" y="16" width="147" height="197">
<path d="M64.1724 203.983C71.0378 207.731 78.0847 210.567 85.2906 212.561L85.3578 212.579C121.354 197.469 148.441 166.727 158.828 129.074C151.665 155.046 124.868 170.265 98.9363 163.091C73 155.914 57.8043 129.08 64.9698 103.108C75.0988 65.3113 102.316 34.3834 138.512 19.6205C94.7543 7.44183 46.7994 26.5656 24.1379 68.2925C-2.17916 116.848 15.7068 177.56 64.1724 203.983Z" fill="url(#paint2_linear_12_290)"/>
</mask>
<g mask="url(#mask1_12_290)">
<rect x="4.43918" y="8.44653" width="214.952" height="215.271" fill="url(#paint3_linear_12_290)"/>
</g>
<defs>
<linearGradient id="paint0_linear_12_290" x1="122.229" y1="38.2721" x2="175.031" y2="202.184" gradientUnits="userSpaceOnUse">
<stop stop-color="#E3F1DA"/>
<stop offset="1" stop-color="#CCF3B6"/>
</linearGradient>
<linearGradient id="paint1_linear_12_290" x1="17.6089" y1="120.918" x2="236.311" y2="124.809" gradientUnits="userSpaceOnUse">
<stop stop-color="#6F86FF"/>
<stop offset="0.333333" stop-color="#B372CE"/>
<stop offset="1" stop-color="#FF7586"/>
</linearGradient>
<linearGradient id="paint2_linear_12_290" x1="55.1343" y1="51.2683" x2="136.255" y2="177.094" gradientUnits="userSpaceOnUse">
<stop stop-color="#D0F1BD"/>
<stop offset="1" stop-color="#90E65D"/>
</linearGradient>
<linearGradient id="paint3_linear_12_290" x1="4.43918" y1="116.082" x2="154.771" y2="152.214" gradientUnits="userSpaceOnUse">
<stop stop-color="#6F86FF"/>
<stop offset="0.9999" stop-color="#A75CC7"/>
<stop offset="1" stop-color="#FF7586"/>
</linearGradient>
<clipPath id="clip0_12_290">
<rect width="237" height="237" rx="16" fill="white"/>
</clipPath>
</defs>
</svg>
