<svg width="72" height="72" viewBox="0 0 72 72" fill="none" xmlns="http://www.w3.org/2000/svg">
<rect width="72" height="72" rx="16" fill="#302C3F"/>
<path d="M48.8333 15V20.55H52.5V15H48.8333ZM41.5 16.85V20.55H45.1667V16.85H41.5ZM34.1667 24.25C33.0025 24.25 31.874 24.5283 30.8473 25.0666C28.3907 23.681 25.135 24.1835 23.1953 26.1723C19.3453 25.5784 15.8333 28.6863 15.8333 32.575C15.8333 32.8941 15.8973 33.1947 15.9443 33.5H14V35.35C14 40.4579 18.1048 44.6 23.1667 44.6H36.9883C35.2393 42.6335 34.1667 40.0453 34.1667 37.2V33.5H19.6683C19.5658 33.2096 19.5 32.9004 19.5 32.575C19.5 30.7213 21.2953 29.2404 23.224 29.9915L24.6276 30.5371L25.4297 29.2544C25.9412 28.4385 26.8095 27.95 27.75 27.95C28.5988 27.95 29.2078 28.3434 29.5726 28.6727L30.7184 29.7061L31.9287 28.7521C32.3889 28.3858 33.1528 27.95 34.1667 27.95V24.25ZM37.8333 24.25V37.2C37.8333 41.2811 41.1223 44.6 45.1667 44.6H48.8333C52.8777 44.6 56.1667 41.2811 56.1667 37.2V24.25H37.8333ZM14 48.3V52H58V48.3H14Z" fill="white"/>
</svg>
