<svg width="72" height="78" viewBox="0 0 72 78" fill="none" xmlns="http://www.w3.org/2000/svg">
<rect y="3" width="72" height="72" rx="16" fill="#302C3F"/>
<path d="M37.9688 49.1875H32.1562C32.1771 47.1875 32.3542 45.5521 32.6875 44.2812C33.0417 42.9896 33.6146 41.8125 34.4062 40.75C35.1979 39.6875 36.25 38.4792 37.5625 37.125C38.5208 36.1458 39.3958 35.2292 40.1875 34.375C41 33.5 41.6562 32.5625 42.1562 31.5625C42.6562 30.5417 42.9062 29.3229 42.9062 27.9062C42.9062 26.4688 42.6458 25.2292 42.125 24.1875C41.625 23.1458 40.875 22.3438 39.875 21.7812C38.8958 21.2188 37.6771 20.9375 36.2188 20.9375C35.0104 20.9375 33.8646 21.1562 32.7812 21.5938C31.6979 22.0312 30.8229 22.7083 30.1562 23.625C29.4896 24.5208 29.1458 25.6979 29.125 27.1562H23.3438C23.3854 24.8021 23.9688 22.7812 25.0938 21.0938C26.2396 19.4062 27.7812 18.1146 29.7188 17.2188C31.6562 16.3229 33.8229 15.875 36.2188 15.875C38.8646 15.875 41.1146 16.3542 42.9688 17.3125C44.8438 18.2708 46.2708 19.6458 47.25 21.4375C48.2292 23.2083 48.7188 25.3125 48.7188 27.75C48.7188 29.625 48.3333 31.3542 47.5625 32.9375C46.8125 34.5 45.8438 35.9688 44.6562 37.3438C43.4688 38.7188 42.2083 40.0312 40.875 41.2812C39.7292 42.3438 38.9583 43.5417 38.5625 44.875C38.1667 46.2083 37.9688 47.6458 37.9688 49.1875ZM31.9062 59.0938C31.9062 58.1562 32.1979 57.3646 32.7812 56.7188C33.3646 56.0729 34.2083 55.75 35.3125 55.75C36.4375 55.75 37.2917 56.0729 37.875 56.7188C38.4583 57.3646 38.75 58.1562 38.75 59.0938C38.75 59.9896 38.4583 60.7604 37.875 61.4062C37.2917 62.0521 36.4375 62.375 35.3125 62.375C34.2083 62.375 33.3646 62.0521 32.7812 61.4062C32.1979 60.7604 31.9062 59.9896 31.9062 59.0938Z" fill="white"/>
</svg>
