<?xml version="1.0" encoding="utf-8"?>
<!-- Generator: Adobe Illustrator 16.0.0, SVG Export Plug-In . SVG Version: 6.00 Build 0)  -->
<!DOCTYPE svg PUBLIC "-//W3C//DTD SVG 1.1//EN" "http://www.w3.org/Graphics/SVG/1.1/DTD/svg11.dtd">
<svg version="1.1" id="Layer_1" xmlns="http://www.w3.org/2000/svg" xmlns:xlink="http://www.w3.org/1999/xlink" x="0px" y="0px"
	 width="298px" height="226px" viewBox="0 0 298 226" enable-background="new 0 0 298 226" xml:space="preserve">
<g>
	<g>
		<g>
			<g>
				<path fill="#010101" d="M43.874,189.073c-19.765-19.565-30.727-45.655-30.867-73.466c-0.139-27.811,10.556-54.009,30.122-73.773
					c19.565-19.765,45.656-30.727,73.465-30.868c42.059-0.212,80.334,25.26,96.54,63.782l65.358-0.329
					c3.263-0.016,5.917,2.61,5.933,5.874l0.344,67.881c0.017,3.259-2.614,5.916-5.873,5.933l-65.359,0.331
					c-15.814,38.692-53.83,64.542-95.888,64.757C89.84,219.338,63.64,208.641,43.874,189.073z M182.164,49.641
					c-17.094-16.921-40.549-26.993-65.511-26.868c-50.894,0.26-92.094,41.879-91.84,92.775c0.26,50.9,41.878,92.098,92.775,91.84
					c38.519-0.194,73.214-24.646,86.339-60.845c0.842-2.328,3.043-3.879,5.517-3.893l63.487-0.32l-0.283-56.075l-63.486,0.319
					c-2.473,0.013-4.688-1.519-5.558-3.834C198.855,70.047,191.449,58.832,182.164,49.641z"/>
				<path fill="none" d="M-5.744,215.914"/>
			</g>
			<g>
				<path fill="#010101" d="M275.451,166.574c-1.073-1.063-1.739-2.533-1.748-4.168l-0.484-96.238
					c-0.018-3.258,2.611-5.914,5.87-5.931c3.263-0.016,5.917,2.611,5.933,5.874l0.488,96.236c0.018,3.261-2.613,5.919-5.873,5.933
					C278.005,168.291,276.525,167.637,275.451,166.574z"/>
			</g>
		</g>
		<g>
			<g>
				<path fill="#010101" d="M200.649,114.658c0.114,22.083-8.569,42.886-24.454,58.578c-16.951,16.747-40.529,25.616-64.685,24.337
					c-3.193-0.168-5.696-2.74-5.711-5.865L105.007,38.55c-0.017-3.132,2.465-5.729,5.659-5.922
					c24.182-1.48,47.844,7.158,64.924,23.695C191.637,71.856,200.535,92.575,200.649,114.658z M117.842,185.867
					c18.693-0.437,36.578-7.898,49.774-20.933c13.614-13.453,21.059-31.291,20.961-50.217c-0.098-18.928-7.728-36.69-21.482-50.004
					c-13.294-12.87-31.255-20.159-49.985-20.434L117.842,185.867z"/>
			</g>
			<g>
				<path fill="#010101" d="M68.536,173.639c-4.303-4.166-4.336-10.98-0.076-15.19c4.259-4.208,11.225-4.241,15.529-0.075
					c4.302,4.166,4.337,10.978,0.078,15.186C79.807,177.768,72.839,177.805,68.536,173.639z M77.032,165.246
					c-0.429-0.416-1.12-0.411-1.543,0.008c-0.425,0.42-0.424,1.096,0.005,1.512c0.425,0.412,1.119,0.407,1.544-0.013
					C77.461,166.334,77.457,165.657,77.032,165.246z"/>
			</g>
			<g>
				<path fill="#010101" d="M127.633,99.491c-8.596-8.321-8.666-21.927-0.158-30.333c8.507-8.404,22.419-8.474,31.015-0.152
					c8.594,8.32,8.666,21.928,0.159,30.333C150.141,107.744,136.227,107.811,127.633,99.491z M149.995,77.398
					c-3.862-3.74-10.116-3.71-13.939,0.067c-3.824,3.778-3.795,9.897,0.069,13.637c3.863,3.741,10.119,3.708,13.943-0.07
					C153.892,87.254,153.859,81.139,149.995,77.398z"/>
			</g>
			<g>
				<path fill="#010101" d="M46.667,133.074c-4.283-4.146-4.317-10.928-0.077-15.118c4.24-4.188,11.176-4.225,15.459-0.079
					c4.284,4.148,4.319,10.933,0.08,15.123C57.888,137.189,50.952,137.223,46.667,133.074z M55.161,124.683
					c-0.445-0.431-1.169-0.427-1.612,0.01c-0.442,0.438-0.44,1.147,0.005,1.578c0.449,0.435,1.172,0.428,1.615-0.009
					C55.612,125.824,55.61,125.117,55.161,124.683z"/>
			</g>
			<g>
				<path fill="#010101" d="M156.569,150.488c-3.354-3.249-3.384-8.564-0.063-11.846c3.322-3.281,8.757-3.308,12.112-0.059
					c3.356,3.25,3.382,8.563,0.061,11.844S159.926,153.738,156.569,150.488z M165.063,142.096c-1.374-1.33-3.601-1.316-4.961,0.027
					s-1.352,3.521,0.023,4.852c1.373,1.33,3.604,1.32,4.963-0.023C166.448,145.606,166.438,143.426,165.063,142.096z"/>
			</g>
			<g>
				<path fill="#010101" d="M54.378,88.463c-6.615-6.403-6.671-16.872-0.124-23.341c6.546-6.467,17.253-6.52,23.867-0.116
					c6.612,6.401,6.668,16.874,0.122,23.341C71.696,94.816,60.99,94.864,54.378,88.463z M69.628,73.397
					c-1.883-1.823-4.93-1.81-6.793,0.031c-1.863,1.841-1.848,4.822,0.035,6.645c1.882,1.822,4.93,1.808,6.794-0.034
					C71.527,78.199,71.51,75.219,69.628,73.397z"/>
			</g>
		</g>
	</g>
</g>
<g>
	<g>
		<path fill="#FFFFFF" d="M20,213c7.738,0,7.738-12,0-12S12.262,213,20,213L20,213z"/>
	</g>
</g>
<g>
	<g>
		<path fill="#FFFFFF" d="M20,213c7.738,0,7.738-12,0-12S12.262,213,20,213L20,213z"/>
	</g>
</g>
<g>
	<g>
		<path fill="#FFFFFF" d="M-5,225c7.738,0,7.738-12,0-12S-12.738,225-5,225L-5,225z"/>
	</g>
</g>
<g>
	<g>
		<path fill="#FFFFFF" d="M-5,225c7.738,0,7.738-12,0-12S-12.738,225-5,225L-5,225z"/>
	</g>
</g>
</svg>
