<svg xmlns="http://www.w3.org/2000/svg" viewBox="0 0 950.44 188.6">
  <g id="Livello_2" data-name="Livello 2">
    <g id="Livello_1-2" data-name="Livello 1">
      <path d="M184.47,188.6,123.35,147c-7.53-5.12-12.13-14.27-12.13-24.14v-42c0-9.91,4.64-19.1,12.23-24.21L207.76,0V48.37c0,16.64-7.86,32-20.66,40.48l-19.49,12.84h0c10.13,7.17,16.31,19.62,16.42,33Z"/>
      <path d="M40.15,101.69,6.36,79.42A14.85,14.85,0,0,1,0,67V58.58l64.42,43.71L23.77,130l.07-8.92a14.93,14.93,0,0,1,6-12.1Z"/>
      <path d="M96.54,76.71v4.44L7.47,20.71A17.06,17.06,0,0,1,0,6.61V0L87.52,58.86A21.44,21.44,0,0,1,96.54,76.71Z"/>
      <path d="M0,29.39,90.44,90.76a13.93,13.93,0,0,1,6.1,11.51h0a13.91,13.91,0,0,1-6.08,11.49L23.53,159.38l0-6.62A17.06,17.06,0,0,1,31,138.82l46.34-31.58-.09-.17,7.25-4.88L7.47,49.9A17,17,0,0,1,0,35.8Z"/>
      <path d="M30.79,168.21l65.75-44.82v3.68a21.45,21.45,0,0,1-8.94,17.79L23.29,188.6l.06-6.45A17,17,0,0,1,30.79,168.21Z"/>
      <g>
        <path d="M306.58,44.1c21.49,0,42.82,11.62,49.51,34.86H343.2c-6.85-15.12-20.54-22.6-36.62-22.6-25.62-.48-42.82,18.78-42.82,44.73,0,25.15,17,44.73,42.67,44.73,17,0,31.51-8.6,37.4-24.68h12.9c-6.37,25-27.86,36.93-50.15,36.93-31,0-56.35-22-56.35-57C250.23,66.23,275.23,43.62,306.58,44.1Z"/>
        <path d="M442.36,80.08v56.19c0,11.3,1.11,12.89,9.07,12.09l.16,8.6c-11.94,2.07-21.49,1.27-20.69-12.1-5.89,10.67-15.76,13.21-27.38,13.21-20.54,0-28.81-14.32-28.81-33.26V80.08h12.57v44.73c-.16,14,7.17,23.08,19.9,23.08,13.37,0,22.76-8.92,22.76-23.24V80.08Z"/>
        <path d="M505.87,77.53a29.9,29.9,0,0,1,18,5.73l-3,10.5a29.72,29.72,0,0,0-16.24-5.09c-11,0-21.17,8.28-21.17,20.38V156.8H471.16V98.06c0-7-.16-11.3-9.23-10.5l-.16-8.28c11.94-2.07,20.38-.8,20.86,11C486.92,80.87,495.68,77.53,505.87,77.53Z"/>
        <path d="M599.46,152.5c-8.75,4.3-17.67,5.57-26.58,5.73-27.38.48-44.57-16.55-42.5-43.77,1.75-22.92,18-35.82,39.31-36.29,15.76,0,34.07,7,32.8,25.46-.8,15.92-16.72,21.81-30.09,22.29-10.19,0-22.44-1.91-30.24-7.64-.64,19.74,11.46,29.93,31.36,29.93A67.46,67.46,0,0,0,599,142.63Zm-29.29-36.29c8.76,0,19.42-3.18,20.22-13,1.27-10.51-11.46-14.81-20.7-14.81-13.37,0-23.39,6.85-26.42,20.38C549.8,114,561.42,116.21,570.17,116.21Z"/>
        <path d="M662.33,45.37c34.07,0,54.13,25,54.13,55.56,0,31.2-20.06,55.87-54.13,55.87H622.86V45.37ZM662,144.7c25.47,0,41.23-18.62,41.23-43.61,0-24.68-15.76-43.46-41.23-43.46H636.23V144.7Z"/>
        <path d="M749.24,129.26l-13,27.54H722.34v-1.75L774.23,44.9h6L831.7,155.05v1.75H818L805,129.26Zm4.46-11.46h46.8l-23.4-52Z"/>
        <path d="M893.77,158.55c-31.36,0-56.35-22-56.35-57.46,0-35.66,25.31-57.63,56.51-57.63s56.51,22.29,56.51,57.63C950.44,134.83,927.36,158.55,893.77,158.55Zm0-12.26c24.52,0,43.3-18.14,43.3-45.2S918.6,55.56,893.93,55.56c-24.19,0-43.14,18.15-43.14,45.53C850.79,128.15,869.42,146.29,893.77,146.29Z"/>
      </g>
    </g>
  </g>
</svg>
