<svg width="496" height="178" viewBox="0 0 496 178" fill="none" xmlns="http://www.w3.org/2000/svg">
<rect y="-0.00012207" width="496" height="178" rx="16" fill="#1D1A27"/>
<mask id="mask0_2_331" style="mask-type:alpha" maskUnits="userSpaceOnUse" x="76" y="46" width="60" height="79">
<path d="M76.4789 79.5569C79.3466 69.1754 90.0734 63.092 100.457 65.9597C110.838 68.8275 116.922 79.5542 114.054 89.9367C109.896 104.988 99.0515 117.277 84.641 123.318C102.165 128.158 121.336 120.506 130.401 103.854C140.964 84.4513 133.775 60.1749 114.373 49.6122C111.652 48.121 108.804 46.9794 105.921 46.1831C91.4302 52.0845 80.5348 64.4478 76.4789 79.5569Z" fill="url(#paint0_linear_2_331)"/>
</mask>
<g mask="url(#mask0_2_331)">
<rect x="52.2455" y="41.7166" width="86.0538" height="86.0538" fill="url(#paint1_linear_2_331)"/>
</g>
<mask id="mask1_2_331" style="mask-type:alpha" maskUnits="userSpaceOnUse" x="50" y="42" width="59" height="80">
<path d="M70.8867 117.948C73.6351 119.447 76.4563 120.58 79.3411 121.378L79.368 121.385C93.7785 115.344 104.623 103.055 108.781 88.0037C105.913 98.3861 95.1855 104.47 84.804 101.602C74.4207 98.7332 68.3372 88.0064 71.2059 77.624C75.2609 62.5149 86.1572 50.1516 100.648 44.2501C83.1298 39.3818 63.9316 47.0264 54.8593 63.7066C44.3235 83.1165 51.484 107.386 70.8867 117.948Z" fill="url(#paint2_linear_2_331)"/>
</mask>
<g mask="url(#mask1_2_331)">
<rect x="46.9731" y="39.7833" width="86.0538" height="86.0538" fill="url(#paint3_linear_2_331)"/>
</g>
<path d="M233.099 83.3662H289.437V139.704H233.099V83.3662Z" fill="#C4C4C4"/>
<path d="M189.932 88.7279C189.932 84.5465 190.956 80.6852 193.004 77.1439C195.095 73.6025 197.911 70.8079 201.452 68.7599C204.993 66.6692 208.855 65.6239 213.036 65.6239C217.303 65.6239 221.249 66.7332 224.876 68.9519C228.503 71.1279 231.297 74.0292 233.26 77.6559L225.9 81.5599C224.62 79.2985 222.828 77.4852 220.524 76.1199C218.22 74.7119 215.724 74.0079 213.036 74.0079C210.391 74.0079 207.916 74.6692 205.612 75.9919C203.351 77.3145 201.559 79.1065 200.236 81.3679C198.913 83.6292 198.252 86.0825 198.252 88.7279C198.252 91.3732 198.913 93.8265 200.236 96.0879C201.559 98.3492 203.351 100.141 205.612 101.464C207.916 102.787 210.391 103.448 213.036 103.448C215.809 103.448 218.327 102.744 220.588 101.336C222.892 99.9279 224.684 98.0505 225.964 95.7039L233.324 99.7359C231.361 103.405 228.567 106.349 224.94 108.568C221.313 110.744 217.345 111.832 213.036 111.832C208.855 111.832 204.993 110.808 201.452 108.76C197.911 106.669 195.095 103.853 193.004 100.312C190.956 96.7705 189.932 92.9092 189.932 88.7279ZM260.762 78.9999H268.634V111H260.762V108.312C259.61 109.379 258.33 110.232 256.922 110.872C255.514 111.512 254.021 111.832 252.442 111.832C250.565 111.832 248.645 111.448 246.682 110.68C244.762 109.869 243.098 108.44 241.69 106.392C240.325 104.344 239.642 101.592 239.642 98.1359V78.9999H247.578V98.1359C247.578 100.525 248.239 102.253 249.562 103.32C250.927 104.344 252.506 104.856 254.298 104.856C256.09 104.856 257.605 104.237 258.842 103C260.122 101.72 260.762 99.6932 260.762 96.9199V78.9999ZM294.465 78.9999L293.889 86.5519C293.463 86.4239 292.994 86.3599 292.482 86.3599C289.836 86.3599 287.66 87.1065 285.953 88.5999C284.247 90.0505 283.393 92.0772 283.393 94.6799V111H275.457V78.9999H283.393V84.8239C284.119 83.1599 285.356 81.7732 287.105 80.6639C288.855 79.5545 290.967 78.9999 293.441 78.9999H294.465ZM313.734 78.1679C316.806 78.1679 319.558 78.9359 321.99 80.4719C324.465 81.9652 326.385 83.9919 327.75 86.5519C329.116 89.1119 329.799 91.9492 329.799 95.0639C329.799 96.0879 329.713 97.0265 329.542 97.8799H304.774C305.329 100.056 306.46 101.805 308.166 103.128C309.873 104.408 311.942 105.048 314.374 105.048C315.953 105.048 317.446 104.707 318.854 104.024C320.305 103.341 321.393 102.467 322.118 101.4L328.199 104.984C326.705 107.203 324.764 108.909 322.375 110.104C320.028 111.256 317.318 111.832 314.247 111.832C310.833 111.832 307.804 111.107 305.158 109.656C302.513 108.205 300.465 106.2 299.014 103.64C297.564 101.08 296.838 98.1999 296.838 94.9999C296.838 91.8425 297.542 88.9839 298.95 86.4239C300.401 83.8639 302.406 81.8585 304.966 80.4079C307.569 78.9145 310.492 78.1679 313.734 78.1679ZM322.31 91.6719C322.012 89.6239 321.073 88.0239 319.494 86.8719C317.916 85.6772 315.953 85.0799 313.606 85.0799C311.985 85.0799 310.492 85.3785 309.126 85.9759C307.804 86.5732 306.737 87.3839 305.926 88.4079C305.116 89.4319 304.689 90.5199 304.646 91.6719H322.31ZM354.809 66.1999C358.991 66.1999 362.831 67.2025 366.329 69.2079C369.871 71.1705 372.665 73.8799 374.714 77.3359C376.762 80.7492 377.785 84.5465 377.785 88.7279C377.785 92.9092 376.762 96.7065 374.714 100.12C372.665 103.491 369.871 106.157 366.329 108.12C362.831 110.04 358.991 111 354.809 111H337.081V66.1999H354.809ZM354.809 103.064C357.497 103.064 359.951 102.424 362.169 101.144C364.431 99.8639 366.201 98.1359 367.481 95.9599C368.804 93.7412 369.465 91.3092 369.465 88.6639C369.465 86.0185 368.804 83.5865 367.481 81.3679C366.201 79.1065 364.431 77.3359 362.169 76.0559C359.951 74.7759 357.497 74.1359 354.809 74.1359H345.401V103.064H354.809ZM420.389 111H411.493L408.165 101.976H390.437L387.109 111H378.149L394.789 66.1999H403.749L420.389 111ZM399.333 78.1679L393.381 94.0399H405.221L399.333 78.1679ZM444.938 111.832C440.757 111.832 436.896 110.808 433.354 108.76C429.813 106.669 426.997 103.853 424.906 100.312C422.858 96.7705 421.834 92.9092 421.834 88.7279C421.834 84.5465 422.858 80.6852 424.906 77.1439C426.997 73.6025 429.813 70.8079 433.354 68.7599C436.896 66.6692 440.757 65.6239 444.938 65.6239C449.12 65.6239 452.981 66.6692 456.522 68.7599C460.064 70.8079 462.858 73.6025 464.906 77.1439C466.997 80.6852 468.042 84.5465 468.042 88.7279C468.042 92.9092 466.997 96.7705 464.906 100.312C462.858 103.853 460.064 106.669 456.522 108.76C452.981 110.808 449.12 111.832 444.938 111.832ZM444.938 103.448C447.584 103.448 450.037 102.787 452.298 101.464C454.56 100.141 456.352 98.3492 457.674 96.0879C458.997 93.8265 459.658 91.3732 459.658 88.7279C459.658 86.0825 458.997 83.6292 457.674 81.3679C456.352 79.1065 454.56 77.3145 452.298 75.9919C450.037 74.6692 447.584 74.0079 444.938 74.0079C442.293 74.0079 439.818 74.6692 437.514 75.9919C435.253 77.3145 433.461 79.1065 432.138 81.3679C430.816 83.6292 430.154 86.0825 430.154 88.7279C430.154 91.3732 430.816 93.8265 432.138 96.0879C433.461 98.3492 435.253 100.141 437.514 101.464C439.818 102.787 442.293 103.448 444.938 103.448Z" fill="white"/>
<defs>
<linearGradient id="paint0_linear_2_331" x1="94.1291" y1="51.706" x2="115.211" y2="117.247" gradientUnits="userSpaceOnUse">
<stop stop-color="#E3F1DA"/>
<stop offset="1" stop-color="#CCF3B6"/>
</linearGradient>
<linearGradient id="paint1_linear_2_331" x1="52.2455" y1="84.7434" x2="139.8" y2="86.3034" gradientUnits="userSpaceOnUse">
<stop stop-color="#6F86FF"/>
<stop offset="0.333333" stop-color="#B372CE"/>
<stop offset="1" stop-color="#FF7586"/>
</linearGradient>
<linearGradient id="paint2_linear_2_331" x1="67.2684" y1="56.9012" x2="99.6762" y2="107.243" gradientUnits="userSpaceOnUse">
<stop stop-color="#D0F1BD"/>
<stop offset="1" stop-color="#90E65D"/>
</linearGradient>
<linearGradient id="paint3_linear_2_331" x1="46.9731" y1="82.8102" x2="107.147" y2="97.2942" gradientUnits="userSpaceOnUse">
<stop stop-color="#6F86FF"/>
<stop offset="0.9999" stop-color="#A75CC7"/>
<stop offset="1" stop-color="#FF7586"/>
</linearGradient>
</defs>
</svg>
