<svg width="455" height="130" viewBox="0 0 455 130" fill="none" xmlns="http://www.w3.org/2000/svg">
<path d="M0 45.937C0 39.037 3.545 32.919 9.005 29.13C10.102 18.597 19.487 10.369 30.902 10.369C31.255 10.369 31.603 10.378 31.952 10.393C34.718 7.58 38.296 5.493 42.333 4.466C44.204 3.989 46.133 3.752 48.061 3.752C50.954 3.752 53.715 4.281 56.244 5.241C56.38 5.189 56.515 5.139 56.651 5.091C56.656 5.088 56.662 5.086 56.669 5.085C56.806 5.036 56.944 4.988 57.083 4.94C59.38 4.171 61.853 3.752 64.428 3.752C66.24 3.752 68 3.96 69.685 4.352C71.662 3.485 73.864 3 76.184 3C82.147 3 87.32 6.19 89.91 10.862C95.072 11.248 99.423 14.349 101.376 18.656C106.706 19.852 110.9 24.519 110.9 30.069C110.9 30.602 110.862 31.126 110.79 31.638C112.782 33.571 114.221 36.055 114.84 38.769C115.459 41.472 115.249 44.343 114.245 46.929C113.691 48.355 112.903 49.688 111.931 50.87C111.233 51.74 110.252 52.349 109.555 53.184C107.92 54.462 106.004 55.428 103.909 55.987C103.879 63.024 97.845 68.718 90.405 68.718C90.332 68.718 90.26 68.718 90.188 68.715C88.295 70.57 85.639 71.725 82.7 71.725C79.294 71.725 76.271 70.175 74.372 67.783C70.944 75.068 63.229 80.146 54.26 80.146C50.578 80.146 47.108 79.292 44.06 77.779C41.119 82.27 35.865 85.259 29.872 85.259C24.414 85.259 19.566 82.78 16.524 78.941C7.911 78.861 0.95401 72.227 0.95401 64.056C0.95401 61.328 1.729 58.77 3.084 56.572C1.124 53.461 0 49.824 0 45.937Z" fill="#262425"/>
<path d="M62.343 69.17C61.74 67.746 60.879 66.472 59.785 65.376C58.688 64.28 57.412 63.42 55.991 62.817C54.518 62.194 52.953 61.878 51.345 61.878H20.641C15.724 61.878 11.723 57.879 11.723 52.961V49.233H8.70398V52.961C8.70398 54.571 9.01797 56.135 9.64297 57.608C10.244 59.03 11.104 60.306 12.2 61.405C13.295 62.499 14.572 63.358 15.992 63.961C17.465 64.581 19.028 64.9 20.64 64.9H51.344C56.261 64.9 60.261 68.9 60.261 73.814V113.348H63.281V73.815C63.282 72.205 62.966 70.642 62.343 69.17Z" fill="#00A0AF"/>
<path d="M57.438 45.269C56.836 43.85 55.976 42.572 54.881 41.479C53.784 40.38 52.507 39.522 51.088 38.918C49.613 38.296 48.051 37.98 46.44 37.98H36.795V41.001H46.44C51.357 41.001 55.357 44.999 55.357 49.917V113.348H58.378V49.916C58.378 48.306 58.06 46.742 57.438 45.269Z" fill="#95A43A"/>
<path d="M80.578 26.233V68.447C80.578 73.365 76.578 77.364 71.661 77.364H62.431C60.82 77.364 59.256 77.68 57.783 78.301C56.363 78.904 55.086 79.765 53.99 80.861C52.893 81.958 52.034 83.232 51.433 84.656C50.809 86.127 50.495 87.69 50.495 89.303V113.348H53.514V89.302C53.514 84.383 57.514 80.383 62.432 80.383H71.662C73.273 80.383 74.837 80.067 76.308 79.444C77.73 78.841 79.006 77.982 80.102 76.888C81.198 75.79 82.058 74.515 82.659 73.095C83.283 71.62 83.598 70.056 83.598 68.447V26.233H80.578Z" fill="#F7941E"/>
<path d="M27.035 42.341V64.463C27.035 69.38 31.036 73.379 35.952 73.379H36.745C38.356 73.379 39.919 73.696 41.391 74.319C42.813 74.919 44.088 75.779 45.185 76.876C46.281 77.972 47.142 79.248 47.743 80.669C48.366 82.144 48.681 83.704 48.681 85.316V113.348H45.662V85.317C45.662 80.4 41.661 76.397 36.745 76.397L35.952 76.401C34.342 76.401 32.778 76.086 31.305 75.462C29.885 74.86 28.608 73.999 27.513 72.905C26.417 71.808 25.555 70.532 24.955 69.111C24.332 67.636 24.016 66.074 24.016 64.464V42.342H27.035V42.341Z" fill="#FEBC11"/>
<path d="M97.266 43.307V52.593C97.266 57.511 93.266 61.511 88.349 61.511L77.028 61.504C75.416 61.504 73.853 61.82 72.381 62.443C70.96 63.045 69.683 63.903 68.587 65.001C67.492 66.097 66.631 67.372 66.031 68.795C65.406 70.269 65.092 71.832 65.092 73.441V113.348H68.112V73.441C68.112 68.526 72.111 64.526 77.027 64.526L78.5 64.532H88.351C89.96 64.532 91.525 64.215 92.997 63.592C94.419 62.99 95.695 62.13 96.791 61.036C97.887 59.936 98.748 58.662 99.348 57.24C99.971 55.766 100.286 54.204 100.286 52.594V43.308H97.266V43.307Z" fill="#F26522"/>
<path d="M62.503 25.696C65.664 23.736 70.113 22.515 75.042 22.515C84.638 22.515 92.415 27.144 92.415 32.852C92.415 38.306 85.314 42.774 76.311 43.161C75.891 43.181 75.469 43.188 75.042 43.188C73.958 43.188 72.898 43.129 71.87 43.017C71.77 43.496 71.719 43.99 71.719 44.496C71.719 46.027 72.198 47.446 73.013 48.612C70.189 47.796 68.084 45.291 67.852 42.262C61.843 40.638 57.664 37.033 57.664 32.851C57.665 30.075 59.506 27.553 62.503 25.696Z" fill="#F7941E"/>
<path d="M56.807 20.343C56.774 18.898 56.45 17.437 55.804 16.043C55.764 15.957 55.724 15.874 55.684 15.791C56.176 15.447 56.661 15.09 57.14 14.722C56.717 13.916 56.204 13.158 55.616 12.464C55.09 12.762 54.574 13.072 54.067 13.396C52.999 12.201 51.692 11.274 50.25 10.653C50.408 10.079 50.55 9.497 50.681 8.91C49.832 8.572 48.947 8.319 48.041 8.166C47.829 8.731 47.63 9.295 47.45 9.866C45.903 9.644 44.294 9.746 42.726 10.212C42.476 9.673 42.207 9.141 41.927 8.615C41.052 8.896 40.21 9.273 39.413 9.732C39.612 10.295 39.826 10.85 40.054 11.402C38.656 12.256 37.502 13.382 36.633 14.675C36.09 14.428 35.539 14.193 34.982 13.97C34.489 14.744 34.079 15.569 33.765 16.428C34.285 16.726 34.81 17.011 35.342 17.285C34.837 18.773 34.649 20.367 34.82 21.956C34.24 22.114 33.663 22.288 33.088 22.473C33.209 23.376 33.43 24.265 33.742 25.12C34.336 25.015 34.929 24.895 35.514 24.763C35.592 24.958 35.676 25.154 35.766 25.345C36.359 26.624 37.172 27.734 38.14 28.647C37.795 29.139 37.459 29.637 37.136 30.145C37.815 30.755 38.561 31.292 39.355 31.742C39.747 31.283 40.126 30.814 40.492 30.339C41.888 31.083 43.44 31.522 45.036 31.618C45.084 32.21 45.15 32.803 45.229 33.395C46.147 33.426 47.071 33.361 47.977 33.195C47.981 32.596 47.973 31.997 47.947 31.404C48.77 31.232 49.587 30.966 50.382 30.596C51.064 30.279 51.698 29.903 52.282 29.476C52.706 29.894 53.138 30.304 53.584 30.704C54.314 30.144 54.982 29.5 55.573 28.798C55.191 28.341 54.796 27.893 54.391 27.455C55.391 26.203 56.103 24.757 56.487 23.225C57.084 23.272 57.685 23.309 58.287 23.329C58.487 22.439 58.587 21.526 58.591 20.613C57.997 20.508 57.403 20.417 56.807 20.343ZM49.122 27.85C45.086 29.724 40.299 27.97 38.425 23.936C36.553 19.903 38.305 15.115 42.34 13.241C46.374 11.368 51.162 13.12 53.036 17.154C54.91 21.19 53.157 25.975 49.122 27.85Z" fill="#00ADBA"/>
<path d="M49.0066 19.1883C48.1968 17.4446 46.1098 16.6954 44.345 17.5149C42.5803 18.3344 41.8061 20.4123 42.6158 22.156C43.4256 23.8997 45.5126 24.6489 47.2774 23.8294C49.0421 23.0099 49.8163 20.932 49.0066 19.1883Z" fill="#00ADBA"/>
<path d="M16.635 69.321L15.523 68.209L14.029 71.889L12.535 75.566L16.215 74.075L19.892 72.58L18.78 71.466L21.295 68.951L19.151 66.807L16.635 69.321Z" fill="#FAA21B"/>
<path d="M32.801 49.635C32.801 49.635 29.913 53.855 29.913 55.45C29.913 57.047 31.206 58.34 32.801 58.34C34.398 58.34 35.692 57.047 35.692 55.45C35.692 53.855 32.801 49.635 32.801 49.635Z" fill="#008FAF"/>
<path d="M106.435 44.042C106.454 43.496 106.414 42.952 106.317 42.416C105.96 42.415 105.603 42.422 105.246 42.439C105.051 41.487 104.65 40.618 104.099 39.876C104.349 39.622 104.595 39.362 104.835 39.097C104.498 38.667 104.117 38.274 103.698 37.926C103.424 38.155 103.155 38.39 102.893 38.632C102.158 38.052 101.297 37.628 100.365 37.405C100.397 37.05 100.416 36.692 100.428 36.336C99.895 36.223 99.35 36.166 98.805 36.169C98.741 36.521 98.688 36.875 98.643 37.229C98.517 37.232 98.39 37.242 98.264 37.251C97.423 37.325 96.631 37.558 95.918 37.913C95.713 37.622 95.499 37.335 95.28 37.054C94.798 37.308 94.343 37.619 93.929 37.971C94.105 38.282 94.292 38.586 94.485 38.885C93.782 39.515 93.218 40.291 92.839 41.162C92.495 41.069 92.147 40.986 91.797 40.911C91.591 41.418 91.441 41.945 91.348 42.484C91.684 42.606 92.023 42.72 92.364 42.827C92.293 43.318 92.276 43.828 92.322 44.345C92.362 44.787 92.445 45.218 92.565 45.629C92.243 45.78 91.924 45.939 91.608 46.109C91.774 46.627 92 47.128 92.275 47.597C92.612 47.476 92.944 47.346 93.273 47.209C93.773 48.018 94.444 48.703 95.23 49.224C95.079 49.548 94.938 49.876 94.803 50.206C95.264 50.496 95.758 50.734 96.271 50.921C96.452 50.612 96.623 50.298 96.787 49.982C97.609 50.253 98.498 50.365 99.417 50.286C99.472 50.28 99.526 50.273 99.581 50.268C99.675 50.611 99.777 50.954 99.887 51.294C100.427 51.219 100.959 51.084 101.472 50.896C101.41 50.545 101.34 50.194 101.262 49.847C102.154 49.491 102.942 48.949 103.586 48.269C103.879 48.474 104.177 48.668 104.481 48.859C104.847 48.454 105.169 48.012 105.439 47.538C105.164 47.309 104.886 47.083 104.602 46.868C105.042 46.049 105.312 45.133 105.372 44.165C105.725 44.134 106.081 44.093 106.435 44.042Z" fill="#FEBC11"/>
<path d="M41.215 55.804C43.902 58.455 48.229 58.425 50.88 55.736C53.53 53.051 53.501 48.723 50.814 46.073C48.126 43.422 43.799 43.452 41.147 46.139C38.497 48.826 38.527 53.152 41.215 55.804ZM42.138 55.09L43.042 54.28L44.803 52.705C45.141 52.936 45.529 53.059 45.923 53.077L46.386 55.395L46.624 56.583C45.036 56.756 43.39 56.258 42.138 55.09ZM50.058 54.926C49.358 55.637 48.517 56.123 47.625 56.386L47.386 55.197L46.923 52.88C47.146 52.774 47.355 52.629 47.539 52.442C47.675 52.305 47.788 52.155 47.879 51.994L50.154 52.638L51.321 52.965C51.05 53.678 50.629 54.348 50.058 54.926ZM51.598 51.985L50.43 51.656L48.156 51.013C48.167 50.642 48.085 50.266 47.906 49.928L49.667 48.354L50.57 47.543C51.538 48.841 51.882 50.459 51.598 51.985ZM49.891 46.785L48.986 47.595L47.226 49.17C46.888 48.939 46.499 48.816 46.106 48.797L45.643 46.481L45.406 45.293C46.991 45.119 48.639 45.617 49.891 46.785ZM41.969 46.95C42.67 46.238 43.511 45.754 44.403 45.49L44.642 46.68L45.105 48.995C44.88 49.102 44.671 49.247 44.487 49.433C44.353 49.572 44.239 49.723 44.149 49.881L41.874 49.241L40.706 48.91C40.978 48.198 41.399 47.528 41.969 46.95ZM41.598 50.222L43.873 50.862C43.861 51.236 43.944 51.61 44.123 51.947L42.361 53.523L41.458 54.333C40.489 53.035 40.146 51.417 40.43 49.893L41.598 50.222Z" fill="#F7941E"/>
<path d="M73.637 53.756L68.609 54.794L69.631 56.379L65.712 58.903L67.68 61.956L71.597 59.434L72.617 61.019L75.643 56.869L78.668 52.719L73.637 53.756Z" fill="#F6891F"/>
<path d="M62.9249 60.8058L64.8112 63.7312L66.8963 62.3868L65.0099 59.4613L62.9249 60.8058Z" fill="#F6891F"/>
<path d="M29.245 42.691L32.018 40.604L34.105 43.376L33.279 43.997L32.253 42.636L31.836 45.59L30.812 45.445L31.23 42.491L29.867 43.516L29.245 42.691Z" fill="#AAD9B5"/>
<path d="M32.994 39.382L32.333 39.023L33.37 37.111L32.178 37.465L31.963 36.742L34.388 36.022L35.108 38.45L34.386 38.661L34.032 37.469L32.994 39.382Z" fill="#AAD9B5"/>
<path d="M96.033 18.818H93.095V15.88H91.05V18.818H88.112V20.863H91.05V23.801H93.095V20.863H96.033V18.818Z" fill="#F26522"/>
<path d="M14.753 41.62H11.624V38.493H9.44601V41.62H6.31702V43.8H9.44601V46.928H11.624V43.8H14.753V41.62Z" fill="#F5EB00"/>
<path d="M81.255 12.712L82.905 10.664L76.526 8.843L70.145 7.019L73.286 12.863L76.425 18.709L78.076 16.66L82.706 20.39L85.886 16.444L81.255 12.712Z" fill="#8DC63F"/>
<path d="M62.295 13.614L64.07 14.81L60.487 20.122L61.086 20.527L64.67 15.214L66.446 16.412L66.622 13.915L66.795 11.418L62.295 13.614Z" fill="#4EA0B4"/>
<path d="M50.993 68.583C49.64 67.232 47.447 67.232 46.095 68.583C44.742 69.937 44.742 72.131 46.095 73.483C47.448 74.835 49.64 74.836 50.993 73.483C52.346 72.131 52.346 69.938 50.993 68.583ZM49.457 71.947C48.953 72.452 48.135 72.452 47.632 71.947C47.128 71.44 47.128 70.626 47.632 70.121C48.134 69.617 48.953 69.617 49.457 70.121C49.961 70.625 49.961 71.44 49.457 71.947Z" fill="#00A0AF"/>
<path d="M25.234 81.762L26.045 79.312L33.38 81.74L33.655 80.911L26.319 78.483L27.131 76.031L24.175 76.64L21.221 77.253L25.234 81.762Z" fill="#79AD36"/>
<path d="M62.925 52.83L63.742 52.787L63.595 50.032L66.45 49.963L62.943 44.214L59.716 50.127L62.779 50.05L62.925 52.83Z" fill="#17AEB2"/>
<path d="M28.023 28.87L24.015 28.205L24.682 24.199C24.749 23.798 24.477 23.417 24.076 23.35C23.672 23.282 23.293 23.554 23.225 23.957L22.559 27.962L18.553 27.294C18.152 27.229 17.77 27.5 17.704 27.9C17.637 28.304 17.909 28.684 18.309 28.751L22.317 29.419L21.649 33.425C21.583 33.826 21.854 34.207 22.258 34.275C22.659 34.341 23.038 34.07 23.106 33.667L23.773 29.661L27.779 30.328C28.182 30.395 28.562 30.123 28.629 29.722C28.696 29.32 28.424 28.939 28.023 28.87Z" fill="#BFE2CE"/>
<path d="M31.827 28.805C32.326 28.725 32.825 28.632 33.323 28.528C33.3 27.725 33.182 26.928 32.972 26.156C32.466 26.193 31.959 26.246 31.458 26.312C31.181 25.389 30.75 24.511 30.169 23.714C30.527 23.358 30.877 22.988 31.217 22.61C30.727 21.974 30.159 21.397 29.536 20.895C29.148 21.226 28.77 21.567 28.404 21.916C27.607 21.31 26.738 20.864 25.836 20.57C25.915 20.07 25.981 19.566 26.034 19.062C25.264 18.834 24.468 18.701 23.666 18.663C23.547 19.157 23.442 19.653 23.35 20.153C22.379 20.132 21.409 20.277 20.483 20.576C20.254 20.125 20.012 19.68 19.758 19.237C19.002 19.506 18.279 19.865 17.606 20.303C17.8 20.773 18.006 21.24 18.225 21.695C17.511 22.193 16.86 22.805 16.301 23.532C16.252 23.596 16.202 23.661 16.157 23.727C15.707 23.495 15.247 23.276 14.783 23.07C14.331 23.73 13.953 24.445 13.669 25.197C14.102 25.464 14.542 25.719 14.987 25.96C14.663 26.889 14.506 27.856 14.507 28.817C14.007 28.896 13.508 28.991 13.012 29.096C13.033 29.896 13.151 30.695 13.361 31.469C13.868 31.429 14.373 31.377 14.876 31.311C15.152 32.232 15.585 33.113 16.165 33.908C15.806 34.265 15.457 34.635 15.118 35.012C15.608 35.647 16.176 36.223 16.798 36.726C17.186 36.394 17.563 36.055 17.93 35.707C18.727 36.311 19.596 36.76 20.498 37.051C20.419 37.551 20.352 38.053 20.3 38.56C21.071 38.787 21.867 38.919 22.667 38.959C22.787 38.465 22.892 37.967 22.983 37.47C23.955 37.489 24.925 37.346 25.85 37.044C26.079 37.495 26.321 37.941 26.577 38.384C27.331 38.114 28.056 37.758 28.728 37.317C28.536 36.846 28.327 36.382 28.109 35.924C28.824 35.428 29.474 34.815 30.032 34.089C30.083 34.024 30.13 33.959 30.179 33.894C30.63 34.124 31.087 34.345 31.553 34.552C32.003 33.89 32.381 33.175 32.665 32.425C32.233 32.157 31.793 31.904 31.347 31.659C31.669 30.734 31.827 29.769 31.827 28.805Z" fill="#95A43A"/>
<path d="M22.2841 34.113C25.2111 34.601 27.98 32.622 28.466 29.695C28.953 26.767 26.9751 23.999 24.0471 23.512C21.1201 23.026 18.352 25.003 17.865 27.93C17.378 30.858 19.3571 33.625 22.2841 34.113ZM23.815 24.911C25.971 25.268 27.427 27.308 27.067 29.463C26.709 31.618 24.671 33.074 22.515 32.717C20.359 32.359 18.904 30.32 19.262 28.165C19.622 26.007 21.66 24.551 23.815 24.911Z" fill="#A9BF38"/>
<path d="M23.1661 30.815C24.2723 30.815 25.1691 29.9182 25.1691 28.812C25.1691 27.7058 24.2723 26.809 23.1661 26.809C22.0599 26.809 21.1631 27.7058 21.1631 28.812C21.1631 29.9182 22.0599 30.815 23.1661 30.815Z" fill="#A9BF38"/>
<path d="M102.065 23.067C99.033 23.053 96.561 25.5 96.549 28.531C96.535 31.565 98.982 34.035 102.014 34.049C105.046 34.063 107.517 31.618 107.53 28.584C107.545 25.551 105.097 23.083 102.065 23.067ZM102.021 32.6C99.788 32.59 97.985 30.772 97.996 28.539C98.006 26.307 99.826 24.503 102.059 24.514C104.291 24.526 106.093 26.344 106.082 28.577C106.073 30.81 104.253 32.611 102.021 32.6Z" fill="#BFB131"/>
<path d="M102.039 30.604C103.169 30.604 104.085 29.688 104.085 28.558C104.085 27.428 103.169 26.512 102.039 26.512C100.909 26.512 99.993 27.428 99.993 28.558C99.993 29.688 100.909 30.604 102.039 30.604Z" fill="#CFB52B"/>
<path d="M17.924 57.128C19.4732 57.128 20.729 55.8722 20.729 54.323C20.729 52.7738 19.4732 51.518 17.924 51.518C16.3749 51.518 15.119 52.7738 15.119 54.323C15.119 55.8722 16.3749 57.128 17.924 57.128Z" fill="#8DC63F"/>
<path d="M5.562 65.497C5.112 65.182 4.847 64.785 4.771 64.309C4.694 63.83 4.824 63.352 5.161 62.869C5.529 62.343 5.968 62.024 6.476 61.92C6.985 61.818 7.48199 61.934 7.97299 62.275C8.43999 62.602 8.70799 62.997 8.77699 63.46C8.84599 63.923 8.70399 64.408 8.34999 64.915C7.98799 65.436 7.55199 65.749 7.04799 65.851C6.54199 65.954 6.046 65.835 5.562 65.497ZM12.424 65.51L3.88199 68.966L2.80499 68.217L11.338 64.753L12.424 65.51ZM7.40399 63.032C6.97199 62.734 6.551 62.884 6.133 63.479C5.739 64.045 5.747 64.471 6.157 64.755C6.574 65.048 6.98899 64.901 7.39899 64.31C7.79799 63.737 7.80099 63.31 7.40399 63.032ZM7.26599 71.456C6.81499 71.142 6.551 70.748 6.476 70.27C6.398 69.792 6.52899 69.311 6.86699 68.828C7.23299 68.302 7.67198 67.987 8.18098 67.881C8.68998 67.776 9.18699 67.895 9.67599 68.237C10.148 68.563 10.418 68.959 10.488 69.417C10.555 69.879 10.414 70.36 10.061 70.868C9.69599 71.388 9.26099 71.7 8.75499 71.807C8.24799 71.912 7.75199 71.797 7.26599 71.456ZM9.09499 68.986C8.66799 68.689 8.24699 68.838 7.82899 69.435C7.43499 70 7.44499 70.427 7.85999 70.717C8.27799 71.009 8.69299 70.86 9.10399 70.271C9.29299 69.996 9.387 69.747 9.379 69.518C9.373 69.29 9.27699 69.113 9.09499 68.986Z" fill="#FEBC11"/>
<path d="M91.412 56.123L92.013 57.037L91.398 57.439L90.815 56.552C90.242 56.926 89.627 57.143 88.968 57.211L88.2 56.045C88.449 56.069 88.772 56.031 89.17 55.932C89.566 55.833 89.897 55.708 90.16 55.557L89.151 54.026C88.335 54.214 87.712 54.245 87.284 54.118C86.858 53.991 86.51 53.722 86.239 53.31C85.95 52.871 85.859 52.392 85.966 51.879C86.073 51.363 86.367 50.911 86.847 50.522L86.331 49.739L86.946 49.336L87.45 50.103C88.06 49.74 88.566 49.545 88.966 49.517L89.713 50.655C89.163 50.672 88.625 50.818 88.1 51.089L89.149 52.684C89.91 52.501 90.517 52.465 90.971 52.575C91.424 52.684 91.784 52.941 92.051 53.346C92.358 53.811 92.456 54.285 92.345 54.765C92.236 55.244 91.925 55.699 91.412 56.123ZM88.374 52.844L87.497 51.509C87.152 51.835 87.092 52.168 87.313 52.504C87.503 52.793 87.857 52.907 88.374 52.844ZM89.925 53.862L90.764 55.137C91.125 54.813 91.192 54.481 90.969 54.14C90.791 53.866 90.441 53.773 89.925 53.862Z" fill="#95A43A"/>
<path d="M80.593 37.278L79.245 36.715L78.242 39.105L75.984 38.159L76.985 35.769L72.087 33.715L72.746 32.14L80.515 26.841L82.954 27.862L79.984 34.951L81.334 35.515L80.593 37.278ZM79.69 29.407L79.643 29.386C79.491 29.543 79.227 29.777 78.851 30.086L74.881 32.811L77.727 34.003L79.209 30.467C79.34 30.155 79.5 29.8 79.69 29.407Z" fill="#FEBC11"/>
<path d="M172.659 28.4987C152.163 28.3009 135.642 43.5439 135.831 62.4848C136.015 80.5078 151.395 95.7081 170.859 97.0827C171.689 97.1481 172.517 97.1817 173.345 97.1832C174.618 97.2032 175.915 97.1534 177.189 97.0463L178.838 96.9033L178.761 89.1698L176.726 89.3788C175.57 89.4823 174.404 89.5526 173.278 89.5326C157.276 89.3683 144.278 77.1664 144.127 62.5714C143.981 47.8588 156.818 36.0194 172.739 36.1602C173.904 36.1805 175.063 36.2544 176.194 36.3931L178.239 36.6303L178.167 28.9018L176.518 28.7269C175.245 28.5843 173.963 28.5133 172.659 28.4987Z" fill="#00A0AF"/>
<path d="M179.374 105.67L177.132 105.826C175.921 105.904 174.665 105.941 173.405 105.932C172.372 105.914 171.332 105.882 170.306 105.811C146.007 104.084 126.806 85.0999 126.575 62.5983C126.341 38.9611 146.972 19.9355 172.552 20.1756C173.598 20.1995 174.652 20.2425 175.698 20.3073L178.528 20.5363L178.421 9.91997L176.297 9.75945C175.008 9.66493 173.72 9.60231 172.454 9.60143C140.558 9.28588 114.847 33.0105 115.14 62.4809C115.412 90.5457 139.363 114.195 169.655 116.343C169.654 116.352 169.655 116.343 169.655 116.343C170.93 116.431 172.228 116.486 173.517 116.504C174.831 116.519 176.19 116.482 177.564 116.409L179.487 116.314L179.374 105.67Z" fill="#00A0AF"/>
<path d="M317.958 97.7917C339.615 97.232 356.819 80.2241 356.306 59.8709C355.814 40.5042 339.314 24.7443 318.727 24.0002C317.849 23.9611 316.973 23.9563 316.099 23.9858C314.753 24.0123 313.384 24.1148 312.039 24.2779L310.3 24.4937L310.508 32.8039L312.656 32.5025C313.875 32.3478 315.106 32.2282 316.296 32.2072C333.205 31.7809 347.139 44.4074 347.539 60.0905C347.937 75.9001 334.57 89.1105 317.747 89.5592C316.515 89.5812 315.29 89.5454 314.093 89.4389L311.929 89.261L312.132 97.566L313.877 97.6919C315.225 97.7972 316.58 97.8251 317.958 97.7917Z" fill="#00A0AF"/>
<path d="M309.589 15.0907L311.954 14.838C313.233 14.708 314.56 14.6212 315.891 14.5837C316.982 14.5637 318.082 14.5592 319.167 14.5972C344.868 15.5378 365.468 35.2209 366.083 59.4C366.722 84.7998 345.238 106.029 318.209 106.735C317.103 106.748 315.989 106.742 314.882 106.712L311.889 106.572L312.178 117.98L314.424 118.072C315.787 118.125 317.149 118.144 318.487 118.097C352.191 117.235 378.963 90.7633 378.167 59.0954C377.415 28.9376 351.721 4.41911 319.681 3.25101C319.682 3.24135 319.681 3.25101 319.681 3.25101C318.333 3.20418 316.959 3.19416 315.598 3.22414C314.21 3.25667 312.774 3.34835 311.324 3.47773L309.294 3.65296L309.589 15.0907Z" fill="#00A0AF"/>
<path d="M201.938 118.469C198.583 118.469 195.708 117.812 193.312 116.5C190.938 115.167 189.125 113.24 187.875 110.719C186.625 108.177 186 105.125 186 101.562V72.5625H192.375V101.781C192.375 105.094 193.208 107.656 194.875 109.469C196.542 111.281 198.896 112.188 201.938 112.188C205 112.188 207.365 111.281 209.031 109.469C210.719 107.656 211.562 105.094 211.562 101.781V72.5625H217.938V101.562C217.938 105.125 217.312 108.177 216.062 110.719C214.812 113.24 212.99 115.167 210.594 116.5C208.198 117.812 205.312 118.469 201.938 118.469ZM230.719 92.7188H246.219C247.427 92.7188 248.5 92.4271 249.438 91.8438C250.375 91.2604 251.094 90.4375 251.594 89.375C252.115 88.2917 252.375 87.0521 252.375 85.6562C252.375 84.2604 252.115 83.0312 251.594 81.9688C251.094 80.8854 250.375 80.0521 249.438 79.4688C248.521 78.8854 247.448 78.5938 246.219 78.5938H230.719V72.5312H245.969C248.594 72.5312 250.896 73.0729 252.875 74.1562C254.875 75.2396 256.417 76.7812 257.5 78.7812C258.604 80.7604 259.156 83.0521 259.156 85.6562C259.156 88.2604 258.604 90.5625 257.5 92.5625C256.396 94.5417 254.844 96.0729 252.844 97.1562C250.865 98.2396 248.573 98.7812 245.969 98.7812H230.719V92.7188ZM227.938 72.5312H234.312V118H227.938V72.5312ZM243.094 97.375L249.438 95.9375L261.062 118H253.5L243.094 97.375ZM269.688 72.5625H276.062V118H269.688V72.5625ZM272.781 111.938H298.875V118H272.781V111.938ZM272.781 92.4062H295.438V98.4688H272.781V92.4062ZM272.781 72.5625H298.875V78.625H272.781V72.5625Z" fill="#262425"/>
<path d="M388 72.5625H393.438L410.188 118H403.312L390.719 81.3438L378.125 118H371.25L388 72.5625ZM378.969 101.969H402.875V108.031H378.969V101.969Z" fill="#F26522"/>
<path d="M432.094 118.469C428.927 118.469 426.135 117.781 423.719 116.406C421.302 115.01 419.427 113.052 418.094 110.531C416.781 107.99 416.125 105.052 416.125 101.719V88.8438C416.125 85.5104 416.781 82.5833 418.094 80.0625C419.427 77.5208 421.302 75.5625 423.719 74.1875C426.135 72.7917 428.927 72.0938 432.094 72.0938C435.26 72.0938 438.052 72.7917 440.469 74.1875C442.885 75.5625 444.75 77.5208 446.062 80.0625C447.396 82.5833 448.062 85.5104 448.062 88.8438V101.719C448.062 105.052 447.396 107.99 446.062 110.531C444.75 113.052 442.885 115.01 440.469 116.406C438.052 117.781 435.26 118.469 432.094 118.469ZM432.094 112.188C433.969 112.188 435.615 111.771 437.031 110.938C438.469 110.083 439.573 108.885 440.344 107.344C441.135 105.781 441.531 103.979 441.531 101.938V88.625C441.531 86.5833 441.135 84.7917 440.344 83.25C439.573 81.6875 438.469 80.4896 437.031 79.6562C435.615 78.8021 433.969 78.375 432.094 78.375C430.219 78.375 428.562 78.8021 427.125 79.6562C425.708 80.4896 424.604 81.6875 423.812 83.25C423.042 84.7917 422.656 86.5833 422.656 88.625V101.938C422.656 103.979 423.042 105.781 423.812 107.344C424.604 108.885 425.708 110.083 427.125 110.938C428.562 111.771 430.219 112.188 432.094 112.188Z" fill="#95A43A"/>
</svg>
