<svg width="20" height="20" viewBox="0 0 20 20" fill="none" xmlns="http://www.w3.org/2000/svg">
<path d="M17.1088 4.22282C19.2546 7.37777 20.3143 10.9365 19.9182 15.0333C19.9165 15.0507 19.9075 15.0666 19.8933 15.077C18.2683 16.2702 16.6939 16.9944 15.1416 17.4746C15.1295 17.4783 15.1166 17.4781 15.1046 17.474C15.0927 17.47 15.0822 17.4623 15.0749 17.452C14.7162 16.953 14.3904 16.427 14.1049 15.8745C14.0885 15.842 14.1035 15.8028 14.1372 15.79C14.6547 15.595 15.1468 15.3613 15.6202 15.0846C15.6575 15.0628 15.6598 15.0093 15.6254 14.9837C15.5249 14.9091 15.4254 14.8307 15.3302 14.7524C15.3124 14.7379 15.2884 14.735 15.2682 14.7448C12.1952 16.1638 8.82887 16.1638 5.71952 14.7448C5.69933 14.7357 5.67535 14.7388 5.65801 14.7531C5.56301 14.8315 5.46326 14.9091 5.36375 14.9837C5.32931 15.0093 5.33216 15.0628 5.36968 15.0846C5.84302 15.3561 6.33512 15.595 6.85192 15.791C6.88541 15.8038 6.90132 15.842 6.88469 15.8745C6.60539 16.4277 6.27955 16.9537 5.91427 17.4527C5.89836 17.4729 5.87223 17.4822 5.84753 17.4746C4.3026 16.9944 2.72821 16.2702 1.10324 15.077C1.0897 15.0666 1.07997 15.05 1.07854 15.0326C0.747467 11.4889 1.4222 7.90074 3.88531 4.22211C3.89125 4.21237 3.90027 4.20477 3.91072 4.20026C5.12268 3.64403 6.4211 3.23482 7.77817 3.00112C7.80287 2.99732 7.82757 3.00872 7.84039 3.03057C8.00807 3.32745 8.19973 3.70816 8.3294 4.01928C9.75986 3.80078 11.2127 3.80078 12.673 4.01928C12.8027 3.71481 12.9877 3.32745 13.1547 3.03057C13.1606 3.01973 13.1698 3.01105 13.181 3.00576C13.1922 3.00047 13.2048 2.99885 13.2169 3.00112C14.5747 3.23554 15.8731 3.64475 17.0841 4.20026C17.0948 4.20477 17.1036 4.21237 17.1088 4.22282ZM9.05663 10.9607C9.07159 9.91307 8.30779 9.0462 7.34901 9.0462C6.39806 9.0462 5.64162 9.90547 5.64162 10.9607C5.64162 12.0157 6.41302 12.8749 7.34901 12.8749C8.30019 12.8749 9.05663 12.0157 9.05663 10.9607ZM15.3698 10.9607C15.3848 9.91307 14.621 9.0462 13.6625 9.0462C12.7113 9.0462 11.9548 9.90547 11.9548 10.9607C11.9548 12.0157 12.7262 12.8749 13.6625 12.8749C14.621 12.8749 15.3698 12.0157 15.3698 10.9607Z" fill="white"/>
</svg>
